{
.appVersion = "1141";
copyright = "Copyright 2011, 2017 Google Inc. All Rights Reserved.";
customParameters = (
{
name = glyphOrder;
value = (
space,
nbspace,
A,
Agrave,
Aacute,
Acircumflex,
Atilde,
Adieresis,
Aring,
Amacron,
Abreve,
Aogonek,
Aringacute,
Adblgrave,
Ainvertedbreve,
Adotbelow,
Ahookabove,
Acircumflexacute,
Acircumflexgrave,
Acircumflexhookabove,
Acircumflextilde,
Acircumflexdotbelow,
Abreveacute,
Abrevegrave,
Abrevehookabove,
Abrevetilde,
Abrevedotbelow,
B,
C,
Ccedilla,
Cacute,
Ccircumflex,
Cdotaccent,
Ccaron,
D,
Dcaron,
E,
Egrave,
Eacute,
Ecircumflex,
Edieresis,
Emacron,
Ebreve,
Edotaccent,
Eogonek,
Ecaron,
Edblgrave,
Einvertedbreve,
Edotbelow,
Ehookabove,
Etilde,
Ecircumflexacute,
Ecircumflexgrave,
Ecircumflexhookabove,
Ecircumflextilde,
Ecircumflexdotbelow,
F,
G,
Gcircumflex,
Gbreve,
Gdotaccent,
Gcommaaccent,
Gcaron,
H,
Hcircumflex,
I,
Igrave,
Iacute,
Icircumflex,
Idieresis,
Itilde,
Imacron,
Ibreve,
Iogonek,
Idotaccent,
Idblgrave,
Iinvertedbreve,
Ihookabove,
Idotbelow,
J,
Jcircumflex,
K,
Kcommaaccent,
L,
Lacute,
Lcommaaccent,
Lcaron,
M,
N,
Ntilde,
Nacute,
Ncommaaccent,
Ncaron,
O,
Ograve,
Oacute,
Ocircumflex,
Otilde,
Odieresis,
Omacron,
Obreve,
Ohungarumlaut,
Ohorn,
Oogonek,
Odblgrave,
Oinvertedbreve,
Odieresismacron,
Otildemacron,
Odotaccentmacron,
Odotbelow,
Ohookabove,
Ocircumflexacute,
Ocircumflexgrave,
Ocircumflexhookabove,
Ocircumflextilde,
Ocircumflexdotbelow,
Ohornacute,
Ohorngrave,
Ohornhookabove,
Ohorntilde,
Ohorndotbelow,
P,
Q,
R,
Racute,
Rcommaaccent,
Rcaron,
Rdblgrave,
Rinvertedbreve,
S,
Sacute,
Scircumflex,
Scedilla,
Scaron,
Scommaaccent,
T,
Tcedilla,
Tcaron,
Tcommaaccent,
U,
Ugrave,
Uacute,
Ucircumflex,
Udieresis,
Utilde,
Umacron,
Ubreve,
Uring,
Uhungarumlaut,
Uogonek,
Uhorn,
Udblgrave,
Uinvertedbreve,
Udotbelow,
Uhookabove,
Uhornacute,
Uhorngrave,
Uhornhookabove,
Uhorntilde,
Uhorndotbelow,
V,
W,
Wcircumflex,
Wgrave,
Wacute,
Wdieresis,
X,
Y,
Yacute,
Ycircumflex,
Ydieresis,
Ymacron,
Ygrave,
Ydotbelow,
Yhookabove,
Ytilde,
Z,
Zacute,

glyphs = (
{
glyphname = A;
layers = (
{
layerId = "7E98EC3E-25FF-427C-A5DF-023FB65530BC";
paths = (
{
closed = 1;
nodes = (
"851 1455 LINE",
"1461 1455 LINE",
"1924 0 LINE",
"1243 0 LINE",
"1049 725 LINE SMOOTH",
"1042 750 OFFCURVE",
"1034 785 OFFCURVE",
"1032 797 QCURVE",
"1031 797 LINE",
"1024 786 OFFCURVE",
"1004 755 OFFCURVE",
"985 725 QCURVE SMOOTH",
"518 0 LINE",
"-140 0 LINE"
);
},
{
closed = 1;
nodes = (
"579 570 LINE",
"1421 570 LINE",
"1548 198 LINE",
"386 198 LINE"
);
}
);
width = 1984;
}
);
leftKerningGroup = A_UC;
rightKerningGroup = A_UC;
unicode = 0041;
},
{
glyphname = B;
layers = (
{
layerId = "7E98EC3E-25FF-427C-A5DF-023FB65530BC";
paths = (
{
closed = 1;
nodes = (
"263 1456 LINE",
"1331 1456 LINE SMOOTH",
"1569 1456 OFFCURVE",
"1761 1251 OFFCURVE",
"1742 1091 QCURVE SMOOTH",
"1725 948 OFFCURVE",
"1551 797 OFFCURVE",
"1462 767 QCURVE",
"1461 763 LINE",
"1585 751 OFFCURVE",
"1734 569 OFFCURVE",
"1715 405 QCURVE SMOOTH",
"1692 210 OFFCURVE",
"1330 0 OFFCURVE",
"1086 0 QCURVE SMOOTH",
"6 0 LINE"
);
},
{
closed = 1;
nodes = (
"957 374 LINE SMOOTH",
"1030 374 OFFCURVE",
"1100 427 OFFCURVE",
"1110 476 QCURVE SMOOTH",
"1119 523 OFFCURVE",
"1061 583 OFFCURVE",
"998 583 QCURVE SMOOTH",
"690 583 LINE",
"652 372 LINE"
);
},
{
closed = 1;
nodes = (
"1063 857 LINE SMOOTH",
"1113 857 OFFCURVE",
"1175 909 OFFCURVE",
"1185 959 QCURVE SMOOTH",
"1194 1009 OFFCURVE",
"1138 1061 OFFCURVE",
"1088 1061 QCURVE SMOOTH",
"774 1061 LINE",
"738 855 LINE"
);
}
);
width = 1772;
}
);
leftKerningGroup = StraightRight_UC;
unicode = 0042;
},
{
glyphname = C;
layers = (
{
layerId = "7E98EC3E-25FF-427C-A5DF-023FB65530BC";
paths = (
{
closed = 1;
nodes = (
"47 754 LINE SMOOTH",
"108 1137 OFFCURVE",
"721 1481 OFFCURVE",
"1143 1480 QCURVE SMOOTH",
"1556 1479 OFFCURVE",
"1964 1178 OFFCURVE",
"1954 867 QCURVE SMOOTH",
"1952 804 LINE",
"1394 804 LINE",
"1394 843 LINE SMOOTH",
"1394 959 OFFCURVE",
"1255 1065 OFFCURVE",
"1085 1065 QCURVE SMOOTH",
"896 1065 OFFCURVE",
"680 930 OFFCURVE",
"649 765 QCURVE SMOOTH",
"645 744 LINE SMOOTH",
"604 527 OFFCURVE",
"793 361 OFFCURVE",
"971 361 QCURVE SMOOTH",
"1153 361 OFFCURVE",
"1363 456 OFFCURVE",
"1382 587 QCURVE SMOOTH",
"1390 642 LINE",
"1937 642 LINE",
"1931 576 LINE SMOOTH",
"1903 268 OFFCURVE",
"1350 -24 OFFCURVE",
"921 -24 QCURVE SMOOTH",
"474 -24 OFFCURVE",
"-18 347 OFFCURVE",
"43 729 QCURVE SMOOTH"
);
}
);
width = 1977;
}
);
leftKerningGroup = CG_UC;
rightKerningGroup = C_UC;
unicode = 0043;
},
{
glyphname = D;
layers = (
{
layerId = "7E98EC3E-25FF-427C-A5DF-023FB65530BC";
paths = (
{
closed = 1;
nodes = (
"264 1456 LINE",
"1171 1456 LINE SMOOTH",
"1565 1456 OFFCURVE",
"1939 1071 OFFCURVE",
"1911 748 QCURVE SMOOTH",
"1909 725 LINE SMOOTH",
"1878 371 OFFCURVE",
"1364 0 OFFCURVE",
"980 0 QCURVE SMOOTH",
"7 0 LINE"
);
},
{
closed = 1;
nodes = (
"934 396 LINE SMOOTH",
"1082 396 OFFCURVE",
"1272 524 OFFCURVE",
"1304 724 QCURVE SMOOTH",
"1307 743 LINE SMOOTH",
"1334 913 OFFCURVE",
"1161 1040 OFFCURVE",
"1010 1040 QCURVE SMOOTH",
"786 1040 LINE",
"665 396 LINE"
);
}
);
width = 1951;
}
);
leftKerningGroup = StraightRight_UC;
rightKerningGroup = D_UC;
unicode = 0044;
},
{
glyphname = E;
layers = (
{
layerId = "7E98EC3E-25FF-427C-A5DF-023FB65530BC";
paths = (
{
closed = 1;
nodes = (
"263 1456 LINE",
"1741 1456 LINE",
"1673 1006 LINE",
"775 1006 LINE",
"759 936 LINE",
"1594 936 LINE",
"1519 506 LINE",
"682 506 LINE",
"666 430 LINE",
"1580 430 LINE",
"1504 0 LINE",
"6 0 LINE"
);
}
);
width = 1741;
}
);
leftKerningGroup = StraightRight_UC;
rightKerningGroup = E_UC;
unicode = 0045;
},
{
glyphname = F;
layers = (
{
layerId = "7E98EC3E-25FF-427C-A5DF-023FB65530BC";
paths = (
{
closed = 1;
nodes = (
"263 1456 LINE",
"1669 1456 LINE",
"1593 1007 LINE",
"795 1007 LINE",
"775 912 LINE",
"1535 912 LINE",
"1459 474 LINE",
"701 474 LINE",
"618 0 LINE",
"6 0 LINE"
);
}
);
width = 1556;
}
);
leftKerningGroup = StraightRight_UC;
unicode = 0046;
},
{
glyphname = G;
layers = (
{
layerId = "7E98EC3E-25FF-427C-A5DF-023FB65530BC";
paths = (
{
closed = 1;
nodes = (
"43 744 LINE",
"102 1125 OFFCURVE",
"765 1479 OFFCURVE",
"1189 1479 QCURVE SMOOTH",
"1597 1479 OFFCURVE",
"1957 1234 OFFCURVE",
"1986 963 QCURVE",
"1989 926 LINE",
"1440 926 LINE",
"1439 937 LINE",
"1434 997 OFFCURVE",
"1291 1057 OFFCURVE",
"1164 1057 QCURVE SMOOTH",
"979 1057 OFFCURVE",
"711 908 OFFCURVE",
"666 744 QCURVE",
"662 726 LINE",
"617 544 OFFCURVE",
"775 374 OFFCURVE",
"998 374 QCURVE SMOOTH",
"1132 374 OFFCURVE",
"1317 411 OFFCURVE",
"1381 446 QCURVE",
"1385 490 LINE",
"983 488 LINE",
"1033 849 LINE",
"1990 851 LINE",
"1887 237 LINE",
"1762 136 OFFCURVE",
"1312 -22 OFFCURVE",
"914 -22 QCURVE SMOOTH",
"494 -22 OFFCURVE",
"-18 333 OFFCURVE",
"41 732 QCURVE"
);
}
);
width = 2016;
}
);
leftKerningGroup = CG_UC;
rightKerningGroup = G_UC;
unicode = 0047;
},
{
glyphname = H;
layers = (
{
layerId = "7E98EC3E-25FF-427C-A5DF-023FB65530BC";
paths = (
{
closed = 1;
nodes = (
"263 1456 LINE",
"857 1456 LINE",
"777 1002 LINE",
"1256 1002 LINE",
"1336 1456 LINE",
"1930 1456 LINE",
"1673 0 LINE",
"1079 0 LINE",
"1168 503 LINE",
"689 503 LINE",
"600 0 LINE",
"6 0 LINE"
);
}
);
width = 1936;
}
);
leftKerningGroup = StraightRight_UC;
rightKerningGroup = LeftStraight_UC;
unicode = 0048;
},
{
glyphname = I;
layers = (
{
layerId = "7E98EC3E-25FF-427C-A5DF-023FB65530BC";
paths = (
{
closed = 1;
nodes = (
"262 1456 LINE",
"867 1456 LINE",
"610 0 LINE",
"6 0 LINE"
);
}
);
width = 873;
}
);
leftKerningGroup = StraightRight_UC;
rightKerningGroup = LeftStraight_UC;
unicode = 0049;
},
{
glyphname = J;
layers = (
{
layerId = "7E98EC3E-25FF-427C-A5DF-023FB65530BC";
paths = (
{
closed = 1;
nodes = (
"16 677 LINE",
"508 677 LINE",
"499 579 LINE SMOOTH",
"487 447 OFFCURVE",
"583 360 OFFCURVE",
"672 360 QCURVE SMOOTH",
"760 360 OFFCURVE",
"889 441 OFFCURVE",
"915 590 QCURVE SMOOTH",
"1062 1456 LINE",
"1655 1456 LINE",
"1500 548 LINE SMOOTH",
"1451 260 OFFCURVE",
"1082 -24 OFFCURVE",
"665 -24 QCURVE SMOOTH",
"286 -24 OFFCURVE",
"-49 239 OFFCURVE",
"-5 535 QCURVE SMOOTH"
);
}
);
width = 1630;
}
);
leftKerningGroup = J_UC;
rightKerningGroup = JU_UC;
unicode = 004A;
},
{
glyphname = K;
layers = (
{
layerId = "7E98EC3E-25FF-427C-A5DF-023FB65530BC";
paths = (
{
closed = 1;
nodes = (
"263 1456 LINE",
"857 1456 LINE",
"772 965 LINE",
"1384 1456 LINE",
"2130 1456 LINE",
"670 398 LINE",
"600 0 LINE",
"6 0 LINE"
);
},
{
closed = 1;
nodes = (
"681 696 LINE",
"1130 1001 LINE",
"1926 0 LINE",
"1220 0 LINE"
);
}
);
width = 1923;
}
);
leftKerningGroup = StraightRight_UC;
rightKerningGroup = K_UC;
unicode = 004B;
},
{
glyphname = L;
layers = (
{
layerId = "7E98EC3E-25FF-427C-A5DF-023FB65530BC";
paths = (
{
closed = 1;
nodes = (
"263 1456 LINE",
"870 1456 LINE",
"689 430 LINE",
"1492 430 LINE",
"1413 0 LINE",
"6 0 LINE"
);
}
);
width = 1506;
}
);
leftKerningGroup = StraightRight_UC;
rightKerningGroup = L_UC;
unicode = 004C;
},
{
glyphname = M;
layers = (
{
layerId = "7E98EC3E-25FF-427C-A5DF-023FB65530BC";
paths = (
{
closed = 1;
nodes = (
"263 1456 LINE",
"843 1456 LINE",
"1221 758 LINE SMOOTH",
"1231 739 OFFCURVE",
"1284 645 OFFCURVE",
"1291 630 QCURVE",
"1291 630 LINE",
"1300 646 OFFCURVE",
"1372 745 OFFCURVE",
"1382 758 QCURVE SMOOTH",
"1893 1456 LINE",
"2583 1456 LINE",
"2326 0 LINE",
"1754 0 LINE",
"1861 608 LINE SMOOTH",
"1864 627 OFFCURVE",
"1867 648 OFFCURVE",
"1870 665 QCURVE",
"1870 665 LINE",
"1858 649 OFFCURVE",
"1839 624 OFFCURVE",
"1829 611 QCURVE SMOOTH",
"1360 0 LINE",
"1041 0 LINE",
"713 599 LINE SMOOTH",
"704 616 OFFCURVE",
"694 640 OFFCURVE",
"691 652 QCURVE",
"690 652 LINE",
"689 635 OFFCURVE",
"687 607 OFFCURVE",
"685 597 QCURVE SMOOTH",
"584 0 LINE",
"6 0 LINE"
);
}
);
width = 2590;
}
);
leftKerningGroup = StraightRight_UC;
rightKerningGroup = LeftStraight_UC;
unicode = 004D;
},
{
glyphname = N;
layers = (
{
layerId = "7E98EC3E-25FF-427C-A5DF-023FB65530BC";
paths = (
{
closed = 1;
nodes = (
"263 1456 LINE",
"836 1456 LINE",
"1134 834 LINE SMOOTH",
"1142 818 OFFCURVE",
"1162 775 OFFCURVE",
"1167 766 QCURVE",
"1167 766 LINE",
"1170 778 OFFCURVE",
"1177 814 OFFCURVE",
"1181 837 QCURVE SMOOTH",
"1293 1456 LINE",
"1866 1456 LINE",
"1609 0 LINE",
"1056 0 LINE",
"736 639 LINE SMOOTH",
"732 648 OFFCURVE",
"711 693 OFFCURVE",
"707 703 QCURVE",
"707 703 LINE",
"705 693 OFFCURVE",
"703 680 OFFCURVE",
"702 673 QCURVE SMOOTH",
"587 0 LINE",
"6 0 LINE"
);
}
);
width = 1871;
}
);
leftKerningGroup = StraightRight_UC;
rightKerningGroup = LeftStraight_UC;
unicode = 004E;
},
{
glyphname = O;
layers = (
{
layerId = "7E98EC3E-25FF-427C-A5DF-023FB65530BC";
paths = (
{
closed = 1;
nodes = (
"46 780 LINE SMOOTH",
"109 1158 OFFCURVE",
"751 1479 OFFCURVE",
"1181 1478 QCURVE SMOOTH",
"1612 1477 OFFCURVE",
"2129 1070 OFFCURVE",
"2062 703 QCURVE SMOOTH",
"2060 692 LINE SMOOTH",
"1989 300 OFFCURVE",
"1351 -26 OFFCURVE",
"921 -25 QCURVE SMOOTH",
"490 -24 OFFCURVE",
"-20 385 OFFCURVE",
"44 768 QCURVE SMOOTH"
);
},
{
closed = 1;
nodes = (
"611 536 OFFCURVE",
"792 367 OFFCURVE",
"990 362 QCURVE SMOOTH",
"1184 357 OFFCURVE",
"1426 535 OFFCURVE",
"1463 722 QCURVE SMOOTH",
"1467 742 LINE SMOOTH",
"1501 916 OFFCURVE",
"1309 1073 OFFCURVE",
"1114 1078 QCURVE SMOOTH",
"915 1083 OFFCURVE",
"674 919 OFFCURVE",
"646 745 QCURVE SMOOTH",
"643 727 LINE SMOOTH"
);
}
);
width = 2110;
}
);
leftKerningGroup = CG_UC;
rightKerningGroup = D_UC;
unicode = 004F;
},
{
glyphname = P;
layers = (
{
layerId = "7E98EC3E-25FF-427C-A5DF-023FB65530BC";
paths = (
{
closed = 1;
nodes = (
"263 1456 LINE",
"1184 1456 LINE SMOOTH",
"1546 1456 OFFCURVE",
"1882 1111 OFFCURVE",
"1847 851 QCURVE SMOOTH",
"1812 590 OFFCURVE",
"1496 279 OFFCURVE",
"1175 279 QCURVE SMOOTH",
"649 279 LINE",
"600 0 LINE",
"6 0 LINE"
);
},
{
closed = 1;
nodes = (
"1031 662 LINE SMOOTH",
"1147 662 OFFCURVE",
"1257 765 OFFCURVE",
"1269 863 QCURVE SMOOTH",
"1280 949 OFFCURVE",
"1192 1037 OFFCURVE",
"1084 1037 QCURVE SMOOTH",
"783 1037 LINE",
"717 662 LINE"
);
}
);
width = 1886;
}
);
leftKerningGroup = StraightRight_UC;
unicode = 0050;
},
{
glyphname = Q;
layers = (
{
layerId = "7E98EC3E-25FF-427C-A5DF-023FB65530BC";
paths = (
{
closed = 1;
nodes = (
"46 780 LINE SMOOTH",
"106 1138 OFFCURVE",
"746 1478 OFFCURVE",
"1181 1478 QCURVE SMOOTH",
"1650 1478 OFFCURVE",
"2129 1070 OFFCURVE",
"2062 703 QCURVE SMOOTH",
"2060 692 LINE SMOOTH",
"1995 332 OFFCURVE",
"1341 -21 OFFCURVE",
"921 -20 QCURVE SMOOTH",
"490 -19 OFFCURVE",
"-20 385 OFFCURVE",
"44 768 QCURVE SMOOTH"
);
},
{
closed = 1;
nodes = (
"611 536 OFFCURVE",
"792 362 OFFCURVE",
"990 357 QCURVE SMOOTH",
"1184 352 OFFCURVE",
"1424 529 OFFCURVE",
"1463 722 QCURVE SMOOTH",
"1467 742 LINE SMOOTH",
"1501 916 OFFCURVE",
"1309 1073 OFFCURVE",
"1114 1078 QCURVE SMOOTH",
"915 1083 OFFCURVE",
"674 919 OFFCURVE",
"646 745 QCURVE SMOOTH",
"643 727 LINE SMOOTH"
);
},
{
closed = 1;
nodes = (
"998 79 LINE",
"1302 433 LINE",
"1872 72 LINE",
"1564 -285 LINE"
);
}
);
width = 2111;
}
);
leftKerningGroup = CG_UC;
unicode = 0051;
},
{
glyphname = R;
layers = (
{
layerId = "7E98EC3E-25FF-427C-A5DF-023FB65530BC";
paths = (
{
closed = 1;
nodes = (
"263 1456 LINE",
"1312 1456 LINE SMOOTH",
"1634 1456 OFFCURVE",
"1895 1159 OFFCURVE",
"1860 929 QCURVE SMOOTH",
"1826 693 OFFCURVE",
"1476 413 OFFCURVE",
"1285 413 QCURVE SMOOTH",
"673 413 LINE",
"600 0 LINE",
"6 0 LINE"
);
},
{
closed = 1;
nodes = (
"1073 776 LINE SMOOTH",
"1177 776 OFFCURVE",
"1285 850 OFFCURVE",
"1294 910 QCURVE SMOOTH",
"1304 978 OFFCURVE",
"1226 1052 OFFCURVE",
"1128 1052 QCURVE SMOOTH",
"786 1052 LINE",
"738 776 LINE"
);
},
{
closed = 1;
nodes = (
"896 667 LINE",
"1472 667 LINE",
"1838 0 LINE",
"1235 0 LINE"
);
}
);
width = 1964;
}
);
leftKerningGroup = StraightRight_UC;
rightKerningGroup = R_UC;
unicode = 0052;
},
{
glyphname = S;
layers = (
{
layerId = "7E98EC3E-25FF-427C-A5DF-023FB65530BC";
paths = (
{
closed = 1;
nodes = (
"-26 481 LINE",
"543 481 LINE",
"547 447 LINE SMOOTH",
"553 397 OFFCURVE",
"658 354 OFFCURVE",
"861 354 QCURVE SMOOTH",
"1065 354 OFFCURVE",
"1158 382 OFFCURVE",
"1161 418 QCURVE SMOOTH",
"1164 452 OFFCURVE",
"1072 486 OFFCURVE",
"744 524 QCURVE SMOOTH",
"392 565 OFFCURVE",
"98 801 OFFCURVE",
"130 1048 QCURVE SMOOTH",
"162 1295 OFFCURVE",
"583 1482 OFFCURVE",
"970 1482 QCURVE SMOOTH",
"1362 1482 OFFCURVE",
"1753 1282 OFFCURVE",
"1764 1049 QCURVE SMOOTH",
"1767 986 LINE",
"1228 986 LINE",
"1224 1008 LINE SMOOTH",
"1218 1043 OFFCURVE",
"1143 1088 OFFCURVE",
"948 1088 QCURVE SMOOTH",
"780 1088 OFFCURVE",
"678 1076 OFFCURVE",
"674 1049 QCURVE SMOOTH",
"670 1021 OFFCURVE",
"739 999 OFFCURVE",
"1108 947 QCURVE SMOOTH",
"1436 901 OFFCURVE",
"1730 693 OFFCURVE",
"1707 445 QCURVE SMOOTH",
"1684 202 OFFCURVE",
"1229 -23 OFFCURVE",
"814 -23 QCURVE SMOOTH",
"401 -23 OFFCURVE",
"-2 191 OFFCURVE",
"-21 420 QCURVE SMOOTH"
);
}
);
width = 1788;
}
);
leftKerningGroup = S_UC;
rightKerningGroup = S_UC;
unicode = 0053;
},
{
glyphname = T;
layers = (
{
layerId = "7E98EC3E-25FF-427C-A5DF-023FB65530BC";
paths = (
{
closed = 1;
nodes = (
"138 1456 LINE",
"1844 1456 LINE",
"1766 1005 LINE",
"1215 1005 LINE",
"1042 0 LINE",
"438 0 LINE",
"611 1005 LINE",
"60 1005 LINE"
);
}
);
width = 1736;
}
);
leftKerningGroup = T_UC;
rightKerningGroup = T_UC;
unicode = 0054;
},
{
glyphname = U;
layers = (
{
layerId = "7E98EC3E-25FF-427C-A5DF-023FB65530BC";
paths = (
{
closed = 1;
nodes = (
"264 1456 LINE",
"856 1456 LINE",
"712 625 LINE SMOOTH",
"688 489 OFFCURVE",
"814 367 OFFCURVE",
"954 367 QCURVE SMOOTH",
"1083 367 OFFCURVE",
"1267 488 OFFCURVE",
"1292 631 QCURVE SMOOTH",
"1435 1456 LINE",
"2010 1456 LINE",
"1867 632 LINE SMOOTH",
"1811 311 OFFCURVE",
"1357 -24 OFFCURVE",
"923 -24 QCURVE SMOOTH",
"492 -24 OFFCURVE",
"60 291 OFFCURVE",
"120 632 QCURVE SMOOTH"
);
}
);
width = 1996;
}
);
leftKerningGroup = U_UC;
rightKerningGroup = JU_UC;
unicode = 0055;
},
{
glyphname = V;
layers = (
{
layerId = "7E98EC3E-25FF-427C-A5DF-023FB65530BC";
paths = (
{
closed = 1;
nodes = (
"654 1456 LINE",
"880 604 LINE SMOOTH",
"884 590 OFFCURVE",
"887 574 OFFCURVE",
"892 553 QCURVE",
"892 553 LINE",
"901 568 OFFCURVE",
"913 585 OFFCURVE",
"925 604 QCURVE SMOOTH",
"1464 1456 LINE",
"2065 1456 LINE",
"1117 -9 LINE",
"480 -9 LINE",
"55 1456 LINE"
);
}
);
width = 1890;
}
);
unicode = 0056;
},
{
glyphname = W;
layers = (
{
layerId = "7E98EC3E-25FF-427C-A5DF-023FB65530BC";
paths = (
{
closed = 1;
nodes = (
"85 1456 LINE",
"685 1456 LINE",
"804 613 LINE SMOOTH",
"805 603 OFFCURVE",
"811 553 OFFCURVE",
"812 544 QCURVE",
"812 544 LINE",
"816 553 OFFCURVE",
"848 601 OFFCURVE",
"855 612 QCURVE SMOOTH",
"1356 1456 LINE",
"1811 1456 LINE",
"1940 577 LINE SMOOTH",
"1942 564 OFFCURVE",
"1945 550 OFFCURVE",
"1947 542 QCURVE",
"1947 542 LINE",
"1952 550 OFFCURVE",
"1965 569 OFFCURVE",
"1972 581 QCURVE SMOOTH",
"2454 1456 LINE",
"3005 1456 LINE",
"2219 0 LINE",
"1618 0 LINE",
"1476 830 LINE SMOOTH",
"1475 837 OFFCURVE",
"1473 849 OFFCURVE",
"1472 855 QCURVE",
"1472 855 LINE",
"1467 847 OFFCURVE",
"1461 839 OFFCURVE",
"1455 830 QCURVE SMOOTH",
"959 0 LINE",
"364 0 LINE"
);
}
);
width = 2827;
}
);
leftKerningGroup = W_UC;
rightKerningGroup = W_UC;
unicode = 0057;
},
{
glyphname = X;
layers = (
{
layerId = "7E98EC3E-25FF-427C-A5DF-023FB65530BC";
paths = (
{
closed = 1;
nodes = (
"727 885 LINE",
"818 885 LINE",
"1361 1456 LINE",
"1964 1456 LINE",
"1097 572 LINE",
"1009 572 LINE",
"445 0 LINE",
"-161 0 LINE"
);
},
{
closed = 1;
nodes = (
"803 1456 LINE",
"1116 918 LINE",
"1116 918 LINE",
"1700 0 LINE",
"1026 0 LINE",
"674 582 LINE",
"674 583 LINE",
"129 1456 LINE"
);
}
);
width = 1790;
}
);
unicode = 0058;
},
{
glyphname = Y;
layers = (
{
layerId = "7E98EC3E-25FF-427C-A5DF-023FB65530BC";
paths = (
{
closed = 1;
nodes = (
"574 507 LINE",
"56 1456 LINE",
"653 1456 LINE",
"911 930 LINE SMOOTH",
"915 921 OFFCURVE",
"924 903 OFFCURVE",
"929 893 QCURVE",
"929 893 LINE",
"938 904 OFFCURVE",
"955 921 OFFCURVE",
"963 930 QCURVE SMOOTH",
"1426 1456 LINE",
"2031 1456 LINE",
"1179 507 LINE",
"1090 0 LINE",
"485 0 LINE"
);
}
);
width = 1815;
}
);
leftKerningGroup = Y_UC;
rightKerningGroup = Y_UC;
unicode = 0059;
},
{
glyphname = Z;
layers = (
{
layerId = "7E98EC3E-25FF-427C-A5DF-023FB65530BC";
paths = (
{
closed = 1;
nodes = (
"-55 330 LINE",
"895 990 LINE",
"152 990 LINE",
"179 1456 LINE",
"1800 1456 LINE",
"1775 1106 LINE",
"875 446 LINE",
"1674 446 LINE",
"1646 0 LINE",
"-80 0 LINE"
);
}
);
width = 1766;
}
);
leftKerningGroup = Z_UC;
rightKerningGroup = Z_UC;
unicode = 005A;
},
{
glyphname = AE;
layers = (
{
layerId = "7E98EC3E-25FF-427C-A5DF-023FB65530BC";
paths = (
{
closed = 1;
nodes = (
"469 568 LINE",
"1129 568 LINE",
"1129 313 LINE",
"323 313 LINE"
);
},
{
closed = 1;
nodes = (
"860 1456 LINE",
"2060 1456 LINE",
"2060 1239 LINE",
"1248 1239 LINE",
"1248 859 LINE",
"1974 859 LINE",
"1974 642 LINE",
"1248 642 LINE",
"1248 217 LINE",
"2070 217 LINE",
"2070 0 LINE",
"974 0 LINE",
"974 1170 LINE",
"317 0 LINE",
"-21 0 LINE"
);
}
);
width = 2210;
}
);
leftKerningGroup = AE_UC;
rightKerningGroup = E_UC;
unicode = 00C6;
},
{
glyphname = Thorn;
layers = (
{
guideLines = (
{
position = "{0, 901}";
},
{
position = "{0, 555}";
}
);
layerId = "7E98EC3E-25FF-427C-A5DF-023FB65530BC";
paths = (
{
closed = 1;
nodes = (
"470 1456 LINE",
"470 1163 LINE",
"762 1163 LINE SMOOTH",
"1028 1163 OFFCURVE",
"1333 943 OFFCURVE",
"1333 736 QCURVE SMOOTH",
"1333 529 OFFCURVE",
"1028 313 OFFCURVE",
"762 314 QCURVE SMOOTH",
"470 314 LINE",
"470 0 LINE",
"210 0 LINE",
"210 1456 LINE"
);
},
{
closed = 1;
nodes = (
"470 960 LINE",
"470 517 LINE",
"762 517 LINE SMOOTH",
"920 517 OFFCURVE",
"1074 605 OFFCURVE",
"1074 733 QCURVE SMOOTH",
"1074 860 OFFCURVE",
"920 961 OFFCURVE",
"762 960 QCURVE SMOOTH"
);
}
);
width = 1388;
}
);
leftKerningGroup = StraightRight_UC;
unicode = 00DE;
userData = {
com.typemytype.robofont.guideline.magnetic.T8KKW8oxop = 5;
com.typemytype.robofont.guideline.magnetic.i9jYwjBDP4 = 5;
};
},
{
glyphname = OE;
layers = (
{
layerId = "7E98EC3E-25FF-427C-A5DF-023FB65530BC";
paths = (
{
closed = 1;
nodes = (
"775 1477 OFFCURVE",
"926 1464 OFFCURVE",
"993 1456 QCURVE",
"2019 1456 LINE",
"2019 1239 LINE",
"1191 1239 LINE",
"1191 859 LINE",
"1933 859 LINE",
"1933 644 LINE",
"1191 644 LINE",
"1191 215 LINE",
"2029 215 LINE",
"2029 0 LINE",
"993 0 LINE",
"926 -7 OFFCURVE",
"777 -21 OFFCURVE",
"701 -21 QCURVE SMOOTH",
"487 -21 OFFCURVE",
"144 340 OFFCURVE",
"144 682 QCURVE SMOOTH",
"144 772 LINE SMOOTH",
"144 1105 OFFCURVE",
"484 1477 OFFCURVE",
"742 1477 QCURVE SMOOTH"
);
},
{
closed = 1;
nodes = (
"422 417 OFFCURVE",
"613 177 OFFCURVE",
"744 177 QCURVE SMOOTH",
"797 177 OFFCURVE",
"877 186 OFFCURVE",
"915 192 QCURVE",
"915 1258 LINE",
"863 1265 OFFCURVE",
"768 1273 OFFCURVE",
"746 1273 QCURVE SMOOTH",
"606 1273 OFFCURVE",
"422 1023 OFFCURVE",
"422 774 QCURVE SMOOTH",
"422 682 LINE SMOOTH"
);
}
);
width = 2169;
}
);
leftKerningGroup = CG_UC;
rightKerningGroup = E_UC;
unicode = 0152;
},
{
glyphname = Schwa;
layers = (
{
layerId = "7E98EC3E-25FF-427C-A5DF-023FB65530BC";
paths = (
{
closed = 1;
nodes = (
"115 1399 OFFCURVE",
"445 1579 OFFCURVE",
"725 1579 QCURVE SMOOTH",
"1101 1579 OFFCURVE",
"1517 1092 OFFCURVE",
"1517 820 QCURVE SMOOTH",
"1517 512 OFFCURVE",
"1051 -30 OFFCURVE",
"751 -30 QCURVE SMOOTH",
"433 -30 OFFCURVE",
"56 289 OFFCURVE",
"56 601 QCURVE SMOOTH",
"56 714 LINE",
"1336 714 LINE",
"1336 546 LINE",
"721 554 LINE",
"350 548 LINE",
"350 471 LINE SMOOTH",
"350 343 OFFCURVE",
"554 127 OFFCURVE",
"761 127 QCURVE SMOOTH",
"958 127 OFFCURVE",
"1247 519 OFFCURVE",
"1245 778 QCURVE SMOOTH",
"1242 1065 OFFCURVE",
"880 1388 OFFCURVE",
"706 1388 QCURVE SMOOTH",
"472 1388 OFFCURVE",
"176 1231 OFFCURVE",
"116 1131 QCURVE",
"-1 1220 LINE"
);
}
);
width = 1446;
}
);
rightKerningGroup = D_UC;
unicode = 018F;
},
{
glyphname = Germandbls;
layers = (
{
layerId = "7E98EC3E-25FF-427C-A5DF-023FB65530BC";
paths = (
{
closed = 1;
nodes = (
"168 1254 OFFCURVE",
"439 1510 OFFCURVE",
"704 1510 QCURVE SMOOTH",
"1010 1510 OFFCURVE",
"1216 1322 OFFCURVE",
"1216 1244 QCURVE SMOOTH",
"1216 1116 OFFCURVE",
"1075 966 OFFCURVE",
"1042 955 QCURVE SMOOTH",
"983 918 OFFCURVE",
"923 882 OFFCURVE",
"923 867 QCURVE SMOOTH",
"923 858 OFFCURVE",
"957 846 OFFCURVE",
"1210 763 QCURVE SMOOTH",
"1415 701 OFFCURVE",
"1620 508 OFFCURVE",
"1620 352 QCURVE SMOOTH",
"1620 220 OFFCURVE",
"1311 -30 OFFCURVE",
"1104 -30 QCURVE SMOOTH",
"782 -30 OFFCURVE",
"482 154 OFFCURVE",
"482 358 QCURVE SMOOTH",
"482 370 LINE",
"782 370 LINE",
"782 358 LINE SMOOTH",
"782 279 OFFCURVE",
"922 203 OFFCURVE",
"1092 203 QCURVE SMOOTH",
"1184 203 OFFCURVE",
"1334 279 OFFCURVE",
"1334 346 QCURVE SMOOTH",
"1334 434 OFFCURVE",
"1178 495 OFFCURVE",
"980 558 QCURVE SMOOTH",
"693 653 OFFCURVE",
"585 742 OFFCURVE",
"585 816 QCURVE SMOOTH",
"585 911 OFFCURVE",
"672 991 OFFCURVE",
"779 1056 QCURVE SMOOTH",
"855 1102 OFFCURVE",
"931 1160 OFFCURVE",
"931 1229 QCURVE SMOOTH",
"931 1250 OFFCURVE",
"828 1283 OFFCURVE",
"711 1283 QCURVE SMOOTH",
"577 1283 OFFCURVE",
"442 1178 OFFCURVE",
"442 1036 QCURVE SMOOTH",
"442 355 LINE SMOOTH",
"442 184 OFFCURVE",
"233 -16 OFFCURVE",
"77 -16 QCURVE SMOOTH",
"62 -16 OFFCURVE",
"30 -14 OFFCURVE",
"15 -12 QCURVE",
"13 258 LINE",
"23 255 OFFCURVE",
"45 253 OFFCURVE",
"56 253 QCURVE SMOOTH",
"107 253 OFFCURVE",
"168 305 OFFCURVE",
"168 355 QCURVE SMOOTH",
"168 1066 LINE SMOOTH"
);
}
);
width = 1700;
}
);
unicode = 1E9E;
},
{
glyphname = micro;
layers = (
{
layerId = "7E98EC3E-25FF-427C-A5DF-023FB65530BC";
paths = (
{
closed = 1;
nodes = (
"504 1190 LINE",
"369 489 LINE SMOOTH",
"341 351 OFFCURVE",
"425 232 OFFCURVE",
"539 232 QCURVE SMOOTH",
"636 232 OFFCURVE",
"791 337 OFFCURVE",
"849 420 QCURVE",
"997 1190 LINE",
"1261 1190 LINE",
"1038 39 LINE",
"794 39 LINE",
"814 187 LINE",
"807 187 LINE",
"729 108 OFFCURVE",
"546 17 OFFCURVE",
"426 17 QCURVE SMOOTH",
"387 17 OFFCURVE",
"322 56 OFFCURVE",
"288 74 QCURVE",
"194 -416 LINE",
"-72 -416 LINE",
"239 1190 LINE"
);
}
);
width = 1310;
}
);
unicode = 00B5;
},
{
glyphname = a;
layers = (
{
layerId = "7E98EC3E-25FF-427C-A5DF-023FB65530BC";
paths = (
{
closed = 1;
nodes = (
"-35 425 OFFCURVE",
"201 561 OFFCURVE",
"432 558 QCURVE SMOOTH",
"874 553 LINE",
"883 605 LINE SMOOTH",
"887 631 OFFCURVE",
"832 662 OFFCURVE",
"742 662 QCURVE SMOOTH",
"690 662 OFFCURVE",
"633 627 OFFCURVE",
"615 601 QCURVE SMOOTH",
"611 581 LINE",
"107 584 LINE",
"110 599 LINE SMOOTH",
"142 759 OFFCURVE",
"510 952 OFFCURVE",
"847 952 QCURVE SMOOTH",
"1216 952 OFFCURVE",
"1482 763 OFFCURVE",
"1446 557 QCURVE SMOOTH",
"1380 182 LINE SMOOTH",
"1371 132 OFFCURVE",
"1377 43 OFFCURVE",
"1393 12 QCURVE",
"1391 0 LINE",
"815 0 LINE",
"802 24 OFFCURVE",
"798 76 OFFCURVE",
"805 129 QCURVE",
"746 72 OFFCURVE",
"504 -13 OFFCURVE",
"307 -13 QCURVE SMOOTH",
"95 -13 OFFCURVE",
"-84 147 OFFCURVE",
"-60 286 QCURVE SMOOTH"
);
},
{
closed = 1;
nodes = (
"504 299 OFFCURVE",
"554 259 OFFCURVE",
"620 259 QCURVE SMOOTH",
"703 259 OFFCURVE",
"830 308 OFFCURVE",
"841 371 QCURVE",
"843 377 LINE",
"612 380 LINE SMOOTH",
"558 381 OFFCURVE",
"514 359 OFFCURVE",
"510 335 QCURVE SMOOTH"
);
}
);
width = 1554;
}
);
leftKerningGroup = a_LC;
rightKerningGroup = a_LC;
unicode = 0061;
},
{
glyphname = b;
layers = (
{
layerId = "7E98EC3E-25FF-427C-A5DF-023FB65530BC";
paths = (
{
closed = 1;
nodes = (
"211 1456 LINE",
"775 1456 LINE",
"663 819 LINE",
"714 872 OFFCURVE",
"945 954 OFFCURVE",
"1147 954 QCURVE SMOOTH",
"1379 954 OFFCURVE",
"1611 670 OFFCURVE",
"1574 448 QCURVE SMOOTH",
"1572 436 LINE SMOOTH",
"1533 202 OFFCURVE",
"1159 -30 OFFCURVE",
"920 -30 QCURVE SMOOTH",
"763 -30 OFFCURVE",
"575 44 OFFCURVE",
"537 80 QCURVE",
"536 80 LINE",
"515 0 LINE",
"-46 0 LINE"
);
},
{
closed = 1;
nodes = (
"608 363 OFFCURVE",
"730 330 OFFCURVE",
"808 330 QCURVE SMOOTH",
"897 330 OFFCURVE",
"1002 392 OFFCURVE",
"1013 453 QCURVE",
"1014 460 LINE",
"1023 513 OFFCURVE",
"938 584 OFFCURVE",
"831 584 QCURVE SMOOTH",
"755 584 OFFCURVE",
"637 549 OFFCURVE",
"614 533 QCURVE",
"590 374 LINE"
);
}
);
width = 1657;
}
);
leftKerningGroup = bhk_LC;
rightKerningGroup = b_LC;
unicode = 0062;
},
{
glyphname = c;
layers = (
{
layerId = "7E98EC3E-25FF-427C-A5DF-023FB65530BC";
paths = (
{
closed = 1;
nodes = (
"5 473 LINE SMOOTH",
"45 698 OFFCURVE",
"508 962 OFFCURVE",
"870 962 QCURVE SMOOTH",
"1204 962 OFFCURVE",
"1512 718 OFFCURVE",
"1498 521 QCURVE SMOOTH",
"1495 489 LINE",
"986 489 LINE",
"986 499 LINE SMOOTH",
"986 531 OFFCURVE",
"911 584 OFFCURVE",
"821 584 QCURVE SMOOTH",
"712 584 OFFCURVE",
"592 523 OFFCURVE",
"584 466 QCURVE SMOOTH",
"582 451 LINE SMOOTH",
"573 386 OFFCURVE",
"668 334 OFFCURVE",
"783 334 QCURVE SMOOTH",
"868 334 OFFCURVE",
"954 383 OFFCURVE",
"973 402 QCURVE SMOOTH",
"977 416 LINE",
"1482 416 LINE",
"1474 382 LINE SMOOTH",
"1426 195 OFFCURVE",
"1045 -36 OFFCURVE",
"699 -36 QCURVE SMOOTH",
"330 -36 OFFCURVE",
"-39 224 OFFCURVE",
"3 460 QCURVE SMOOTH"
);
}
);
width = 1531;
}
);
leftKerningGroup = alpha;
rightKerningGroup = c_LC;
unicode = 0063;
},
{
glyphname = d;
layers = (
{
layerId = "7E98EC3E-25FF-427C-A5DF-023FB65530BC";
paths = (
{
closed = 1;
nodes = (
"5 474 LINE SMOOTH",
"42 688 OFFCURVE",
"374 944 OFFCURVE",
"633 943 QCURVE SMOOTH",
"805 944 OFFCURVE",
"1006 872 OFFCURVE",
"1049 830 QCURVE",
"1159 1456 LINE",
"1708 1456 LINE",
"1451 0 LINE",
"905 0 LINE",
"914 101 LINE",
"912 101 LINE",
"844 39 OFFCURVE",
"626 -29 OFFCURVE",
"459 -29 QCURVE SMOOTH",
"231 -29 OFFCURVE",
"-40 223 OFFCURVE",
"2 457 QCURVE SMOOTH"
);
},
{
closed = 1;
nodes = (
"550 394 OFFCURVE",
"640 329 OFFCURVE",
"728 329 QCURVE SMOOTH",
"819 329 OFFCURVE",
"953 370 OFFCURVE",
"970 386 QCURVE",
"990 523 LINE",
"974 548 OFFCURVE",
"858 585 OFFCURVE",
"767 585 QCURVE SMOOTH",
"674 585 OFFCURVE",
"571 509 OFFCURVE",
"562 457 QCURVE SMOOTH",
"561 451 LINE SMOOTH"
);
}
);
width = 1662;
}
);
leftKerningGroup = alpha;
unicode = 0064;
},
{
glyphname = e;
layers = (
{
layerId = "7E98EC3E-25FF-427C-A5DF-023FB65530BC";
paths = (
{
closed = 1;
nodes = (
"-24 472 LINE SMOOTH",
"16 699 OFFCURVE",
"476 960 OFFCURVE",
"850 960 QCURVE SMOOTH",
"1212 960 OFFCURVE",
"1556 696 OFFCURVE",
"1523 487 QCURVE SMOOTH",
"1512 413 LINE",
"277 413 LINE",
"293 517 LINE",
"975 517 LINE",
"976 524 LINE SMOOTH",
"980 552 OFFCURVE",
"894 601 OFFCURVE",
"778 601 QCURVE SMOOTH",
"665 601 OFFCURVE",
"542 544 OFFCURVE",
"532 486 QCURVE SMOOTH",
"526 452 LINE SMOOTH",
"514 386 OFFCURVE",
"625 320 OFFCURVE",
"716 320 QCURVE SMOOTH",
"853 320 OFFCURVE",
"982 382 OFFCURVE",
"1005 405 QCURVE",
"1489 334 LINE",
"1386 147 OFFCURVE",
"1007 -37 OFFCURVE",
"653 -37 QCURVE SMOOTH",
"298 -37 OFFCURVE",
"-68 222 OFFCURVE",
"-26 461 QCURVE SMOOTH"
);
}
);
width = 1614;
}
);
leftKerningGroup = alpha;
rightKerningGroup = e_LC;
unicode = 0065;
},
{
glyphname = f;
layers = (
{
layerId = "7E98EC3E-25FF-427C-A5DF-023FB65530BC";
paths = (
{
closed = 1;
nodes = (
"241 1035 LINE SMOOTH",
"280 1253 OFFCURVE",
"665 1478 OFFCURVE",
"917 1478 QCURVE SMOOTH",
"1027 1478 OFFCURVE",
"1131 1465 OFFCURVE",
"1176 1456 QCURVE",
"1103 1057 LINE",
"1081 1059 OFFCURVE",
"1033 1064 OFFCURVE",
"994 1064 QCURVE SMOOTH",
"908 1064 OFFCURVE",
"792 1001 OFFCURVE",
"780 930 QCURVE SMOOTH",
"764 839 LINE",
"768 830 LINE",
"622 0 LINE",
"59 0 LINE"
);
},
{
closed = 1;
nodes = (
"25 914 LINE",
"309 914 LINE",
"327 914 LINE",
"1050 914 LINE",
"981 520 LINE",
"-44 520 LINE"
);
}
);
width = 1006;
}
);
leftKerningGroup = f_LC;
rightKerningGroup = f_LC;
unicode = 0066;
},
{
glyphname = g;
layers = (
{
layerId = "7E98EC3E-25FF-427C-A5DF-023FB65530BC";
paths = (
{
closed = 1;
nodes = (
"55 -2 LINE",
"105 -25 OFFCURVE",
"417 -102 OFFCURVE",
"560 -102 QCURVE SMOOTH",
"684 -102 OFFCURVE",
"907 -28 OFFCURVE",
"921 60 QCURVE SMOOTH",
"927 97 LINE",
"860 40 OFFCURVE",
"663 -30 OFFCURVE",
"490 -30 QCURVE SMOOTH",
"258 -30 OFFCURVE",
"-34 238 OFFCURVE",
"6 480 QCURVE SMOOTH",
"8 492 LINE SMOOTH",
"45 716 OFFCURVE",
"375 944 OFFCURVE",
"629 944 QCURVE SMOOTH",
"797 944 OFFCURVE",
"996 855 OFFCURVE",
"1040 800 QCURVE",
"1040 800 LINE",
"1064 914 LINE",
"1624 914 LINE",
"1511 240 LINE SMOOTH",
"1452 -112 OFFCURVE",
"982 -451 OFFCURVE",
"641 -451 QCURVE SMOOTH",
"401 -451 OFFCURVE",
"49 -390 OFFCURVE",
"-55 -357 QCURVE"
);
},
{
closed = 1;
nodes = (
"559 393 OFFCURVE",
"644 321 OFFCURVE",
"747 321 QCURVE SMOOTH",
"838 321 OFFCURVE",
"954 363 OFFCURVE",
"969 378 QCURVE",
"993 533 LINE",
"975 553 OFFCURVE",
"867 585 OFFCURVE",
"793 585 QCURVE SMOOTH",
"683 585 OFFCURVE",
"580 508 OFFCURVE",
"570 455 QCURVE SMOOTH",
"569 449 LINE SMOOTH"
);
}
);
width = 1686;
}
);
leftKerningGroup = alpha;
unicode = 0067;
},
{
glyphname = h;
layers = (
{
layerId = "7E98EC3E-25FF-427C-A5DF-023FB65530BC";
paths = (
{
closed = 1;
nodes = (
"210 1456 LINE",
"784 1456 LINE",
"656 754 LINE",
"710 827 OFFCURVE",
"957 956 OFFCURVE",
"1153 956 QCURVE SMOOTH",
"1361 956 OFFCURVE",
"1551 738 OFFCURVE",
"1519 555 QCURVE SMOOTH",
"1422 0 LINE",
"850 0 LINE",
"926 432 LINE SMOOTH",
"936 487 OFFCURVE",
"892 539 OFFCURVE",
"823 539 QCURVE SMOOTH",
"754 539 OFFCURVE",
"627 479 OFFCURVE",
"603 445 QCURVE",
"525 0 LINE",
"-46 0 LINE"
);
}
);
width = 1613;
}
);
leftKerningGroup = bhk_LC;
rightKerningGroup = hmn_LC;
unicode = 0068;
},
{
glyphname = i;
layers = (
{
layerId = "7E98EC3E-25FF-427C-A5DF-023FB65530BC";
paths = (
{
closed = 1;
nodes = (
"123 914 LINE",
"706 914 LINE",
"545 0 LINE",
"-38 0 LINE"
);
},
{
closed = 1;
nodes = (
"168 1335 OFFCURVE",
"347 1493 OFFCURVE",
"499 1493 QCURVE SMOOTH",
"652 1492 OFFCURVE",
"800 1335 OFFCURVE",
"788 1215 QCURVE SMOOTH",
"778 1100 OFFCURVE",
"597 935 OFFCURVE",
"445 935 QCURVE SMOOTH",
"293 936 OFFCURVE",
"147 1102 OFFCURVE",
"158 1218 QCURVE SMOOTH"
);
}
);
width = 745;
}
);
leftKerningGroup = i_LC;
rightKerningGroup = i_LC;
unicode = 0069;
},
{
glyphname = j;
layers = (
{
layerId = "7E98EC3E-25FF-427C-A5DF-023FB65530BC";
paths = (
{
closed = 1;
nodes = (
"-357 -42 LINE",
"-330 -49 OFFCURVE",
"-255 -55 OFFCURVE",
"-204 -55 QCURVE SMOOTH",
"-103 -55 OFFCURVE",
"3 55 OFFCURVE",
"29 207 QCURVE SMOOTH",
"154 914 LINE",
"732 914 LINE",
"591 111 LINE SMOOTH",
"540 -182 OFFCURVE",
"162 -440 OFFCURVE",
"-134 -440 QCURVE SMOOTH",
"-236 -440 OFFCURVE",
"-372 -428 OFFCURVE",
"-417 -417 QCURVE"
);
},
{
closed = 1;
nodes = (
"202 1335 OFFCURVE",
"381 1494 OFFCURVE",
"534 1493 QCURVE SMOOTH",
"686 1493 OFFCURVE",
"833 1335 OFFCURVE",
"821 1215 QCURVE SMOOTH",
"811 1100 OFFCURVE",
"631 934 OFFCURVE",
"479 935 QCURVE SMOOTH",
"327 935 OFFCURVE",
"181 1102 OFFCURVE",
"191 1217 QCURVE SMOOTH"
);
}
);
width = 807;
}
);
rightKerningGroup = j_LC;
unicode = 006A;
},
{
glyphname = k;
layers = (
{
layerId = "7E98EC3E-25FF-427C-A5DF-023FB65530BC";
paths = (
{
closed = 1;
nodes = (
"213 1456 LINE",
"792 1456 LINE",
"647 638 LINE",
"1001 914 LINE",
"1623 914 LINE",
"560 169 LINE",
"535 0 LINE",
"-44 0 LINE"
);
},
{
closed = 1;
nodes = (
"552 374 LINE",
"962 656 LINE",
"1610 0 LINE",
"905 0 LINE"
);
}
);
width = 1581;
}
);
leftKerningGroup = bhk_LC;
rightKerningGroup = k_LC;
unicode = 006B;
},
{
glyphname = l;
layers = (
{
layerId = "7E98EC3E-25FF-427C-A5DF-023FB65530BC";
paths = (
{
closed = 1;
nodes = (
"217 1456 LINE",
"796 1456 LINE",
"539 0 LINE",
"-40 0 LINE"
);
}
);
width = 747;
}
);
leftKerningGroup = bhk_LC;
rightKerningGroup = l_LC;
unicode = 006C;
},
{
glyphname = m;
layers = (
{
layerId = "7E98EC3E-25FF-427C-A5DF-023FB65530BC";
paths = (
{
closed = 1;
nodes = (
"109 914 LINE",
"672 914 LINE",
"643 749 LINE",
"647 749 LINE",
"710 841 OFFCURVE",
"951 954 OFFCURVE",
"1107 954 QCURVE SMOOTH",
"1264 954 OFFCURVE",
"1438 828 OFFCURVE",
"1452 743 QCURVE",
"1455 743 LINE",
"1549 842 OFFCURVE",
"1773 956 OFFCURVE",
"1946 956 QCURVE SMOOTH",
"2143 956 OFFCURVE",
"2350 745 OFFCURVE",
"2321 562 QCURVE SMOOTH",
"2222 0 LINE",
"1650 0 LINE",
"1728 437 LINE SMOOTH",
"1737 490 OFFCURVE",
"1697 551 OFFCURVE",
"1624 551 QCURVE SMOOTH",
"1554 551 OFFCURVE",
"1469 504 OFFCURVE",
"1454 471 QCURVE",
"1370 0 LINE",
"798 0 LINE",
"875 433 LINE SMOOTH",
"884 482 OFFCURVE",
"847 551 OFFCURVE",
"780 551 QCURVE SMOOTH",
"724 551 OFFCURVE",
"620 501 OFFCURVE",
"601 460 QCURVE",
"519 0 LINE",
"-52 0 LINE"
);
}
);
width = 2414;
}
);
leftKerningGroup = mnpr_LC;
rightKerningGroup = hmn_LC;
unicode = 006D;
},
{
glyphname = n;
layers = (
{
layerId = "7E98EC3E-25FF-427C-A5DF-023FB65530BC";
paths = (
{
closed = 1;
nodes = (
"115 914 LINE",
"684 914 LINE",
"656 754 LINE",
"657 754 LINE",
"711 828 OFFCURVE",
"956 956 OFFCURVE",
"1151 956 QCURVE SMOOTH",
"1359 956 OFFCURVE",
"1548 739 OFFCURVE",
"1519 556 QCURVE SMOOTH",
"1421 0 LINE",
"850 0 LINE",
"926 432 LINE SMOOTH",
"936 490 OFFCURVE",
"894 539 OFFCURVE",
"823 539 QCURVE SMOOTH",
"757 539 OFFCURVE",
"627 479 OFFCURVE",
"603 445 QCURVE",
"525 0 LINE",
"-46 0 LINE"
);
}
);
width = 1613;
}
);
leftKerningGroup = mnpr_LC;
rightKerningGroup = hmn_LC;
unicode = 006E;
},
{
glyphname = o;
layers = (
{
layerId = "7E98EC3E-25FF-427C-A5DF-023FB65530BC";
paths = (
{
closed = 1;
nodes = (
"3 471 LINE SMOOTH",
"39 689 OFFCURVE",
"512 962 OFFCURVE",
"872 962 QCURVE SMOOTH",
"1234 962 OFFCURVE",
"1604 689 OFFCURVE",
"1568 471 QCURVE SMOOTH",
"1566 459 LINE SMOOTH",
"1528 233 OFFCURVE",
"1056 -37 OFFCURVE",
"695 -37 QCURVE SMOOTH",
"334 -37 OFFCURVE",
"-37 233 OFFCURVE",
"1 459 QCURVE SMOOTH"
);
},
{
closed = 1;
nodes = (
"573 451 LINE SMOOTH",
"562 394 OFFCURVE",
"656 333 OFFCURVE",
"759 333 QCURVE SMOOTH",
"863 333 OFFCURVE",
"974 395 OFFCURVE",
"984 452 QCURVE SMOOTH",
"986 466 LINE SMOOTH",
"997 527 OFFCURVE",
"904 584 OFFCURVE",
"800 584 QCURVE SMOOTH",
"697 584 OFFCURVE",
"586 526 OFFCURVE",
"575 466 QCURVE SMOOTH"
);
}
);
width = 1644;
}
);
leftKerningGroup = o_LC;
rightKerningGroup = o_LC;
unicode = 006F;
},
{
glyphname = p;
layers = (
{
layerId = "7E98EC3E-25FF-427C-A5DF-023FB65530BC";
paths = (
{
closed = 1;
nodes = (
"117 914 LINE",
"669 914 LINE",
"655 821 LINE",
"656 821 LINE",
"709 866 OFFCURVE",
"945 955 OFFCURVE",
"1124 955 QCURVE SMOOTH",
"1359 955 OFFCURVE",
"1605 692 OFFCURVE",
"1566 458 QCURVE SMOOTH",
"1564 446 LINE SMOOTH",
"1525 212 OFFCURVE",
"1158 -30 OFFCURVE",
"933 -30 QCURVE SMOOTH",
"769 -30 OFFCURVE",
"558 37 OFFCURVE",
"521 60 QCURVE",
"441 -388 LINE",
"-112 -388 LINE"
);
},
{
closed = 1;
nodes = (
"610 361 OFFCURVE",
"721 329 OFFCURVE",
"799 329 QCURVE SMOOTH",
"889 329 OFFCURVE",
"989 387 OFFCURVE",
"1002 452 QCURVE SMOOTH",
"1004 462 LINE SMOOTH",
"1015 519 OFFCURVE",
"915 585 OFFCURVE",
"831 584 QCURVE",
"761 585 OFFCURVE",
"632 546 OFFCURVE",
"608 534 QCURVE",
"583 380 LINE"
);
}
);
width = 1649;
}
);
leftKerningGroup = mnpr_LC;
rightKerningGroup = b_LC;
unicode = 0070;
},
{
glyphname = q;
layers = (
{
layerId = "7E98EC3E-25FF-427C-A5DF-023FB65530BC";
paths = (
{
closed = 1;
nodes = (
"8 497 LINE SMOOTH",
"45 706 OFFCURVE",
"366 942 OFFCURVE",
"609 942 QCURVE SMOOTH",
"796 942 OFFCURVE",
"1024 857 OFFCURVE",
"1053 821 QCURVE",
"1053 821 LINE",
"1073 914 LINE",
"1612 914 LINE",
"1382 -390 LINE",
"843 -390 LINE",
"922 72 LINE",
"922 72 LINE",
"853 29 OFFCURVE",
"645 -29 OFFCURVE",
"479 -29 QCURVE SMOOTH",
"221 -29 OFFCURVE",
"-36 246 OFFCURVE",
"5 480 QCURVE SMOOTH"
);
},
{
closed = 1;
nodes = (
"554 387 OFFCURVE",
"637 329 OFFCURVE",
"730 329 QCURVE SMOOTH",
"833 329 OFFCURVE",
"954 371 OFFCURVE",
"970 386 QCURVE",
"990 523 LINE",
"972 543 OFFCURVE",
"858 585 OFFCURVE",
"769 585 QCURVE SMOOTH",
"674 585 OFFCURVE",
"568 511 OFFCURVE",
"562 457 QCURVE SMOOTH",
"561 448 LINE SMOOTH"
);
}
);
width = 1662;
}
);
leftKerningGroup = alpha;
unicode = 0071;
},
{
glyphname = r;
layers = (
{
layerId = "7E98EC3E-25FF-427C-A5DF-023FB65530BC";
paths = (
{
closed = 1;
nodes = (
"115 914 LINE",
"671 914 LINE",
"632 693 LINE",
"634 693 LINE",
"701 790 OFFCURVE",
"939 939 OFFCURVE",
"1073 939 QCURVE SMOOTH",
"1162 939 OFFCURVE",
"1260 916 OFFCURVE",
"1285 903 QCURVE",
"1214 499 LINE",
"1185 518 OFFCURVE",
"1083 541 OFFCURVE",
"1004 541 QCURVE SMOOTH",
"877 541 OFFCURVE",
"652 416 OFFCURVE",
"581 319 QCURVE",
"525 0 LINE",
"-46 0 LINE"
);
}
);
width = 1246;
}
);
leftKerningGroup = mnpr_LC;
rightKerningGroup = r_LC;
unicode = 0072;
},
{
glyphname = s;
layers = (
{
layerId = "7E98EC3E-25FF-427C-A5DF-023FB65530BC";
paths = (
{
closed = 1;
nodes = (
"430 322 LINE",
"428 310 LINE SMOOTH",
"420 264 OFFCURVE",
"556 240 OFFCURVE",
"676 240 QCURVE SMOOTH",
"832 240 OFFCURVE",
"926 266 OFFCURVE",
"929 286 QCURVE SMOOTH",
"933 306 OFFCURVE",
"876 316 OFFCURVE",
"570 331 QCURVE SMOOTH",
"192 350 OFFCURVE",
"-22 509 OFFCURVE",
"3 650 QCURVE SMOOTH",
"30 804 OFFCURVE",
"482 959 OFFCURVE",
"807 959 QCURVE SMOOTH",
"1152 959 OFFCURVE",
"1476 774 OFFCURVE",
"1456 640 QCURVE SMOOTH",
"1453 613 LINE",
"969 613 LINE",
"969 622 LINE SMOOTH",
"969 643 OFFCURVE",
"867 660 OFFCURVE",
"711 660 QCURVE SMOOTH",
"546 660 OFFCURVE",
"497 651 OFFCURVE",
"494 638 QCURVE SMOOTH",
"492 625 OFFCURVE",
"544 612 OFFCURVE",
"874 599 QCURVE SMOOTH",
"1264 584 OFFCURVE",
"1479 430 OFFCURVE",
"1464 296 QCURVE SMOOTH",
"1448 156 OFFCURVE",
"1047 -37 OFFCURVE",
"652 -37 QCURVE SMOOTH",
"257 -37 OFFCURVE",
"-90 160 OFFCURVE",
"-69 297 QCURVE SMOOTH",
"-64 330 LINE"
);
}
);
width = 1568;
}
);
leftKerningGroup = s_LC;
rightKerningGroup = s_LC;
unicode = 0073;
},
{
glyphname = t;
layers = (
{
layerId = "7E98EC3E-25FF-427C-A5DF-023FB65530BC";
paths = (
{
closed = 1;
nodes = (
"23 914 LINE",
"1149 914 LINE",
"1079 520 LINE",
"-47 520 LINE"
);
},
{
closed = 1;
nodes = (
"240 872 LINE",
"262 883 LINE",
"313 1172 LINE",
"860 1172 LINE",
"750 552 LINE SMOOTH",
"734 461 OFFCURVE",
"800 370 OFFCURVE",
"881 370 QCURVE SMOOTH",
"956 370 OFFCURVE",
"1030 382 OFFCURVE",
"1062 392 QCURVE",
"1021 31 LINE",
"930 7 OFFCURVE",
"727 -20 OFFCURVE",
"589 -20 QCURVE SMOOTH",
"367 -20 OFFCURVE",
"122 201 OFFCURVE",
"157 401 QCURVE SMOOTH"
);
}
);
width = 1154;
}
);
leftKerningGroup = t_LC;
rightKerningGroup = t_LC;
unicode = 0074;
},
{
glyphname = u;
layers = (
{
layerId = "7E98EC3E-25FF-427C-A5DF-023FB65530BC";
paths = (
{
closed = 1;
nodes = (
"93 914 LINE",
"662 914 LINE",
"580 450 LINE SMOOTH",
"572 404 OFFCURVE",
"610 343 OFFCURVE",
"681 343 QCURVE SMOOTH",
"752 343 OFFCURVE",
"879 407 OFFCURVE",
"904 441 QCURVE",
"988 914 LINE",
"1556 914 LINE",
"1395 0 LINE",
"827 0 LINE",
"858 156 LINE",
"856 156 LINE",
"822 104 OFFCURVE",
"557 -42 OFFCURVE",
"361 -42 QCURVE SMOOTH",
"154 -42 OFFCURVE",
"-39 164 OFFCURVE",
"-7 344 QCURVE SMOOTH"
);
}
);
width = 1596;
}
);
leftKerningGroup = u_LC;
rightKerningGroup = u_LC;
unicode = 0075;
},
{
glyphname = v;
layers = (
{
layerId = "7E98EC3E-25FF-427C-A5DF-023FB65530BC";
paths = (
{
closed = 1;
nodes = (
"532 914 LINE",
"706 455 LINE SMOOTH",
"710 444 OFFCURVE",
"713 437 OFFCURVE",
"715 431 QCURVE",
"717 431 LINE",
"721 437 OFFCURVE",
"726 444 OFFCURVE",
"734 455 QCURVE SMOOTH",
"1080 914 LINE",
"1586 914 LINE",
"906 0 LINE",
"379 0 LINE",
"11 914 LINE"
);
}
);
width = 1545;
}
);
leftKerningGroup = gamma;
rightKerningGroup = gamma;
unicode = 0076;
},
{
glyphname = w;
layers = (
{
guideLines = (
{
position = "{781, 492}";
},
{
position = "{784, 488}";
}
);
layerId = "7E98EC3E-25FF-427C-A5DF-023FB65530BC";
paths = (
{
closed = 1;
nodes = (
"539 914 LINE",
"673 419 LINE SMOOTH",
"675 411 OFFCURVE",
"677 407 OFFCURVE",
"679 401 QCURVE",
"683 401 LINE",
"687 407 OFFCURVE",
"690 411 OFFCURVE",
"695 419 QCURVE SMOOTH",
"1009 914 LINE",
"1498 914 LINE",
"1630 419 LINE SMOOTH",
"1632 411 OFFCURVE",
"1634 407 OFFCURVE",
"1636 401 QCURVE",
"1640 401 LINE",
"1644 407 OFFCURVE",
"1647 411 OFFCURVE",
"1652 419 QCURVE SMOOTH",
"1961 914 LINE",
"2469 914 LINE",
"1893 0 LINE",
"1307 0 LINE",
"1164 429 LINE SMOOTH",
"1162 436 OFFCURVE",
"1159 445 OFFCURVE",
"1157 449 QCURVE",
"1157 449 LINE",
"1154 445 OFFCURVE",
"1148 436 OFFCURVE",
"1144 429 QCURVE SMOOTH",
"869 0 LINE",
"262 0 LINE",
"11 914 LINE"
);
}
);
width = 2438;
}
);
leftKerningGroup = w_LC;
rightKerningGroup = w_LC;
unicode = 0077;
},
{
glyphname = x;
layers = (
{
layerId = "7E98EC3E-25FF-427C-A5DF-023FB65530BC";
paths = (
{
closed = 1;
nodes = (
"518 563 LINE",
"656 563 LINE",
"1028 914 LINE",
"1656 914 LINE",
"1029 368 LINE",
"874 366 LINE",
"462 0 LINE",
"-166 0 LINE"
);
},
{
closed = 1;
nodes = (
"705 914 LINE",
"1009 534 LINE",
"1043 534 LINE",
"1514 0 LINE",
"834 0 LINE",
"516 385 LINE",
"488 385 LINE",
"25 914 LINE"
);
}
);
width = 1590;
}
);
unicode = 0078;
},
{
glyphname = y;
layers = (
{
layerId = "7E98EC3E-25FF-427C-A5DF-023FB65530BC";
paths = (
{
closed = 1;
nodes = (
"-208 -40 LINE",
"-137 -58 OFFCURVE",
"-26 -74 OFFCURVE",
"29 -74 QCURVE SMOOTH",
"151 -74 OFFCURVE",
"313 -26 OFFCURVE",
"360 14 QCURVE",
"363 16 LINE",
"-9 914 LINE",
"541 914 LINE",
"701 497 LINE SMOOTH",
"710 474 OFFCURVE",
"724 440 OFFCURVE",
"727 431 QCURVE",
"732 431 LINE",
"738 440 OFFCURVE",
"768 476 OFFCURVE",
"784 498 QCURVE SMOOTH",
"1092 924 LINE",
"1654 914 LINE",
"1003 96 LINE SMOOTH",
"769 -202 OFFCURVE",
"342 -436 OFFCURVE",
"101 -436 QCURVE SMOOTH",
"-65 -436 OFFCURVE",
"-253 -412 OFFCURVE",
"-331 -391 QCURVE"
);
}
);
width = 1546;
}
);
leftKerningGroup = gamma;
rightKerningGroup = gamma;
unicode = 0079;
},
{
glyphname = z;
layers = (
{
layerId = "7E98EC3E-25FF-427C-A5DF-023FB65530BC";
paths = (
{
closed = 1;
nodes = (
"-45 285 LINE",
"497 580 LINE",
"26 580 LINE",
"85 914 LINE",
"1379 914 LINE",
"1325 609 LINE",
"784 314 LINE",
"1311 314 LINE",
"1256 0 LINE",
"-95 0 LINE"
);
}
);
width = 1441;
}
);
leftKerningGroup = z_LC;
rightKerningGroup = z_LC;
unicode = 007A;
},
{
glyphname = germandbls;
layers = (
{
layerId = "7E98EC3E-25FF-427C-A5DF-023FB65530BC";
paths = (
{
closed = 1;
nodes = (
"436 0 LINE",
"178 0 LINE",
"178 1091 LINE SMOOTH",
"178 1294 OFFCURVE",
"433 1532 OFFCURVE",
"653 1532 QCURVE SMOOTH",
"835 1532 OFFCURVE",
"1053 1359 OFFCURVE",
"1053 1214 QCURVE SMOOTH",
"1053 1126 OFFCURVE",
"998 1015 OFFCURVE",
"957 972 QCURVE SMOOTH",
"922 934 OFFCURVE",
"857 877 OFFCURVE",
"857 848 QCURVE SMOOTH",
"857 800 OFFCURVE",
"1019 702 OFFCURVE",
"1109 640 QCURVE SMOOTH",
"1195 581 OFFCURVE",
"1298 418 OFFCURVE",
"1298 282 QCURVE SMOOTH",
"1298 157 OFFCURVE",
"1057 -20 OFFCURVE",
"872 -20 QCURVE SMOOTH",
"691 -20 OFFCURVE",
"482 129 OFFCURVE",
"476 278 QCURVE SMOOTH",
"476 304 LINE",
"696 304 LINE",
"696 295 LINE SMOOTH",
"696 232 OFFCURVE",
"791 184 OFFCURVE",
"874 184 QCURVE SMOOTH",
"963 184 OFFCURVE",
"1056 242 OFFCURVE",
"1056 302 QCURVE SMOOTH",
"1056 378 OFFCURVE",
"947 465 OFFCURVE",
"884 511 QCURVE SMOOTH",
"805 568 OFFCURVE",
"614 705 OFFCURVE",
"614 796 QCURVE SMOOTH",
"614 870 OFFCURVE",
"706 981 OFFCURVE",
"742 1025 QCURVE SMOOTH",
"773 1065 OFFCURVE",
"812 1148 OFFCURVE",
"812 1203 QCURVE SMOOTH",
"812 1269 OFFCURVE",
"707 1328 OFFCURVE",
"648 1328 QCURVE SMOOTH",
"551 1328 OFFCURVE",
"436 1223 OFFCURVE",
"436 1091 QCURVE {name = hr00;}"
);
}
);
width = 1334;
}
);
unicode = 00DF;
},
{
glyphname = ae;
layers = (
{
layerId = "7E98EC3E-25FF-427C-A5DF-023FB65530BC";
paths = (
{
closed = 1;
nodes = (
"385 287 OFFCURVE",
"486 171 OFFCURVE",
"607 171 QCURVE SMOOTH",
"720 171 OFFCURVE",
"899 331 OFFCURVE",
"899 410 QCURVE",
"899 573 LINE",
"664 573 LINE SMOOTH",
"532 573 OFFCURVE",
"385 467 OFFCURVE",
"385 379 QCURVE SMOOTH"
);
},
{
closed = 1;
nodes = (
"120 549 OFFCURVE",
"423 746 OFFCURVE",
"643 746 QCURVE SMOOTH",
"899 746 LINE",
"899 795 LINE SMOOTH",
"899 893 OFFCURVE",
"813 1033 OFFCURVE",
"675 1033 QCURVE SMOOTH",
"545 1033 OFFCURVE",
"457 917 OFFCURVE",
"457 867 QCURVE SMOOTH",
"457 881 LINE",
"195 881 LINE",
"195 854 LINE SMOOTH",
"195 1000 OFFCURVE",
"461 1230 OFFCURVE",
"684 1230 QCURVE SMOOTH",
"898 1230 OFFCURVE",
"1089 1043 OFFCURVE",
"1080 963 QCURVE",
"1070 1047 OFFCURVE",
"1251 1230 OFFCURVE",
"1447 1230 QCURVE SMOOTH",
"1702 1230 OFFCURVE",
"1982 899 OFFCURVE",
"1982 633 QCURVE SMOOTH",
"1982 524 LINE",
"1050 524 LINE",
"1050 725 LINE",
"1714 725 LINE",
"1716 769 LINE",
"1714 884 OFFCURVE",
"1569 1025 OFFCURVE",
"1441 1025 QCURVE SMOOTH",
"1305 1025 OFFCURVE",
"1155 771 OFFCURVE",
"1155 610 QCURVE SMOOTH",
"1155 578 LINE SMOOTH",
"1155 417 OFFCURVE",
"1312 166 OFFCURVE",
"1495 166 QCURVE SMOOTH",
"1599 166 OFFCURVE",
"1755 266 OFFCURVE",
"1808 324 QCURVE",
"1974 206 LINE",
"1911 118 OFFCURVE",
"1661 -40 OFFCURVE",
"1493 -40 QCURVE SMOOTH",
"1332 -40 OFFCURVE",
"1051 79 OFFCURVE",
"981 228 QCURVE",
"955 107 OFFCURVE",
"728 -27 OFFCURVE",
"545 -27 QCURVE SMOOTH",
"382 -27 OFFCURVE",
"120 174 OFFCURVE",
"120 342 QCURVE SMOOTH"
);
}
);
width = 2048;
}
);
leftKerningGroup = a_LC;
rightKerningGroup = e_LC;
unicode = 00E6;
},
{
glyphname = eth;
layers = (
{
layerId = "7E98EC3E-25FF-427C-A5DF-023FB65530BC";
paths = (
{
closed = 1;
nodes = (
"326 1698 LINE",
"713 1617 OFFCURVE",
"1188 1185 OFFCURVE",
"1188 740 QCURVE",
"1188 626 LINE",
"1188 336 OFFCURVE",
"882 -20 OFFCURVE",
"655 -20 QCURVE SMOOTH",
"414 -20 OFFCURVE",
"114 320 OFFCURVE",
"114 548 QCURVE SMOOTH",
"114 822 OFFCURVE",
"399 1141 OFFCURVE",
"611 1141 QCURVE SMOOTH",
"803 1141 OFFCURVE",
"1038 867 OFFCURVE",
"1038 716 QCURVE",
"949 717 LINE",
"949 768 OFFCURVE",
"850 934 OFFCURVE",
"685 934 QCURVE SMOOTH",
"525 934 OFFCURVE",
"376 732 OFFCURVE",
"376 548 QCURVE SMOOTH",
"376 438 OFFCURVE",
"510 187 OFFCURVE",
"659 187 QCURVE SMOOTH",
"788 187 OFFCURVE",
"923 442 OFFCURVE",
"923 626 QCURVE SMOOTH",
"923 742 LINE SMOOTH",
"923 1139 OFFCURVE",
"524 1395 OFFCURVE",
"241 1464 QCURVE"
);
},
{
closed = 1;
nodes = (
"486 1119 LINE",
"373 1277 LINE",
"982 1669 LINE",
"1095 1512 LINE"
);
}
);
width = 1299;
}
);
unicode = 00F0;
},
{
glyphname = thorn;
layers = (
{
layerId = "7E98EC3E-25FF-427C-A5DF-023FB65530BC";
paths = (
{
closed = 1;
nodes = (
"178 1536 LINE",
"448 1536 LINE",
"448 1074 LINE",
"502 1140 OFFCURVE",
"650 1210 OFFCURVE",
"771 1210 QCURVE SMOOTH",
"999 1210 OFFCURVE",
"1289 855 OFFCURVE",
"1289 605 QCURVE SMOOTH",
"1289 573 LINE SMOOTH",
"1289 327 OFFCURVE",
"999 -20 OFFCURVE",
"771 -20 QCURVE SMOOTH",
"651 -20 OFFCURVE",
"498 57 OFFCURVE",
"462 114 QCURVE",
"457 114 LINE",
"441 -388 LINE",
"178 -388 LINE"
);
},
{
closed = 1;
nodes = (
"474 301 OFFCURVE",
"618 186 OFFCURVE",
"720 186 QCURVE SMOOTH",
"875 186 OFFCURVE",
"1019 413 OFFCURVE",
"1019 572 QCURVE SMOOTH",
"1019 605 LINE SMOOTH",
"1019 765 OFFCURVE",
"875 1005 OFFCURVE",
"720 1005 QCURVE SMOOTH",
"617 1005 OFFCURVE",
"474 889 OFFCURVE",
"443 817 QCURVE",
"443 372 LINE"
);
}
);
width = 1403;
}
);
rightKerningGroup = b_LC;
unicode = 00FE;
},
{
glyphname = kgreenlandic;
layers = (
{
layerId = "7E98EC3E-25FF-427C-A5DF-023FB65530BC";
paths = (
{
closed = 1;
nodes = (
"455 0 LINE",
"192 0 LINE",
"192 1250 LINE",
"455 1250 LINE"
);
},
{
closed = 1;
nodes = (
"680 507 LINE",
"327 507 LINE",
"327 734 LINE",
"544 734 LINE",
"991 1250 LINE",
"1321 1250 LINE"
);
},
{
closed = 1;
nodes = (
"532 539 LINE",
"697 741 LINE",
"1341 0 LINE",
"1006 0 LINE"
);
}
);
width = 1358;
}
);
leftKerningGroup = mnpr_LC;
rightKerningGroup = k_LC;
unicode = 0138;
},
{
glyphname = oe;
layers = (
{
layerId = "7E98EC3E-25FF-427C-A5DF-023FB65530BC";
paths = (
{
closed = 1;
nodes = (
"384 578 LINE SMOOTH",
"384 412 OFFCURVE",
"540 166 OFFCURVE",
"699 166 QCURVE SMOOTH",
"856 166 OFFCURVE",
"1012 410 OFFCURVE",
"1012 577 QCURVE SMOOTH",
"1012 611 LINE SMOOTH",
"1012 778 OFFCURVE",
"856 1025 OFFCURVE",
"699 1025 QCURVE SMOOTH",
"540 1025 OFFCURVE",
"384 776 OFFCURVE",
"384 611 QCURVE SMOOTH"
);
},
{
closed = 1;
nodes = (
"1132 1029 OFFCURVE",
"1389 1230 OFFCURVE",
"1632 1230 QCURVE SMOOTH",
"1831 1230 OFFCURVE",
"2111 899 OFFCURVE",
"2111 633 QCURVE SMOOTH",
"2111 524 LINE",
"1179 524 LINE",
"1179 725 LINE",
"1843 725 LINE",
"1845 769 LINE",
"1843 884 OFFCURVE",
"1698 1025 OFFCURVE",
"1592 1025 QCURVE SMOOTH",
"1434 1025 OFFCURVE",
"1284 773 OFFCURVE",
"1284 610 QCURVE SMOOTH",
"1284 578 LINE SMOOTH",
"1284 415 OFFCURVE",
"1421 166 OFFCURVE",
"1604 166 QCURVE SMOOTH",
"1708 166 OFFCURVE",
"1884 266 OFFCURVE",
"1937 324 QCURVE",
"2103 206 LINE",
"2040 118 OFFCURVE",
"1790 -40 OFFCURVE",
"1664 -40 QCURVE SMOOTH",
"1394 -40 OFFCURVE",
"1158 131 OFFCURVE",
"1145 183 QCURVE",
"1134 132 OFFCURVE",
"907 -40 OFFCURVE",
"638 -40 QCURVE SMOOTH",
"432 -40 OFFCURVE",
"114 311 OFFCURVE",
"114 578 QCURVE SMOOTH",
"114 610 LINE SMOOTH",
"114 879 OFFCURVE",
"429 1228 OFFCURVE",
"674 1228 QCURVE SMOOTH",
"925 1228 OFFCURVE",
"1148 1019 OFFCURVE",
"1140 1007 QCURVE"
);
}
);
width = 2168;
}
);
leftKerningGroup = alpha;
rightKerningGroup = e_LC;
unicode = 0153;
},
{
glyphname = schwa;
layers = (
{
layerId = "7E98EC3E-25FF-427C-A5DF-023FB65530BC";
paths = (
{
closed = 1;
nodes = (
"1159 580 LINE SMOOTH",
"1159 311 OFFCURVE",
"849 -40 OFFCURVE",
"593 -40 QCURVE SMOOTH",
"338 -40 OFFCURVE",
"58 291 OFFCURVE",
"58 557 QCURVE SMOOTH",
"58 666 LINE",
"990 666 LINE",
"990 465 LINE",
"326 465 LINE",
"324 421 LINE",
"326 306 OFFCURVE",
"471 165 OFFCURVE",
"577 165 QCURVE SMOOTH",
"735 165 OFFCURVE",
"885 419 OFFCURVE",
"885 580 QCURVE SMOOTH",
"885 612 LINE SMOOTH",
"885 773 OFFCURVE",
"728 1024 OFFCURVE",
"545 1024 QCURVE SMOOTH",
"441 1024 OFFCURVE",
"285 924 OFFCURVE",
"232 866 QCURVE",
"66 984 LINE",
"129 1072 OFFCURVE",
"379 1230 OFFCURVE",
"547 1230 QCURVE SMOOTH",
"846 1230 OFFCURVE",
"1159 877 OFFCURVE",
"1159 612 QCURVE SMOOTH"
);
}
);
width = 1273;
}
);
rightKerningGroup = o_LC;
unicode = 0259;
},
{
glyphname = primemod;
layers = (
{
layerId = "7E98EC3E-25FF-427C-A5DF-023FB65530BC";
paths = (
{
closed = 1;
nodes = (
"470 1502 LINE",
"341 947 LINE",
"172 952 LINE",
"228 1502 LINE"
);
}
);
width = 664;
}
);
unicode = 02B9;
},
{
glyphname = doubleprimemod;
layers = (
{
layerId = "7E98EC3E-25FF-427C-A5DF-023FB65530BC";
paths = (
{
closed = 1;
nodes = (
"470 1502 LINE",
"343 973 LINE",
"174 978 LINE",
"228 1502 LINE"
);
},
{
closed = 1;
nodes = (
"770 1502 LINE",
"643 973 LINE",
"474 978 LINE",
"528 1502 LINE"
);
}
);
width = 740;
}
);
unicode = 02BA;
},
{
glyphname = apostrophemod;
layers = (
{
layerId = "7E98EC3E-25FF-427C-A5DF-023FB65530BC";
paths = (
{
closed = 1;
nodes = (
"206 1008 OFFCURVE",
"340 1148 OFFCURVE",
"359 1227 QCURVE",
"268 1227 OFFCURVE",
"165 1316 OFFCURVE",
"165 1386 QCURVE SMOOTH",
"165 1455 OFFCURVE",
"269 1546 OFFCURVE",
"350 1546 QCURVE SMOOTH",
"426 1546 OFFCURVE",
"550 1432 OFFCURVE",
"550 1341 QCURVE SMOOTH",
"550 1196 OFFCURVE",
"345 973 OFFCURVE",
"210 914 QCURVE",
"155 972 LINE"
);
}
);
width = 600;
}
);
leftKerningGroup = minute;
rightKerningGroup = minute;
unicode = 02BC;
},
{
glyphname = ordfeminine;
layers = (
{
guideLines = (
{
position = "{0, 1681}";
},
{
position = "{0, 909}";
}
);
layerId = "7E98EC3E-25FF-427C-A5DF-023FB65530BC";
paths = (
{
closed = 1;
nodes = (
"584 821 OFFCURVE",
"604 736 OFFCURVE",
"627 706 QCURVE",
"804 706 LINE",
"790 749 OFFCURVE",
"778 838 OFFCURVE",
"778 887 QCURVE SMOOTH",
"778 1201 LINE SMOOTH",
"778 1342 OFFCURVE",
"602 1477 OFFCURVE",
"464 1477 QCURVE SMOOTH",
"337 1477 OFFCURVE",
"152 1356 OFFCURVE",
"148 1261 QCURVE SMOOTH",
"148 1234 LINE",
"350 1234 LINE",
"350 1247 LINE SMOOTH",
"350 1273 OFFCURVE",
"409 1312 OFFCURVE",
"466 1312 QCURVE SMOOTH",
"522 1312 OFFCURVE",
"584 1264 OFFCURVE",
"584 1202 QCURVE SMOOTH",
"584 862 LINE"
);
},
{
closed = 1;
nodes = (
"477 1149 LINE SMOOTH",
"291 1149 OFFCURVE",
"124 1027 OFFCURVE",
"124 918 QCURVE SMOOTH",
"124 823 OFFCURVE",
"258 692 OFFCURVE",
"387 692 QCURVE SMOOTH",
"488 692 OFFCURVE",
"619 788 OFFCURVE",
"641 837 QCURVE",
"618 982 LINE",
"618 944 OFFCURVE",
"490 855 OFFCURVE",
"426 855 QCURVE SMOOTH",
"374 855 OFFCURVE",
"328 900 OFFCURVE",
"328 922 QCURVE SMOOTH",
"328 952 OFFCURVE",
"399 1028 OFFCURVE",
"478 1029 QCURVE SMOOTH",
"635 1029 LINE",
"635 1149 LINE"
);
}
);
width = 916;
}
);
unicode = 00AA;
userData = {
com.typemytype.robofont.guideline.magnetic.3CJlALCfkl = 5;
com.typemytype.robofont.guideline.magnetic.Zdl6NZVQAy = 5;
};
},
{
glyphname = ordmasculine;
layers = (
{
guideLines = (
{
position = "{0, 1975}";
}
);
layerId = "7E98EC3E-25FF-427C-A5DF-023FB65530BC";
paths = (
{
closed = 1;
nodes = (
"110 1124 LINE",
"110 1278 OFFCURVE",
"308 1477 OFFCURVE",
"465 1477 QCURVE SMOOTH",
"623 1477 OFFCURVE",
"819 1277.731 OFFCURVE",
"819 1124 QCURVE",
"819 1043 LINE",
"819 889.269 OFFCURVE",
"624 691 OFFCURVE",
"467 691 QCURVE SMOOTH",
"309 691 OFFCURVE",
"110 889 OFFCURVE",
"110 1043 QCURVE"
);
},
{
closed = 1;
nodes = (
"326 1043 LINE",
"326 982.955 OFFCURVE",
"389.209 870 OFFCURVE",
"467 870 QCURVE SMOOTH",
"539.806 870 OFFCURVE",
"605 982.955 OFFCURVE",
"605 1043 QCURVE",
"605 1124 LINE",
"605 1180.806 OFFCURVE",
"539.299 1296 OFFCURVE",
"465 1296 QCURVE SMOOTH",
"390.702 1296 OFFCURVE",
"326 1180.806 OFFCURVE",
"326 1124 QCURVE"
);
}
);
width = 932;
}
);
unicode = 00BA;
userData = {
com.typemytype.robofont.guideline.magnetic.Jnt0R9CyOf = 5;
};
},
{
glyphname = hookabovecomb;
layers = (
{
layerId = "7E98EC3E-25FF-427C-A5DF-023FB65530BC";
paths = (
{
closed = 1;
nodes = (
"287 1000 LINE SMOOTH",
"287 1090 OFFCURVE",
"395 1175 OFFCURVE",
"474 1180 QCURVE SMOOTH",
"529 1185 OFFCURVE",
"558 1198 OFFCURVE",
"558 1218 QCURVE SMOOTH",
"558 1235 OFFCURVE",
"512 1252 OFFCURVE",
"458 1252 QCURVE SMOOTH",
"394 1252 OFFCURVE",
"258 1223 OFFCURVE",
"246 1219 QCURVE",
"163 1407 LINE",
"206 1428 OFFCURVE",
"416 1473 OFFCURVE",
"533 1473 QCURVE SMOOTH",
"703 1473 OFFCURVE",
"894 1348 OFFCURVE",
"894 1243 QCURVE SMOOTH",
"894 1133 OFFCURVE",
"751 1003 OFFCURVE",
"530 991 QCURVE",
"530 957 LINE",
"287 957 LINE"
);
}
);
width = 1024;
}
);
unicode = 0309;
},
{
glyphname = breveinvertedcomb;
layers = (
{
layerId = "7E98EC3E-25FF-427C-A5DF-023FB65530BC";
paths = (
{
closed = 1;
nodes = (
"50 1043 LINE",
"99 1187 OFFCURVE",
"340 1429 OFFCURVE",
"513 1429 QCURVE SMOOTH",
"669 1429 OFFCURVE",
"917 1206 OFFCURVE",
"976 1041 QCURVE",
"710 964 LINE",
"679 1004 OFFCURVE",
"577 1072 OFFCURVE",
"510 1072 QCURVE SMOOTH",
"437 1072 OFFCURVE",
"335 1006 OFFCURVE",
"303 964 QCURVE"
);
}
);
width = 1024;
}
);
unicode = 030F;
},
{
glyphname = horncomb;
layers = (
{
layerId = "7E98EC3E-25FF-427C-A5DF-023FB65530BC";
paths = (
{
closed = 1;
nodes = (
"82 914 LINE SMOOTH",
"129 914 OFFCURVE",
"201 950 OFFCURVE",
"201 1006 QCURVE SMOOTH",
"201 1056 OFFCURVE",
"188 1132 OFFCURVE",
"178 1169 QCURVE",
"496 1169 LINE",
"526 1135 OFFCURVE",
"576 1028 OFFCURVE",
"576 947 QCURVE SMOOTH",
"576 833 OFFCURVE",
"364 725 OFFCURVE",
"219 725 QCURVE SMOOTH",
"149 725 OFFCURVE",
"40 740 OFFCURVE",
"0 752 QCURVE",
"0 914 LINE"
);
}
);
width = 1024;
}
);
unicode = 031B;
},
{
glyphname = dotbelowcomb;
layers = (
{
layerId = "7E98EC3E-25FF-427C-A5DF-023FB65530BC";
paths = (
{
closed = 1;
nodes = (
"274 -298 OFFCURVE",
"395 -164 OFFCURVE",
"512 -164 QCURVE SMOOTH",
"628 -164 OFFCURVE",
"750 -298 OFFCURVE",
"750 -395 QCURVE SMOOTH",
"750 -487 OFFCURVE",
"628 -619 OFFCURVE",
"512 -619 QCURVE SMOOTH",
"395 -619 OFFCURVE",
"274 -487 OFFCURVE",
"274 -395 QCURVE SMOOTH"
);
}
);
width = 1024;
}
);
unicode = 0323;
},
{
glyphname = dieresisbelowcomb;
layers = (
{
layerId = "7E98EC3E-25FF-427C-A5DF-023FB65530BC";
paths = (
{
closed = 1;
nodes = (
"166 -273 OFFCURVE",
"226 -214 OFFCURVE",
"282 -214 QCURVE SMOOTH",
"335 -214 OFFCURVE",
"398 -277 OFFCURVE",
"398 -328 QCURVE SMOOTH",
"398 -382 OFFCURVE",
"339 -441 OFFCURVE",
"282 -441 QCURVE SMOOTH",
"229 -441 OFFCURVE",
"166 -379 OFFCURVE",
"166 -328 QCURVE SMOOTH"
);
},
{
closed = 1;
nodes = (
"626 -273 OFFCURVE",
"686 -214 OFFCURVE",
"742 -214 QCURVE SMOOTH",
"795 -214 OFFCURVE",
"858 -277 OFFCURVE",
"858 -328 QCURVE SMOOTH",
"858 -382 OFFCURVE",
"799 -441 OFFCURVE",
"742 -441 QCURVE SMOOTH",
"689 -441 OFFCURVE",
"626 -379 OFFCURVE",
"626 -328 QCURVE SMOOTH"
);
}
);
width = 1024;
}
);
unicode = 0324;
},
{
glyphname = commaaccentcomb;
layers = (
{
layerId = "7E98EC3E-25FF-427C-A5DF-023FB65530BC";
paths = (
{
closed = 1;
nodes = (
"205 -441 OFFCURVE",
"246 -292 OFFCURVE",
"272 -156 QCURVE",
"868 -154 LINE",
"723 -555 LINE",
"172 -552 LINE"
);
}
);
width = 1024;
}
);
unicode = 0326;
},
{
glyphname = brevebelowcomb;
layers = (
{
layerId = "7E98EC3E-25FF-427C-A5DF-023FB65530BC";
paths = (
{
closed = 1;
nodes = (
"896 -197 LINE",
"857 -296 OFFCURVE",
"656 -463 OFFCURVE",
"512 -463 QCURVE SMOOTH",
"384 -463 OFFCURVE",
"177 -310 OFFCURVE",
"129 -196 QCURVE",
"229 -127 LINE",
"272 -190 OFFCURVE",
"417 -294 OFFCURVE",
"512 -294 QCURVE SMOOTH",
"614 -294 OFFCURVE",
"760 -195 OFFCURVE",
"803 -127 QCURVE"
);
}
);
width = 1024;
}
);
unicode = 032E;
},
{
glyphname = macronbelowcomb;
layers = (
{
layerId = "7E98EC3E-25FF-427C-A5DF-023FB65530BC";
paths = (
{
closed = 1;
nodes = (
"216 -103 LINE",
"808 -103 LINE",
"808 -259 LINE",
"216 -259 LINE"
);
}
);
width = 1024;
}
);
unicode = 0331;
},
{
glyphname = zero;
layers = (
{
layerId = "7E98EC3E-25FF-427C-A5DF-023FB65530BC";
paths = (
{
closed = 1;
nodes = (
"38 746 LINE",
"101 1113 OFFCURVE",
"636 1477 OFFCURVE",
"1065 1478 QCURVE SMOOTH",
"1493 1480 OFFCURVE",
"1888 1129 OFFCURVE",
"1826 753 QCURVE",
"1823 732 LINE",
"1759 341 OFFCURVE",
"1196 -25 OFFCURVE",
"794 -26 QCURVE SMOOTH",
"362 -28 OFFCURVE",
"-27 350 OFFCURVE",
"36 728 QCURVE"
);
},
{
closed = 1;
nodes = (
"584 526 OFFCURVE",
"689 355 OFFCURVE",
"847 356 QCURVE SMOOTH",
"1004 356 OFFCURVE",
"1196 528 OFFCURVE",
"1234 720 QCURVE",
"1241 761 LINE",
"1278 942 OFFCURVE",
"1165 1085 OFFCURVE",
"1012 1084 QCURVE SMOOTH",
"858 1084 OFFCURVE",
"665 941 OFFCURVE",
"628 760 QCURVE",
"621 720 LINE"
);
}
);
width = 1867;
}
);
unicode = 0030;
},
{
glyphname = one;
layers = (
{
layerId = "7E98EC3E-25FF-427C-A5DF-023FB65530BC";
paths = (
{
closed = 1;
nodes = (
"901 948 LINE",
"344 778 LINE",
"377 1252 LINE",
"1078 1456 LINE",
"1581 1456 LINE",
"1318 0 LINE",
"729 0 LINE"
);
}
);
width = 1866;
}
);
unicode = 0031;
},
{
glyphname = two;
layers = (
{
layerId = "7E98EC3E-25FF-427C-A5DF-023FB65530BC";
paths = (
{
closed = 1;
nodes = (
"39 314 LINE",
"931 788 LINE SMOOTH",
"1010 830 OFFCURVE",
"1140 913 OFFCURVE",
"1152 984 QCURVE SMOOTH",
"1162 1044 OFFCURVE",
"1081 1092 OFFCURVE",
"1015 1092 QCURVE SMOOTH",
"932 1092 OFFCURVE",
"808 1026 OFFCURVE",
"784 926 QCURVE SMOOTH",
"782 871 LINE",
"197 871 LINE",
"200 927 LINE SMOOTH",
"213 1161 OFFCURVE",
"695 1480 OFFCURVE",
"1074 1480 QCURVE SMOOTH",
"1444 1480 OFFCURVE",
"1770 1202 OFFCURVE",
"1743 991 QCURVE SMOOTH",
"1718 798 OFFCURVE",
"1472 583 OFFCURVE",
"1334 521 QCURVE SMOOTH",
"966 363 LINE",
"1636 363 LINE",
"1607 0 LINE",
"15 0 LINE"
);
}
);
width = 1866;
}
);
unicode = 0032;
},
{
glyphname = three;
layers = (
{
layerId = "7E98EC3E-25FF-427C-A5DF-023FB65530BC";
paths = (
{
closed = 1;
nodes = (
"66 571 LINE",
"635 571 LINE",
"631 479 LINE SMOOTH",
"628 411 OFFCURVE",
"751 355 OFFCURVE",
"860 355 QCURVE SMOOTH",
"963 355 OFFCURVE",
"1126 411 OFFCURVE",
"1138 490 QCURVE SMOOTH",
"1149 560 OFFCURVE",
"1041 614 OFFCURVE",
"922 614 QCURVE SMOOTH",
"707 614 LINE",
"734 876 LINE",
"920 876 LINE SMOOTH",
"1075 876 OFFCURVE",
"1230 933 OFFCURVE",
"1241 999 QCURVE SMOOTH",
"1250 1053 OFFCURVE",
"1151 1099 OFFCURVE",
"1043 1099 QCURVE SMOOTH",
"922 1099 OFFCURVE",
"780 1032 OFFCURVE",
"775 977 QCURVE SMOOTH",
"769 927 LINE",
"221 927 LINE",
"227 997 LINE SMOOTH",
"247 1231 OFFCURVE",
"700 1480 OFFCURVE",
"1089 1480 QCURVE SMOOTH",
"1496 1480 OFFCURVE",
"1839 1275 OFFCURVE",
"1823 1096 QCURVE SMOOTH",
"1812 972 OFFCURVE",
"1618 813 OFFCURVE",
"1453 767 QCURVE",
"1452 763 LINE",
"1594 743 OFFCURVE",
"1762 601 OFFCURVE",
"1746 458 QCURVE SMOOTH",
"1721 243 OFFCURVE",
"1224 -24 OFFCURVE",
"834 -24 QCURVE SMOOTH",
"444 -24 OFFCURVE",
"54 225 OFFCURVE",
"62 459 QCURVE SMOOTH"
);
}
);
width = 1866;
}
);
unicode = 0033;
},
{
glyphname = four;
layers = (
{
layerId = "7E98EC3E-25FF-427C-A5DF-023FB65530BC";
paths = (
{
closed = 1;
nodes = (
"907 341 LINE",
"970 355 LINE",
"1074 897 LINE",
"1064 900 LINE",
"691 642 LINE",
"1218 643 LINE",
"1244 652 LINE",
"1761 652 LINE",
"1733 211 LINE",
"60 211 LINE",
"82 642 LINE",
"1200 1456 LINE",
"1662 1456 LINE",
"1405 0 LINE",
"847 0 LINE"
);
}
);
width = 1867;
}
);
unicode = 0034;
},
{
glyphname = five;
layers = (
{
layerId = "7E98EC3E-25FF-427C-A5DF-023FB65530BC";
paths = (
{
closed = 1;
nodes = (
"64 549 LINE",
"629 549 LINE",
"626 497 LINE SMOOTH",
"622 421 OFFCURVE",
"768 357 OFFCURVE",
"885 357 QCURVE SMOOTH",
"997 357 OFFCURVE",
"1135 432 OFFCURVE",
"1151 518 QCURVE SMOOTH",
"1166 598 OFFCURVE",
"1069 678 OFFCURVE",
"961 678 QCURVE SMOOTH",
"868 678 OFFCURVE",
"739 630 OFFCURVE",
"687 589 QCURVE",
"173 678 LINE",
"402 1456 LINE",
"1781 1456 LINE",
"1751 1069 LINE",
"747 1069 LINE",
"711 931 LINE",
"793 963 OFFCURVE",
"1007 1014 OFFCURVE",
"1167 1014 QCURVE SMOOTH",
"1478 1014 OFFCURVE",
"1781 747 OFFCURVE",
"1740 530 QCURVE SMOOTH",
"1700 291 OFFCURVE",
"1272 -24 OFFCURVE",
"840 -24 QCURVE SMOOTH",
"419 -24 OFFCURVE",
"39 243 OFFCURVE",
"58 477 QCURVE SMOOTH"
);
}
);
width = 1866;
}
);
unicode = 0035;
},
{
glyphname = six;
layers = (
{
layerId = "7E98EC3E-25FF-427C-A5DF-023FB65530BC";
paths = (
{
closed = 1;
nodes = (
"86 644 LINE SMOOTH",
"153 1013 OFFCURVE",
"947 1476 OFFCURVE",
"1659 1476 QCURVE SMOOTH",
"1735 1476 LINE",
"1707 1056 LINE",
"1651 1056 LINE SMOOTH",
"1207 1056 OFFCURVE",
"733 863 OFFCURVE",
"670 548 QCURVE SMOOTH",
"666 528 LINE SMOOTH",
"648 438 OFFCURVE",
"741 356 OFFCURVE",
"879 356 QCURVE SMOOTH",
"1023 356 OFFCURVE",
"1183 455 OFFCURVE",
"1199 542 QCURVE SMOOTH",
"1214 623 OFFCURVE",
"1116 690 OFFCURVE",
"989 690 QCURVE SMOOTH",
"841 690 OFFCURVE",
"667 599 OFFCURVE",
"655 465 QCURVE",
"570 465 LINE",
"609 741 OFFCURVE",
"1019 949 OFFCURVE",
"1252 949 QCURVE SMOOTH",
"1538 949 OFFCURVE",
"1824 741 OFFCURVE",
"1784 507 QCURVE SMOOTH",
"1745 273 OFFCURVE",
"1207 -23 OFFCURVE",
"826 -23 QCURVE SMOOTH",
"445 -23 OFFCURVE",
"21 289 OFFCURVE",
"81 614 QCURVE SMOOTH"
);
}
);
width = 1866;
}
);
unicode = 0036;
},
{
glyphname = seven;
layers = (
{
layerId = "7E98EC3E-25FF-427C-A5DF-023FB65530BC";
paths = (
{
closed = 1;
nodes = (
"1098 1000 LINE",
"138 1000 LINE",
"166 1456 LINE",
"1788 1456 LINE",
"1770 1012 LINE",
"880 0 LINE",
"168 0 LINE"
);
}
);
width = 1866;
}
);
unicode = 0037;
},
{
glyphname = eight;
layers = (
{
layerId = "7E98EC3E-25FF-427C-A5DF-023FB65530BC";
paths = (
{
closed = 1;
nodes = (
"69 575 OFFCURVE",
"351 739 OFFCURVE",
"484 763 QCURVE",
"484 767 LINE",
"359 805 OFFCURVE",
"206 952 OFFCURVE",
"226 1099 QCURVE SMOOTH",
"248 1264 OFFCURVE",
"708 1479 OFFCURVE",
"1091 1479 QCURVE SMOOTH",
"1463 1479 OFFCURVE",
"1825 1265 OFFCURVE",
"1804 1100 QCURVE SMOOTH",
"1785 948 OFFCURVE",
"1576 795 OFFCURVE",
"1437 767 QCURVE",
"1437 763 LINE",
"1560 739 OFFCURVE",
"1748 584 OFFCURVE",
"1722 417 QCURVE SMOOTH",
"1691 216 OFFCURVE",
"1220 -23 OFFCURVE",
"823 -23 QCURVE SMOOTH",
"415 -23 OFFCURVE",
"36 216 OFFCURVE",
"54 412 QCURVE SMOOTH"
);
},
{
closed = 1;
nodes = (
"636 423 OFFCURVE",
"746 346 OFFCURVE",
"860 346 QCURVE SMOOTH",
"974 346 OFFCURVE",
"1131 414 OFFCURVE",
"1140 487 QCURVE SMOOTH",
"1148 555 OFFCURVE",
"1049 614 OFFCURVE",
"925 614 QCURVE SMOOTH",
"810 614 OFFCURVE",
"657 557 OFFCURVE",
"647 492 QCURVE SMOOTH"
);
},
{
closed = 1;
nodes = (
"778 924 OFFCURVE",
"860 870 OFFCURVE",
"974 870 QCURVE SMOOTH",
"1088 870 OFFCURVE",
"1231 923 OFFCURVE",
"1239 989 QCURVE SMOOTH",
"1247 1054 OFFCURVE",
"1139 1101 OFFCURVE",
"1042 1101 QCURVE SMOOTH",
"934 1101 OFFCURVE",
"793 1048 OFFCURVE",
"786 989 QCURVE SMOOTH"
);
}
);
width = 1867;
}
);
unicode = 0038;
},
{
glyphname = nine;
layers = (
{
layerId = "7E98EC3E-25FF-427C-A5DF-023FB65530BC";
paths = (
{
closed = 1;
nodes = (
"147 1187 OFFCURVE",
"685 1476 OFFCURVE",
"1066 1476 QCURVE SMOOTH",
"1447 1476 OFFCURVE",
"1871 1164 OFFCURVE",
"1811 839 QCURVE SMOOTH",
"1806 809 LINE SMOOTH",
"1739 440 OFFCURVE",
"945 -23 OFFCURVE",
"233 -23 QCURVE SMOOTH",
"157 -23 LINE",
"185 397 LINE",
"241 397 LINE SMOOTH",
"685 397 OFFCURVE",
"1170 587 OFFCURVE",
"1218 905 QCURVE SMOOTH",
"1221 925 LINE SMOOTH",
"1234 1013 OFFCURVE",
"1129 1097 OFFCURVE",
"1008 1097 QCURVE SMOOTH",
"876 1097 OFFCURVE",
"718 1031 OFFCURVE",
"701 939 QCURVE SMOOTH",
"686 856 OFFCURVE",
"789 763 OFFCURVE",
"907 763 QCURVE SMOOTH",
"1045 763 OFFCURVE",
"1211 841 OFFCURVE",
"1238 988 QCURVE",
"1304 988 LINE",
"1266 712 OFFCURVE",
"836 504 OFFCURVE",
"643 504 QCURVE SMOOTH",
"357 504 OFFCURVE",
"74 712 OFFCURVE",
"112 959 QCURVE SMOOTH"
);
}
);
width = 1866;
}
);
unicode = 0039;
},
{
glyphname = onesuperior;
layers = (
{
layerId = "7E98EC3E-25FF-427C-A5DF-023FB65530BC";
paths = (
{
closed = 1;
nodes = (
"123 1370 LINE",
"457 1486 LINE",
"501 1486 LINE",
"501 690 LINE",
"339 690 LINE",
"339 1288 LINE",
"123 1211 LINE"
);
}
);
width = 751;
}
);
unicode = 00B9;
},
{
glyphname = twosuperior;
layers = (
{
layerId = "7E98EC3E-25FF-427C-A5DF-023FB65530BC";
paths = (
{
closed = 1;
nodes = (
"85 805 LINE",
"373 1066 LINE SMOOTH",
"441 1127 OFFCURVE",
"479 1216 OFFCURVE",
"479 1249 QCURVE SMOOTH",
"479 1297 OFFCURVE",
"429 1354 OFFCURVE",
"370 1354 QCURVE SMOOTH",
"305 1354 OFFCURVE",
"234 1273 OFFCURVE",
"235 1198 QCURVE",
"67 1198 LINE",
"66 1329 OFFCURVE",
"224 1487 OFFCURVE",
"366 1487 QCURVE SMOOTH",
"500 1487 OFFCURVE",
"652 1359 OFFCURVE",
"652 1251 QCURVE SMOOTH",
"652 1171 OFFCURVE",
"551 1047 OFFCURVE",
"463 971 QCURVE SMOOTH",
"314 845 LINE",
"683 845 LINE",
"683 697 LINE",
"85 697 LINE"
);
}
);
width = 751;
}
);
unicode = 00B2;
},
{
glyphname = threesuperior;
layers = (
{
layerId = "7E98EC3E-25FF-427C-A5DF-023FB65530BC";
paths = (
{
closed = 1;
nodes = (
"220 920 LINE",
"220 875 OFFCURVE",
"300 824 OFFCURVE",
"366 824 QCURVE SMOOTH",
"435 824 OFFCURVE",
"499 876 OFFCURVE",
"499 925 QCURVE SMOOTH",
"499 978 OFFCURVE",
"423 1028 OFFCURVE",
"350 1029 QCURVE SMOOTH",
"266 1029 LINE",
"266 1151 LINE",
"350 1151 LINE SMOOTH",
"422 1151 OFFCURVE",
"486 1207 OFFCURVE",
"486 1255 QCURVE SMOOTH",
"486 1299 OFFCURVE",
"432 1347 OFFCURVE",
"363 1347 QCURVE SMOOTH",
"306 1347 OFFCURVE",
"231 1299 OFFCURVE",
"231 1256 QCURVE",
"86 1256 LINE",
"86 1357 OFFCURVE",
"241 1487 OFFCURVE",
"360 1487 QCURVE SMOOTH",
"490 1487 OFFCURVE",
"656 1372 OFFCURVE",
"656 1263 QCURVE SMOOTH",
"656 1212 OFFCURVE",
"593 1120 OFFCURVE",
"533 1098 QCURVE",
"601 1075 OFFCURVE",
"667 983 OFFCURVE",
"667 917 QCURVE SMOOTH",
"667 807 OFFCURVE",
"491 686 OFFCURVE",
"361 686 QCURVE SMOOTH",
"248 686 OFFCURVE",
"75 798 OFFCURVE",
"75 920 QCURVE"
);
}
);
width = 751;
}
);
unicode = 00B3;
},
{
glyphname = foursuperior;
layers = (
{
layerId = "7E98EC3E-25FF-427C-A5DF-023FB65530BC";
paths = (
{
closed = 1;
nodes = (
"54 982 LINE",
"432 1496 LINE",
"556 1496 LINE",
"399 1270 LINE",
"212 1010 LINE",
"700 1010 LINE",
"700 880 LINE",
"61 880 LINE"
);
},
{
closed = 1;
nodes = (
"592 697 LINE",
"435 697 LINE",
"435 1496 LINE",
"592 1496 LINE"
);
}
);
width = 751;
}
);
unicode = 2074;
},
{
glyphname = underscore;
layers = (
{
layerId = "7E98EC3E-25FF-427C-A5DF-023FB65530BC";
paths = (
{
closed = 1;
nodes = (
"-143 -75 LINE",
"938 -75 LINE",
"908 -471 LINE",
"-173 -471 LINE"
);
}
);
width = 1081;
}
);
unicode = 005F;
},
{
glyphname = hyphen;
layers = (
{
layerId = "7E98EC3E-25FF-427C-A5DF-023FB65530BC";
paths = (
{
closed = 1;
nodes = (
"108 864 LINE",
"980 864 LINE",
"949 386 LINE",
"78 386 LINE"
);
}
);
width = 1033;
}
);
leftKerningGroup = emdash;
rightKerningGroup = emdash;
unicode = 002D;
},
{
glyphname = endash;
layers = (
{
layerId = "7E98EC3E-25FF-427C-A5DF-023FB65530BC";
paths = (
{
closed = 1;
nodes = (
"0 714 LINE",
"1224 714 LINE",
"1224 470 LINE",
"0 470 LINE"
);
}
);
width = 1224;
}
);
leftKerningGroup = emdash;
rightKerningGroup = emdash;
unicode = 2013;
},
{
glyphname = emdash;
layers = (
{
layerId = "7E98EC3E-25FF-427C-A5DF-023FB65530BC";
paths = (
{
closed = 1;
nodes = (
"360 714 LINE",
"2088 714 LINE",
"2088 470 LINE",
"360 470 LINE"
);
}
);
width = 2448;
}
);
leftKerningGroup = emdash;
rightKerningGroup = emdash;
unicode = 2014;
},
{
glyphname = horizontalbar;
layers = (
{
layerId = "7E98EC3E-25FF-427C-A5DF-023FB65530BC";
paths = (
{
closed = 1;
nodes = (
"-100 792 LINE",
"745 792 LINE",
"745 626 LINE",
"-100 626 LINE"
);
}
);
width = 656;
}
);
leftKerningGroup = emdash;
rightKerningGroup = emdash;
unicode = 2015;
},
{
glyphname = parenleft;
layers = (
{
layerId = "7E98EC3E-25FF-427C-A5DF-023FB65530BC";
paths = (
{
closed = 1;
nodes = (
"398 -386 OFFCURVE",
"-8 80 OFFCURVE",
"58 514 QCURVE SMOOTH",
"60 525 LINE SMOOTH",
"129 959 OFFCURVE",
"702 1426 OFFCURVE",
"1080 1476 QCURVE",
"1049 1141 LINE",
"906 1104 OFFCURVE",
"727 882 OFFCURVE",
"669 532 QCURVE SMOOTH",
"665 508 LINE SMOOTH",
"609 158 OFFCURVE",
"659 -64 OFFCURVE",
"775 -101 QCURVE",
"743 -436 LINE"
);
}
);
width = 960;
}
);
rightKerningGroup = parens;
unicode = 0028;
},
{
glyphname = parenright;
layers = (
{
layerId = "7E98EC3E-25FF-427C-A5DF-023FB65530BC";
paths = (
{
closed = 1;
nodes = (
"-104 -101 LINE",
"37 -64 OFFCURVE",
"219 158 OFFCURVE",
"274 508 QCURVE SMOOTH",
"278 532 LINE SMOOTH",
"336 882 OFFCURVE",
"284 1104 OFFCURVE",
"169 1141 QCURVE",
"201 1476 LINE",
"544 1426 OFFCURVE",
"953 959 OFFCURVE",
"886 525 QCURVE SMOOTH",
"884 512 LINE SMOOTH",
"817 78 OFFCURVE",
"241 -386 OFFCURVE",
"-136 -436 QCURVE"
);
}
);
width = 960;
}
);
leftKerningGroup = parens;
unicode = 0029;
},
{
glyphname = bracketleft;
layers = (
{
layerId = "7E98EC3E-25FF-427C-A5DF-023FB65530BC";
paths = (
{
closed = 1;
nodes = (
"272 1456 LINE",
"1076 1456 LINE",
"998 1061 LINE",
"766 1061 LINE",
"593 85 LINE",
"823 85 LINE",
"765 -310 LINE",
"-39 -310 LINE"
);
}
);
width = 968;
}
);
rightKerningGroup = parens;
unicode = 005B;
},
{
glyphname = bracketright;
layers = (
{
layerId = "7E98EC3E-25FF-427C-A5DF-023FB65530BC";
paths = (
{
closed = 1;
nodes = (
"-149 -310 LINE",
"-71 85 LINE",
"161 85 LINE",
"334 1061 LINE",
"104 1061 LINE",
"162 1456 LINE",
"966 1456 LINE",
"655 -310 LINE"
);
}
);
width = 968;
}
);
leftKerningGroup = parens;
unicode = 005D;
},
{
glyphname = braceleft;
layers = (
{
layerId = "7E98EC3E-25FF-427C-A5DF-023FB65530BC";
paths = (
{
closed = 1;
nodes = (
"236 -342 OFFCURVE",
"13 -95 OFFCURVE",
"99 103 QCURVE SMOOTH",
"178 284 LINE SMOOTH",
"200 335 OFFCURVE",
"103 360 OFFCURVE",
"5 360 QCURVE",
"81 788 LINE",
"179 788 OFFCURVE",
"284 813 OFFCURVE",
"280 864 QCURVE SMOOTH",
"265 1045 LINE SMOOTH",
"250 1234 OFFCURVE",
"557 1482 OFFCURVE",
"1112 1460 QCURVE",
"1043 1068 LINE",
"869 1068 OFFCURVE",
"755 1027 OFFCURVE",
"761 975 QCURVE SMOOTH",
"780 814 LINE SMOOTH",
"789 730 OFFCURVE",
"688 605 OFFCURVE",
"583 574 QCURVE",
"677 543 OFFCURVE",
"734 418 OFFCURVE",
"695 334 QCURVE SMOOTH",
"620 173 LINE SMOOTH",
"595 121 OFFCURVE",
"695 80 OFFCURVE",
"909 80 QCURVE",
"840 -312 LINE"
);
}
);
width = 1035;
}
);
rightKerningGroup = parens;
unicode = 007B;
},
{
glyphname = braceright;
layers = (
{
layerId = "7E98EC3E-25FF-427C-A5DF-023FB65530BC";
paths = (
{
closed = 1;
nodes = (
"-65 78 LINE",
"130 78 OFFCURVE",
"242 119 OFFCURVE",
"236 171 QCURVE SMOOTH",
"218 332 LINE SMOOTH",
"208 416 OFFCURVE",
"309 541 OFFCURVE",
"414 572 QCURVE",
"320 603 OFFCURVE",
"262 728 OFFCURVE",
"302 812 QCURVE SMOOTH",
"378 973 LINE SMOOTH",
"402 1025 OFFCURVE",
"304 1066 OFFCURVE",
"89 1066 QCURVE",
"158 1458 LINE",
"761 1490 OFFCURVE",
"986 1241 OFFCURVE",
"897 1043 QCURVE SMOOTH",
"819 862 LINE SMOOTH",
"797 811 OFFCURVE",
"895 786 OFFCURVE",
"993 786 QCURVE",
"917 357 LINE",
"819 357 OFFCURVE",
"713 332 OFFCURVE",
"717 282 QCURVE SMOOTH",
"731 101 LINE SMOOTH",
"749 -88 OFFCURVE",
"439 -334 OFFCURVE",
"-134 -314 QCURVE"
);
}
);
width = 1035;
}
);
leftKerningGroup = parens;
unicode = 007D;
},
{
glyphname = leftanglebracket;
layers = (
{
layerId = "7E98EC3E-25FF-427C-A5DF-023FB65530BC";
paths = (
{
closed = 1;
nodes = (
"-16 695 LINE",
"586 1499 LINE",
"747 1377 LINE",
"265 604 LINE",
"745 -184 LINE",
"586 -304 LINE",
"-16 506 LINE"
);
}
);
width = 749;
}
);
rightKerningGroup = parens;
unicode = 27E8;
},
{
glyphname = rightanglebracket;
layers = (
{
layerId = "7E98EC3E-25FF-427C-A5DF-023FB65530BC";
paths = (
{
closed = 1;
nodes = (
"450 591 LINE",
"-30 1379 LINE",
"129 1499 LINE",
"731 689 LINE",
"731 500 LINE",
"129 -304 LINE",
"-32 -182 LINE"
);
}
);
width = 749;
}
);
leftKerningGroup = parens;
unicode = 27E9;
},
{
glyphname = numbersign;
layers = (
{
layerId = "7E98EC3E-25FF-427C-A5DF-023FB65530BC";
paths = (
{
closed = 1;
nodes = (
"515 1476 LINE",
"979 1476 LINE",
"420 -20 LINE",
"-45 -20 LINE"
);
},
{
closed = 1;
nodes = (
"1108 1476 LINE",
"1573 1476 LINE",
"1013 -20 LINE",
"549 -20 LINE"
);
},
{
closed = 1;
nodes = (
"6 640 LINE",
"1487 640 LINE",
"1463 306 LINE",
"-19 306 LINE"
);
},
{
closed = 1;
nodes = (
"154 1150 LINE",
"1637 1150 LINE",
"1613 816 LINE",
"130 816 LINE"
);
}
);
width = 1565;
}
);
unicode = 0023;
},
{
glyphname = quotesingle;
layers = (
{
layerId = "7E98EC3E-25FF-427C-A5DF-023FB65530BC";
paths = (
{
closed = 1;
nodes = (
"155 1192 LINE",
"189 1456 LINE",
"712 1456 LINE",
"653 1192 LINE",
"559 755 LINE",
"83 755 LINE"
);
}
);
width = 622;
}
);
leftKerningGroup = minute;
rightKerningGroup = minute;
unicode = 0027;
},
{
glyphname = quotedbl;
layers = (
{
layerId = "7E98EC3E-25FF-427C-A5DF-023FB65530BC";
paths = (
{
closed = 1;
nodes = (
"145 1192 LINE",
"199 1456 LINE",
"709 1456 LINE",
"655 1192 LINE",
"556 755 LINE",
"80 755 LINE"
);
},
{
closed = 1;
nodes = (
"714 1192 LINE",
"768 1456 LINE",
"1279 1456 LINE",
"1225 1192 LINE",
"1125 755 LINE",
"649 755 LINE"
);
}
);
width = 1204;
}
);
leftKerningGroup = minute;
rightKerningGroup = minute;
unicode = 0022;
},
{
glyphname = quoteleft;
layers = (
{
layerId = "7E98EC3E-25FF-427C-A5DF-023FB65530BC";
paths = (
{
closed = 1;
nodes = (
"40 1042 LINE SMOOTH",
"40 1203 OFFCURVE",
"204 1454 OFFCURVE",
"387 1574 QCURVE",
"734 1334 LINE",
"698 1289 OFFCURVE",
"666 1150 OFFCURVE",
"666 1041 QCURVE SMOOTH",
"666 864 LINE",
"40 864 LINE"
);
}
);
width = 714;
}
);
leftKerningGroup = minute;
rightKerningGroup = minute;
unicode = 2018;
},
{
glyphname = quoteright;
layers = (
{
layerId = "7E98EC3E-25FF-427C-A5DF-023FB65530BC";
paths = (
{
closed = 1;
nodes = (
"674 1278 LINE SMOOTH",
"674 1117 OFFCURVE",
"510 866 OFFCURVE",
"327 746 QCURVE",
"-20 986 LINE",
"16 1031 OFFCURVE",
"48 1170 OFFCURVE",
"48 1279 QCURVE SMOOTH",
"48 1456 LINE",
"674 1456 LINE"
);
}
);
width = 714;
}
);
leftKerningGroup = minute;
rightKerningGroup = minute;
unicode = 2019;
},
{
glyphname = quotedblleft;
layers = (
{
layerId = "7E98EC3E-25FF-427C-A5DF-023FB65530BC";
paths = (
{
closed = 1;
nodes = (
"40 1042 LINE SMOOTH",
"40 1203 OFFCURVE",
"204 1454 OFFCURVE",
"387 1574 QCURVE",
"734 1334 LINE",
"698 1289 OFFCURVE",
"666 1150 OFFCURVE",
"666 1041 QCURVE SMOOTH",
"666 864 LINE",
"40 864 LINE"
);
},
{
closed = 1;
nodes = (
"740 1042 LINE SMOOTH",
"740 1203 OFFCURVE",
"904 1454 OFFCURVE",
"1087 1574 QCURVE",
"1434 1334 LINE",
"1398 1289 OFFCURVE",
"1366 1150 OFFCURVE",
"1366 1041 QCURVE SMOOTH",
"1366 864 LINE",
"740 864 LINE"
);
}
);
width = 1454;
}
);
leftKerningGroup = minute;
rightKerningGroup = minute;
unicode = 201C;
},
{
glyphname = quotedblright;
layers = (
{
layerId = "7E98EC3E-25FF-427C-A5DF-023FB65530BC";
paths = (
{
closed = 1;
nodes = (
"734 1280 LINE SMOOTH",
"734 1119 OFFCURVE",
"570 868 OFFCURVE",
"387 748 QCURVE",
"40 988 LINE",
"76 1033 OFFCURVE",
"108 1172 OFFCURVE",
"108 1281 QCURVE SMOOTH",
"108 1458 LINE",
"734 1458 LINE"
);
},
{
closed = 1;
nodes = (
"1434 1280 LINE SMOOTH",
"1434 1119 OFFCURVE",
"1270 868 OFFCURVE",
"1087 748 QCURVE",
"740 988 LINE",
"776 1033 OFFCURVE",
"808 1172 OFFCURVE",
"808 1281 QCURVE SMOOTH",
"808 1458 LINE",
"1434 1458 LINE"
);
}
);
width = 1454;
}
);
leftKerningGroup = minute;
rightKerningGroup = minute;
unicode = 201D;
},
{
glyphname = quotesinglbase;
layers = (
{
layerId = "7E98EC3E-25FF-427C-A5DF-023FB65530BC";
paths = (
{
closed = 1;
nodes = (
"734 42 LINE SMOOTH",
"734 -119 OFFCURVE",
"570 -370 OFFCURVE",
"387 -490 QCURVE",
"40 -250 LINE",
"76 -205 OFFCURVE",
"108 -66 OFFCURVE",
"108 43 QCURVE SMOOTH",
"108 220 LINE",
"734 220 LINE"
);
}
);
width = 754;
}
);
leftKerningGroup = comma;
rightKerningGroup = comma;
unicode = 201A;
},
{
glyphname = quotedblbase;
layers = (
{
layerId = "7E98EC3E-25FF-427C-A5DF-023FB65530BC";
paths = (
{
closed = 1;
nodes = (
"734 42 LINE SMOOTH",
"734 -119 OFFCURVE",
"570 -370 OFFCURVE",
"387 -490 QCURVE",
"40 -250 LINE",
"76 -205 OFFCURVE",
"108 -66 OFFCURVE",
"108 43 QCURVE SMOOTH",
"108 220 LINE",
"734 220 LINE"
);
},
{
closed = 1;
nodes = (
"1434 42 LINE SMOOTH",
"1434 -119 OFFCURVE",
"1270 -370 OFFCURVE",
"1087 -490 QCURVE",
"740 -250 LINE",
"776 -205 OFFCURVE",
"808 -66 OFFCURVE",
"808 43 QCURVE SMOOTH",
"808 220 LINE",
"1434 220 LINE"
);
}
);
width = 1454;
}
);
leftKerningGroup = comma;
rightKerningGroup = comma;
unicode = 201E;
},
{
glyphname = guilsinglleft;
layers = (
{
guideLines = (
{
position = "{0, 901}";
},
{
position = "{0, 555}";
}
);
layerId = "7E98EC3E-25FF-427C-A5DF-023FB65530BC";
paths = (
{
closed = 1;
nodes = (
"108 609 LINE",
"438 983 LINE",
"654 983 LINE",
"385 568 LINE",
"654 153 LINE",
"438 153 LINE",
"108 528 LINE"
);
}
);
width = 699;
}
);
leftKerningGroup = guillemotleft;
rightKerningGroup = guillemotleft;
unicode = 2039;
userData = {
com.typemytype.robofont.guideline.magnetic.Amp5Ormvx4 = 5;
com.typemytype.robofont.guideline.magnetic.JDX5vz3jKp = 5;
};
},
{
glyphname = guilsinglright;
layers = (
{
guideLines = (
{
position = "{0, 901}";
},
{
position = "{0, 555}";
}
);
layerId = "7E98EC3E-25FF-427C-A5DF-023FB65530BC";
paths = (
{
closed = 1;
nodes = (
"314 568 LINE",
"45 983 LINE",
"262 983 LINE",
"591 609 LINE",
"591 528 LINE",
"262 153 LINE",
"45 153 LINE"
);
}
);
width = 699;
}
);
leftKerningGroup = guillemotright;
rightKerningGroup = guillemotright;
unicode = 203A;
userData = {
com.typemytype.robofont.guideline.magnetic.Amp5Ormvx4 = 5;
com.typemytype.robofont.guideline.magnetic.JDX5vz3jKp = 5;
};
},
{
glyphname = guillemotleft;
layers = (
{
guideLines = (
{
position = "{0, 901}";
},
{
position = "{0, 555}";
}
);
layerId = "7E98EC3E-25FF-427C-A5DF-023FB65530BC";
paths = (
{
closed = 1;
nodes = (
"108 609 LINE",
"438 983 LINE",
"654 983 LINE",
"385 568 LINE",
"654 153 LINE",
"438 153 LINE",
"108 528 LINE"
);
},
{
closed = 1;
nodes = (
"567 609 LINE",
"896 983 LINE",
"1113 983 LINE",
"844 568 LINE",
"1113 153 LINE",
"896 153 LINE",
"567 528 LINE"
);
}
);
width = 1158;
}
);
leftKerningGroup = guillemotleft;
rightKerningGroup = guillemotleft;
unicode = 00AB;
userData = {
com.typemytype.robofont.guideline.magnetic.MVJpdoVRVd = 5;
com.typemytype.robofont.guideline.magnetic.ZftBQarVKw = 5;
};
},
{
glyphname = guillemotright;
layers = (
{
guideLines = (
{
position = "{0, 98}";
},
{
position = "{0, 443}";
}
);
layerId = "7E98EC3E-25FF-427C-A5DF-023FB65530BC";
paths = (
{
closed = 1;
nodes = (
"314 568 LINE",
"45 983 LINE",
"262 983 LINE",
"591 609 LINE",
"591 528 LINE",
"262 153 LINE",
"45 153 LINE"
);
},
{
closed = 1;
nodes = (
"773 568 LINE",
"504 983 LINE",
"720 983 LINE",
"1050 609 LINE",
"1050 528 LINE",
"720 153 LINE",
"504 153 LINE"
);
}
);
width = 1158;
}
);
leftKerningGroup = guillemotright;
rightKerningGroup = guillemotright;
unicode = 00BB;
userData = {
com.typemytype.robofont.guideline.magnetic.G9bQni2n1K = 5;
com.typemytype.robofont.guideline.magnetic.MTEldNnfdj = 5;
};
},
{
glyphname = asterisk;
layers = (
{
layerId = "7E98EC3E-25FF-427C-A5DF-023FB65530BC";
paths = (
{
closed = 1;
nodes = (
"187 1332 LINE",
"405 1223 LINE",
"400 1476 LINE",
"819 1476 LINE",
"762 1223 LINE",
"1004 1333 LINE",
"1091 933 LINE",
"836 885 LINE",
"992 699 LINE",
"626 453 LINE",
"527 676 LINE",
"380 453 LINE",
"67 699 LINE",
"260 885 LINE",
"15 932 LINE"
);
}
);
width = 1020;
}
);
unicode = 002A;
},
{
glyphname = dagger;
layers = (
{
layerId = "7E98EC3E-25FF-427C-A5DF-023FB65530BC";
paths = (
{
closed = 1;
nodes = (
"462 8 LINE",
"483 748 LINE",
"483 812 LINE",
"72 812 LINE",
"72 1065 LINE",
"479 1065 LINE",
"466 1558 LINE",
"737 1558 LINE",
"724 1065 LINE",
"1131 1065 LINE",
"1131 812 LINE",
"720 812 LINE",
"720 748 LINE",
"741 8 LINE",
"737 -274 LINE",
"638 -470 OFFCURVE",
"566 -472 OFFCURVE",
"466 -274 QCURVE"
);
}
);
width = 1213;
}
);
unicode = 2020;
},
{
glyphname = daggerdbl;
layers = (
{
layerId = "7E98EC3E-25FF-427C-A5DF-023FB65530BC";
paths = (
{
closed = 1;
nodes = (
"82 240 LINE",
"479 240 LINE",
"459 534 LINE",
"474 818 LINE",
"82 818 LINE",
"82 1059 LINE",
"460 1059 LINE",
"457 1508 LINE",
"746 1508 LINE",
"743 1059 LINE",
"1121 1059 LINE",
"1121 818 LINE",
"729 818 LINE",
"744 534 LINE",
"724 240 LINE",
"1121 240 LINE",
"1121 1 LINE",
"738 1 LINE",
"741 -452 LINE",
"462 -452 LINE",
"465 1 LINE",
"82 1 LINE"
);
}
);
width = 1008;
}
);
unicode = 2021;
},
{
glyphname = period;
layers = (
{
layerId = "7E98EC3E-25FF-427C-A5DF-023FB65530BC";
paths = (
{
closed = 1;
nodes = (
"-27 383 OFFCURVE",
"143 542 OFFCURVE",
"292 542 QCURVE SMOOTH",
"440 542 OFFCURVE",
"585 383 OFFCURVE",
"576 265 QCURVE SMOOTH",
"566 147 OFFCURVE",
"396 -12 OFFCURVE",
"247 -12 QCURVE SMOOTH",
"99 -12 OFFCURVE",
"-46 150 OFFCURVE",
"-37 266 QCURVE SMOOTH"
);
}
);
width = 703;
}
);
leftKerningGroup = comma;
rightKerningGroup = comma;
unicode = 002E;
},
{
glyphname = comma;
layers = (
{
layerId = "7E98EC3E-25FF-427C-A5DF-023FB65530BC";
paths = (
{
closed = 1;
nodes = (
"-77 -85 OFFCURVE",
"-9 39 OFFCURVE",
"7 111 QCURVE SMOOTH",
"73 496 LINE",
"582 496 LINE",
"517 115 LINE SMOOTH",
"501 20 OFFCURVE",
"368 -162 OFFCURVE",
"293 -197 QCURVE",
"-160 -140 LINE"
);
}
);
width = 675;
}
);
leftKerningGroup = comma;
rightKerningGroup = comma;
unicode = 002C;
},
{
glyphname = colon;
layers = (
{
layerId = "7E98EC3E-25FF-427C-A5DF-023FB65530BC";
paths = (
{
closed = 1;
nodes = (
"-44 349 OFFCURVE",
"106 492 OFFCURVE",
"240 492 QCURVE SMOOTH",
"374 492 OFFCURVE",
"518 349 OFFCURVE",
"517 242 QCURVE SMOOTH",
"517 131 OFFCURVE",
"367 -12 OFFCURVE",
"233 -12 QCURVE SMOOTH",
"100 -12 OFFCURVE",
"-45 136 OFFCURVE",
"-44 242 QCURVE SMOOTH"
);
},
{
closed = 1;
nodes = (
"81 909 OFFCURVE",
"235 1053 OFFCURVE",
"369 1053 QCURVE SMOOTH",
"504 1053 OFFCURVE",
"642 909 OFFCURVE",
"638 802 QCURVE SMOOTH",
"633 691 OFFCURVE",
"479 548 OFFCURVE",
"344 548 QCURVE SMOOTH",
"211 548 OFFCURVE",
"71 696 OFFCURVE",
"76 804 QCURVE SMOOTH"
);
}
);
width = 619;
}
);
leftKerningGroup = colon;
rightKerningGroup = colon;
unicode = 003A;
},
{
glyphname = semicolon;
layers = (
{
layerId = "7E98EC3E-25FF-427C-A5DF-023FB65530BC";
paths = (
{
closed = 1;
nodes = (
"-84 -101 OFFCURVE",
"-17 28 OFFCURVE",
"-2 100 QCURVE SMOOTH",
"74 470 LINE",
"568 470 LINE",
"490 104 LINE SMOOTH",
"470 12 OFFCURVE",
"367 -165 OFFCURVE",
"326 -203 QCURVE",
"-130 -149 LINE"
);
},
{
closed = 1;
nodes = (
"81.211 909 OFFCURVE",
"235.183 1053 OFFCURVE",
"370.182 1053 QCURVE SMOOTH",
"504.182 1053 OFFCURVE",
"642.211 909 OFFCURVE",
"637.948 802 QCURVE SMOOTH",
"632.824 691 OFFCURVE",
"478.818 548 OFFCURVE",
"343.818 548 QCURVE SMOOTH",
"210.817 548 OFFCURVE",
"70.649 696 OFFCURVE",
"75.878 804 QCURVE SMOOTH"
);
}
);
width = 609;
}
);
leftKerningGroup = colon;
rightKerningGroup = colon;
unicode = 003B;
},
{
glyphname = exclam;
layers = (
{
layerId = "7E98EC3E-25FF-427C-A5DF-023FB65530BC";
paths = (
{
closed = 1;
nodes = (
"-2 365 OFFCURVE",
"169 521 OFFCURVE",
"314 521 QCURVE SMOOTH",
"464 521 OFFCURVE",
"611 365 OFFCURVE",
"602 255 QCURVE SMOOTH",
"593 144 OFFCURVE",
"423 -12 OFFCURVE",
"276 -12 QCURVE SMOOTH",
"127 -12 OFFCURVE",
"-19 145 OFFCURVE",
"-10 255 QCURVE SMOOTH"
);
},
{
closed = 1;
nodes = (
"249 1456 LINE",
"792 1456 LINE",
"598 572 LINE",
"103 572 LINE"
);
}
);
width = 758;
}
);
unicode = 0021;
},
{
glyphname = exclamdown;
layers = (
{
layerId = "7E98EC3E-25FF-427C-A5DF-023FB65530BC";
paths = (
{
closed = 1;
nodes = (
"518 960 OFFCURVE",
"432 872 OFFCURVE",
"351 872 QCURVE SMOOTH",
"271 872 OFFCURVE",
"186 960 OFFCURVE",
"186 1022 QCURVE SMOOTH",
"186 1084 OFFCURVE",
"272 1172 OFFCURVE",
"352 1172 QCURVE SMOOTH",
"432 1172 OFFCURVE",
"518 1084 OFFCURVE",
"518 1022 QCURVE SMOOTH"
);
},
{
closed = 1;
nodes = (
"491 -306 LINE",
"214 -306 LINE",
"234 724 LINE",
"470 724 LINE"
);
}
);
width = 704;
}
);
unicode = 00A1;
},
{
glyphname = question;
layers = (
{
layerId = "7E98EC3E-25FF-427C-A5DF-023FB65530BC";
paths = (
{
closed = 1;
nodes = (
"313 365 OFFCURVE",
"483 521 OFFCURVE",
"634 521 QCURVE SMOOTH",
"787 521 OFFCURVE",
"942 365 OFFCURVE",
"937 255 QCURVE SMOOTH",
"932 144 OFFCURVE",
"763 -12 OFFCURVE",
"611 -12 QCURVE SMOOTH",
"462 -12 OFFCURVE",
"304 145 OFFCURVE",
"309 255 QCURVE SMOOTH"
);
},
{
closed = 1;
nodes = (
"74 1006 LINE SMOOTH",
"108 1219 OFFCURVE",
"551 1480 OFFCURVE",
"904 1480 QCURVE SMOOTH",
"1306 1480 OFFCURVE",
"1618 1303 OFFCURVE",
"1604 1141 QCURVE SMOOTH",
"1591 987 OFFCURVE",
"1412 813 OFFCURVE",
"1236 761 QCURVE SMOOTH",
"1034 701 OFFCURVE",
"924 617 OFFCURVE",
"920 581 QCURVE SMOOTH",
"918 561 LINE",
"372 561 LINE",
"379 624 LINE SMOOTH",
"389 717 OFFCURVE",
"576 907 OFFCURVE",
"769 950 QCURVE SMOOTH",
"934 987 OFFCURVE",
"975 1020 OFFCURVE",
"978 1044 QCURVE SMOOTH",
"982 1073 OFFCURVE",
"936 1099 OFFCURVE",
"805 1099 QCURVE SMOOTH",
"685 1099 OFFCURVE",
"599 1035 OFFCURVE",
"590 988 QCURVE SMOOTH",
"585 956 LINE",
"66 956 LINE"
);
}
);
width = 1542;
}
);
unicode = 003F;
},
{
glyphname = questiondown;
layers = (
{
guideLines = (
{
position = "{0, -181}";
},
{
position = "{0, 921}";
}
);
layerId = "7E98EC3E-25FF-427C-A5DF-023FB65530BC";
paths = (
{
closed = 1;
nodes = (
"750 958 OFFCURVE",
"664 870 OFFCURVE",
"584 870 QCURVE SMOOTH",
"504 870 OFFCURVE",
"418 958 OFFCURVE",
"418 1020 QCURVE SMOOTH",
"418 1082 OFFCURVE",
"504 1170 OFFCURVE",
"584 1170 QCURVE SMOOTH",
"665 1170 OFFCURVE",
"750 1082 OFFCURVE",
"750 1020 QCURVE SMOOTH"
);
},
{
closed = 1;
nodes = (
"1068 26 LINE SMOOTH",
"1068 -133 OFFCURVE",
"801 -328 OFFCURVE",
"569 -328 QCURVE SMOOTH",
"337 -328 OFFCURVE",
"76 -106 OFFCURVE",
"76 87 QCURVE SMOOTH",
"76 212 OFFCURVE",
"292 462 OFFCURVE",
"352 493 QCURVE SMOOTH",
"440 554 OFFCURVE",
"470 668 OFFCURVE",
"470 733 QCURVE SMOOTH",
"470 743 LINE",
"729 743 LINE",
"729 733 LINE SMOOTH",
"729 597 OFFCURVE",
"678 477 OFFCURVE",
"567 380 QCURVE SMOOTH",
"480 305 OFFCURVE",
"337 174 OFFCURVE",
"337 87 QCURVE SMOOTH",
"337 -5 OFFCURVE",
"452 -97 OFFCURVE",
"570 -97 QCURVE SMOOTH",
"687 -97 OFFCURVE",
"809 -33 OFFCURVE",
"809 26 QCURVE SMOOTH",
"809 44 LINE",
"1068 44 LINE"
);
}
);
width = 1113;
}
);
unicode = 00BF;
userData = {
com.typemytype.robofont.guideline.magnetic.5ZPZZL8Rim = 5;
com.typemytype.robofont.guideline.magnetic.apukwP5ffL = 5;
};
},
{
glyphname = slash;
layers = (
{
layerId = "7E98EC3E-25FF-427C-A5DF-023FB65530BC";
paths = (
{
closed = 1;
nodes = (
"898 1456 LINE",
"1408 1456 LINE",
"293 -125 LINE",
"-216 -125 LINE"
);
}
);
width = 1266;
}
);
unicode = 002F;
},
{
glyphname = backslash;
layers = (
{
layerId = "7E98EC3E-25FF-427C-A5DF-023FB65530BC";
paths = (
{
closed = 1;
nodes = (
"654 1456 LINE",
"1145 -125 LINE",
"639 -125 LINE",
"146 1456 LINE"
);
}
);
width = 1303;
}
);
unicode = 005C;
},
{
glyphname = fraction;
layers = (
{
guideLines = (
{
position = "{0, 901}";
},
{
position = "{0, 555}";
}
);
layerId = "7E98EC3E-25FF-427C-A5DF-023FB65530BC";
paths = (
{
closed = 1;
nodes = (
"-267 -48 LINE",
"-573 192 LINE",
"593 1504 LINE",
"909 1276 LINE"
);
}
);
width = 342;
}
);
unicode = 2044;
userData = {
com.typemytype.robofont.guideline.magnetic.0lx51aIE0d = 5;
com.typemytype.robofont.guideline.magnetic.tcCoNUQTdD = 5;
};
},
{
glyphname = bar;
layers = (
{
layerId = "7E98EC3E-25FF-427C-A5DF-023FB65530BC";
paths = (
{
closed = 1;
nodes = (
"219 1456 LINE",
"823 1456 LINE",
"493 -416 LINE",
"-111 -416 LINE"
);
}
);
width = 784;
}
);
unicode = 007C;
},
{
glyphname = brokenbar;
layers = (
{
guideLines = (
{
position = "{0, 901}";
},
{
position = "{0, 555}";
}
);
layerId = "7E98EC3E-25FF-427C-A5DF-023FB65530BC";
paths = (
{
closed = 1;
nodes = (
"205 -416 LINE",
"205 359 LINE",
"459 359 LINE",
"459 -416 LINE"
);
},
{
closed = 1;
nodes = (
"459 761 LINE",
"205 761 LINE",
"205 1536 LINE",
"459 1536 LINE"
);
}
);
width = 664;
}
);
unicode = 00A6;
userData = {
com.typemytype.robofont.guideline.magnetic.Z0RZpP7MTi = 5;
com.typemytype.robofont.guideline.magnetic.jmguX8NWKI = 5;
};
},
{
glyphname = at;
layers = (
{
layerId = "7E98EC3E-25FF-427C-A5DF-023FB65530BC";
paths = (
{
closed = 1;
nodes = (
"574 706 OFFCURVE",
"986 1052 OFFCURVE",
"1234 1052 QCURVE SMOOTH",
"1340 1052 OFFCURVE",
"1470 983 OFFCURVE",
"1495 946 QCURVE",
"1803 946 LINE",
"1586 350 LINE SMOOTH",
"1569 302 OFFCURVE",
"1566 276 OFFCURVE",
"1593 275 QCURVE SMOOTH",
"1656 273 OFFCURVE",
"1810 435 OFFCURVE",
"1850 599 QCURVE SMOOTH",
"1898 854 OFFCURVE",
"1601 1128 OFFCURVE",
"1291 1128 QCURVE SMOOTH",
"947 1128 OFFCURVE",
"457 740 OFFCURVE",
"409 433 QCURVE SMOOTH",
"370 183 OFFCURVE",
"575 -100 OFFCURVE",
"831 -100 QCURVE SMOOTH",
"964 -100 OFFCURVE",
"1156 -55 OFFCURVE",
"1224 -20 QCURVE",
"1196 -366 LINE",
"1124 -408 OFFCURVE",
"936 -446 OFFCURVE",
"803 -446 QCURVE SMOOTH",
"362 -446 OFFCURVE",
"-34 40 OFFCURVE",
"40 460 QCURVE SMOOTH",
"114 880 OFFCURVE",
"790 1486 OFFCURVE",
"1318 1486 QCURVE SMOOTH",
"1787 1486 OFFCURVE",
"2244 980 OFFCURVE",
"2183 630 QCURVE SMOOTH",
"2132 340 OFFCURVE",
"1786 0 OFFCURVE",
"1507 0 QCURVE SMOOTH",
"1340 0 OFFCURVE",
"1181 89 OFFCURVE",
"1147 180 QCURVE",
"1087 93 OFFCURVE",
"912 1 OFFCURVE",
"828 1 QCURVE SMOOTH",
"639 1 OFFCURVE",
"493 214 OFFCURVE",
"528 427 QCURVE SMOOTH"
);
},
{
closed = 1;
nodes = (
"1004 364 OFFCURVE",
"1020 329 OFFCURVE",
"1043 329 QCURVE SMOOTH",
"1071 329 OFFCURVE",
"1121 366 OFFCURVE",
"1154 415 QCURVE SMOOTH",
"1297 742 LINE",
"1287 752 OFFCURVE",
"1259 760 OFFCURVE",
"1244 760 QCURVE SMOOTH",
"1195 760 OFFCURVE",
"1068 579 OFFCURVE",
"1023 427 QCURVE SMOOTH"
);
}
);
width = 2237;
}
);
unicode = 0040;
},
{
glyphname = ampersand;
layers = (
{
layerId = "7E98EC3E-25FF-427C-A5DF-023FB65530BC";
paths = (
{
closed = 1;
nodes = (
"-7 523 OFFCURVE",
"251 728 OFFCURVE",
"509 832 QCURVE SMOOTH",
"713 914 LINE SMOOTH",
"850 969 OFFCURVE",
"990 1076 OFFCURVE",
"997 1109 QCURVE SMOOTH",
"1005 1148 OFFCURVE",
"954 1211 OFFCURVE",
"896 1211 QCURVE SMOOTH",
"838 1211 OFFCURVE",
"771 1165 OFFCURVE",
"765 1126 QCURVE SMOOTH",
"759 1087 OFFCURVE",
"899 948 OFFCURVE",
"1010 825 QCURVE SMOOTH",
"1755 0 LINE",
"1130 0 LINE",
"475 693 LINE SMOOTH",
"346 829 OFFCURVE",
"234 1030 OFFCURVE",
"251 1136 QCURVE SMOOTH",
"276 1302 OFFCURVE",
"627 1486 OFFCURVE",
"959 1486 QCURVE SMOOTH",
"1281 1486 OFFCURVE",
"1543 1314 OFFCURVE",
"1520 1139 QCURVE SMOOTH",
"1499 993 OFFCURVE",
"1233 760 OFFCURVE",
"1023 683 QCURVE SMOOTH",
"890 634 LINE SMOOTH",
"623 535 OFFCURVE",
"498 469 OFFCURVE",
"489 418 QCURVE SMOOTH",
"482 378 OFFCURVE",
"549 337 OFFCURVE",
"632 337 QCURVE SMOOTH",
"845 337 OFFCURVE",
"1271 531 OFFCURVE",
"1355 762 QCURVE",
"1862 762 LINE",
"1810 468 OFFCURVE",
"1050 -20 OFFCURVE",
"629 -20 QCURVE SMOOTH",
"246 -20 OFFCURVE",
"-66 190 OFFCURVE",
"-35 370 QCURVE SMOOTH"
);
}
);
width = 1845;
}
);
unicode = 0026;
},
{
glyphname = section;
layers = (
{
guideLines = (
{
position = "{0, 1658}";
},
{
position = "{0, 578}";
}
);
layerId = "7E98EC3E-25FF-427C-A5DF-023FB65530BC";
paths = (
{
closed = 1;
nodes = (
"669 266 LINE",
"772 265 OFFCURVE",
"926 380 OFFCURVE",
"926 453 QCURVE",
"926 530 OFFCURVE",
"784 633 OFFCURVE",
"618 694 QCURVE SMOOTH",
"428 751 OFFCURVE",
"163 879 OFFCURVE",
"163 1100 QCURVE SMOOTH",
"163 1306 OFFCURVE",
"411 1489 OFFCURVE",
"632 1491 QCURVE SMOOTH",
"842 1493 OFFCURVE",
"1074 1281 OFFCURVE",
"1072 1070 QCURVE",
"852 1070 LINE",
"854 1140 OFFCURVE",
"738 1273 OFFCURVE",
"632 1273 QCURVE SMOOTH",
"498 1273 OFFCURVE",
"386 1204 OFFCURVE",
"386 1119 QCURVE SMOOTH",
"386 1042 OFFCURVE",
"514 990 OFFCURVE",
"716 926 QCURVE SMOOTH",
"888 873 OFFCURVE",
"1178 683 OFFCURVE",
"1178 480 QCURVE SMOOTH",
"1178 294 OFFCURVE",
"862 115 OFFCURVE",
"669 119 QCURVE"
);
},
{
closed = 1;
nodes = (
"550 706 LINE",
"446 706 OFFCURVE",
"336 616 OFFCURVE",
"336 551 QCURVE SMOOTH",
"336 511 OFFCURVE",
"467 423 OFFCURVE",
"647 352 QCURVE SMOOTH",
"803 289 OFFCURVE",
"1091 114 OFFCURVE",
"1091 -88 QCURVE SMOOTH",
"1091 -291 OFFCURVE",
"809 -509 OFFCURVE",
"612 -509 QCURVE SMOOTH",
"416 -509 OFFCURVE",
"112 -298 OFFCURVE",
"112 -39 QCURVE",
"330 -37 LINE",
"330 -195 OFFCURVE",
"549 -297 OFFCURVE",
"612 -297 QCURVE SMOOTH",
"696 -297 OFFCURVE",
"873 -224 OFFCURVE",
"873 -131 QCURVE SMOOTH",
"873 -46 OFFCURVE",
"721 73 OFFCURVE",
"513 140 QCURVE SMOOTH",
"339 195 OFFCURVE",
"81 414 OFFCURVE",
"81 574 QCURVE SMOOTH",
"81 743 OFFCURVE",
"388 902 OFFCURVE",
"552 902 QCURVE"
);
}
);
width = 1270;
}
);
unicode = 00A7;
userData = {
com.typemytype.robofont.guideline.magnetic.9Hxjf2sdFw = 5;
com.typemytype.robofont.guideline.magnetic.QzZ5gIiCyn = 5;
};
},
{
glyphname = paragraph;
layers = (
{
guideLines = (
{
position = "{0, 901}";
},
{
position = "{0, 555}";
}
);
layerId = "7E98EC3E-25FF-427C-A5DF-023FB65530BC";
paths = (
{
closed = 1;
nodes = (
"643 -146 LINE",
"643 547 LINE",
"539 547 LINE SMOOTH",
"306 547 OFFCURVE",
"56 805 OFFCURVE",
"56 1002 QCURVE SMOOTH",
"56 1195 OFFCURVE",
"306 1456 OFFCURVE",
"539 1456 QCURVE SMOOTH",
"905 1456 LINE",
"905 -146 LINE"
);
},
{
closed = 1;
nodes = (
"1312 1459 LINE",
"1312 -146 LINE",
"1047 -146 LINE",
"1047 1459 LINE"
);
}
);
width = 1605;
}
);
unicode = 00B6;
userData = {
com.typemytype.robofont.guideline.magnetic.27539Lsr1A = 5;
com.typemytype.robofont.guideline.magnetic.e34wUdCmXR = 5;
};
},
{
glyphname = numero;
layers = (
{
layerId = "7E98EC3E-25FF-427C-A5DF-023FB65530BC";
paths = (
{
closed = 1;
nodes = (
"210 1456 LINE",
"475 1456 LINE",
"1066 545 LINE SMOOTH",
"1085 517 OFFCURVE",
"1132 461 OFFCURVE",
"1147 442 QCURVE",
"1162 442 LINE",
"1156 468 OFFCURVE",
"1153 545 OFFCURVE",
"1153 571 QCURVE SMOOTH",
"1153 1456 LINE",
"1406 1456 LINE",
"1406 0 LINE",
"1133 0 LINE",
"530 879 LINE SMOOTH",
"508 911 OFFCURVE",
"482 963 OFFCURVE",
"477 986 QCURVE",
"462 986 LINE",
"468 960 OFFCURVE",
"469 888 OFFCURVE",
"469 863 QCURVE SMOOTH",
"469 0 LINE",
"210 0 LINE"
);
},
{
closed = 1;
nodes = (
"1516 1015 LINE SMOOTH",
"1516 1212 OFFCURVE",
"1773 1473 OFFCURVE",
"1980 1473 QCURVE SMOOTH",
"2186 1473 OFFCURVE",
"2446 1212 OFFCURVE",
"2446 1015 QCURVE SMOOTH",
"2446 992 LINE SMOOTH",
"2446 797 OFFCURVE",
"2210 539 OFFCURVE",
"1980 539 QCURVE SMOOTH",
"1750 539 OFFCURVE",
"1516 797 OFFCURVE",
"1516 992 QCURVE SMOOTH"
);
},
{
closed = 1;
nodes = (
"1802 990 LINE SMOOTH",
"1802 893 OFFCURVE",
"1884 761 OFFCURVE",
"1981 761 QCURVE SMOOTH",
"2076 761 OFFCURVE",
"2160 893 OFFCURVE",
"2160 989 QCURVE SMOOTH",
"2160 1010 LINE SMOOTH",
"2160 1106 OFFCURVE",
"2074 1242 OFFCURVE",
"1981 1242 QCURVE SMOOTH",
"1886 1242 OFFCURVE",
"1802 1106 OFFCURVE",
"1802 1010 QCURVE SMOOTH"
);
},
{
closed = 1;
nodes = (
"1583 491 LINE",
"2376 491 LINE",
"2376 232 LINE",
"1583 232 LINE"
);
}
);
width = 2574;
}
);
unicode = 2116;
},
{
glyphname = periodcentered;
layers = (
{
layerId = "7E98EC3E-25FF-427C-A5DF-023FB65530BC";
paths = (
{
closed = 1;
nodes = (
"176 798 OFFCURVE",
"240 868 OFFCURVE",
"300 868 QCURVE SMOOTH",
"360 868 OFFCURVE",
"424 798 OFFCURVE",
"424 749 QCURVE SMOOTH",
"424 700 OFFCURVE",
"360 630 OFFCURVE",
"300 630 QCURVE SMOOTH",
"240 630 OFFCURVE",
"176 700 OFFCURVE",
"176 749 QCURVE SMOOTH"
);
}
);
width = 600;
}
);
unicode = 00B7;
},
{
glyphname = bullet;
layers = (
{
layerId = "7E98EC3E-25FF-427C-A5DF-023FB65530BC";
paths = (
{
closed = 1;
nodes = (
"28 936 OFFCURVE",
"256 1178 OFFCURVE",
"434 1178 QCURVE SMOOTH",
"612 1178 OFFCURVE",
"840 936 OFFCURVE",
"840 773 QCURVE SMOOTH",
"840 612 OFFCURVE",
"612 370 OFFCURVE",
"434 370 QCURVE SMOOTH",
"256 370 OFFCURVE",
"28 612 OFFCURVE",
"28 773 QCURVE SMOOTH"
);
}
);
width = 868;
}
);
unicode = 2022;
},
{
glyphname = minute;
layers = (
{
layerId = "7E98EC3E-25FF-427C-A5DF-023FB65530BC";
paths = (
{
closed = 1;
nodes = (
"395 1559 LINE",
"662 1411 LINE",
"293 846 LINE",
"100 964 LINE"
);
}
);
width = 694;
}
);
leftKerningGroup = minute;
rightKerningGroup = minute;
unicode = 2032;
},
{
glyphname = second;
layers = (
{
layerId = "7E98EC3E-25FF-427C-A5DF-023FB65530BC";
paths = (
{
closed = 1;
nodes = (
"395 1559 LINE",
"662 1411 LINE",
"293 846 LINE",
"100 964 LINE"
);
},
{
closed = 1;
nodes = (
"795 1559 LINE",
"1062 1411 LINE",
"693 846 LINE",
"500 964 LINE"
);
}
);
width = 1094;
}
);
leftKerningGroup = minute;
rightKerningGroup = minute;
unicode = 2033;
},
{
glyphname = plus;
layers = (
{
layerId = "7E98EC3E-25FF-427C-A5DF-023FB65530BC";
paths = (
{
closed = 1;
nodes = (
"87 953 LINE",
"1083 953 LINE",
"1054 455 LINE",
"58 455 LINE"
);
},
{
closed = 1;
nodes = (
"409 1210 LINE",
"905 1210 LINE",
"734 198 LINE",
"237 198 LINE"
);
}
);
width = 1104;
}
);
unicode = 002B;
},
{
glyphname = minus;
layers = (
{
layerId = "7E98EC3E-25FF-427C-A5DF-023FB65530BC";
paths = (
{
closed = 1;
nodes = (
"57 768 LINE",
"967 768 LINE",
"967 588 LINE",
"57 588 LINE"
);
}
);
width = 1024;
}
);
unicode = 2212;
},
{
glyphname = plusminus;
layers = (
{
layerId = "7E98EC3E-25FF-427C-A5DF-023FB65530BC";
paths = (
{
closed = 1;
nodes = (
"31 828 LINE",
"989 828 LINE",
"989 596 LINE",
"31 596 LINE"
);
},
{
closed = 1;
nodes = (
"384 1180 LINE",
"636 1180 LINE",
"636 288 LINE",
"384 288 LINE"
);
},
{
closed = 1;
nodes = (
"37 232 LINE",
"987 232 LINE",
"987 1 LINE",
"37 1 LINE"
);
}
);
width = 1024;
}
);
unicode = 00B1;
},
{
glyphname = divide;
layers = (
{
layerId = "7E98EC3E-25FF-427C-A5DF-023FB65530BC";
paths = (
{
closed = 1;
nodes = (
"271 1175 OFFCURVE",
"355 1267 OFFCURVE",
"438 1267 QCURVE SMOOTH",
"519 1267 OFFCURVE",
"606 1175 OFFCURVE",
"606 1105 QCURVE SMOOTH",
"606 1037 OFFCURVE",
"519 946 OFFCURVE",
"438 946 QCURVE SMOOTH",
"355 946 OFFCURVE",
"271 1037 OFFCURVE",
"271 1105 QCURVE SMOOTH"
);
},
{
closed = 1;
nodes = (
"271 324 OFFCURVE",
"355 418 OFFCURVE",
"438 418 QCURVE SMOOTH",
"519 418 OFFCURVE",
"606 324 OFFCURVE",
"606 256 QCURVE SMOOTH",
"606 188 OFFCURVE",
"519 95 OFFCURVE",
"438 95 QCURVE SMOOTH",
"355 95 OFFCURVE",
"271 188 OFFCURVE",
"271 256 QCURVE SMOOTH"
);
},
{
closed = 1;
nodes = (
"-40 814 LINE",
"918 814 LINE",
"918 550 LINE",
"-40 550 LINE"
);
}
);
width = 878;
}
);
unicode = 00F7;
},
{
glyphname = multiply;
layers = (
{
layerId = "7E98EC3E-25FF-427C-A5DF-023FB65530BC";
paths = (
{
closed = 1;
nodes = (
"22 321 LINE",
"839 1172 LINE",
"980 1021 LINE",
"163 172 LINE"
);
},
{
closed = 1;
nodes = (
"28 999 LINE",
"191 1172 LINE",
"986 343 LINE",
"823 172 LINE"
);
}
);
width = 1024;
}
);
unicode = 00D7;
},
{
glyphname = equal;
layers = (
{
layerId = "7E98EC3E-25FF-427C-A5DF-023FB65530BC";
paths = (
{
closed = 1;
nodes = (
"51 655 LINE",
"1047 655 LINE",
"1017 165 LINE",
"21 165 LINE"
);
},
{
closed = 1;
nodes = (
"121 1231 LINE",
"1117 1231 LINE",
"1087 741 LINE",
"91 741 LINE"
);
}
);
width = 1104;
}
);
unicode = 003D;
},
{
glyphname = less;
layers = (
{
layerId = "7E98EC3E-25FF-427C-A5DF-023FB65530BC";
paths = (
{
closed = 1;
nodes = (
"54 439 LINE",
"79 909 LINE",
"972 1329 LINE",
"938 821 LINE",
"513 674 LINE",
"849 537 LINE",
"813 29 LINE"
);
}
);
width = 925;
}
);
unicode = 003C;
},
{
glyphname = greater;
layers = (
{
layerId = "7E98EC3E-25FF-427C-A5DF-023FB65530BC";
paths = (
{
closed = 1;
nodes = (
"23 537 LINE",
"449 684 LINE",
"112 821 LINE",
"148 1329 LINE",
"907 919 LINE",
"882 449 LINE",
"-11 29 LINE"
);
}
);
width = 926;
}
);
unicode = 003E;
},
{
glyphname = lessequal;
layers = (
{
layerId = "7E98EC3E-25FF-427C-A5DF-023FB65530BC";
paths = (
{
closed = 1;
nodes = (
"25 572 LINE",
"25 776 LINE",
"860 1088 LINE",
"860 801 LINE",
"357 684 LINE",
"860 567 LINE",
"860 260 LINE"
);
},
{
closed = 1;
nodes = (
"-16 242 LINE",
"914 242 LINE",
"914 1 LINE",
"-16 1 LINE"
);
}
);
width = 909;
}
);
unicode = 2264;
},
{
glyphname = greaterequal;
layers = (
{
layerId = "7E98EC3E-25FF-427C-A5DF-023FB65530BC";
paths = (
{
closed = 1;
nodes = (
"49 567 LINE",
"552 684 LINE",
"49 801 LINE",
"49 1088 LINE",
"884 776 LINE",
"884 572 LINE",
"49 260 LINE"
);
},
{
closed = 1;
nodes = (
"-6 1 LINE",
"-6 242 LINE",
"924 242 LINE",
"924 1 LINE"
);
}
);
width = 909;
}
);
unicode = 2265;
},
{
glyphname = approxequal;
layers = (
{
layerId = "7E98EC3E-25FF-427C-A5DF-023FB65530BC";
paths = (
{
closed = 1;
nodes = (
"46 936 LINE",
"93 987 OFFCURVE",
"225 1045 OFFCURVE",
"290 1046 QCURVE SMOOTH",
"369 1047 OFFCURVE",
"461 1004 OFFCURVE",
"524 973 QCURVE SMOOTH",
"583 943 OFFCURVE",
"668 903 OFFCURVE",
"742 903 QCURVE SMOOTH",
"807 903 OFFCURVE",
"932 971 OFFCURVE",
"979 1031 QCURVE",
"979 762 LINE",
"932 711 OFFCURVE",
"808 653 OFFCURVE",
"743 653 QCURVE SMOOTH",
"669 653 OFFCURVE",
"584 692 OFFCURVE",
"525 722 QCURVE SMOOTH",
"462 753 OFFCURVE",
"369 795 OFFCURVE",
"290 795 QCURVE SMOOTH",
"225 795 OFFCURVE",
"93 727 OFFCURVE",
"46 667 QCURVE"
);
},
{
closed = 1;
nodes = (
"45 519 LINE",
"92 570 OFFCURVE",
"224 627 OFFCURVE",
"289 628 QCURVE SMOOTH",
"368 629 OFFCURVE",
"460 586 OFFCURVE",
"523 555 QCURVE SMOOTH",
"582 525 OFFCURVE",
"667 486 OFFCURVE",
"741 486 QCURVE SMOOTH",
"806 486 OFFCURVE",
"931 554 OFFCURVE",
"978 614 QCURVE",
"978 344 LINE",
"931 293 OFFCURVE",
"807 235 OFFCURVE",
"742 235 QCURVE SMOOTH",
"668 235 OFFCURVE",
"583 274 OFFCURVE",
"524 304 QCURVE SMOOTH",
"461 335 OFFCURVE",
"368 377 OFFCURVE",
"289 377 QCURVE SMOOTH",
"224 377 OFFCURVE",
"92 310 OFFCURVE",
"45 250 QCURVE"
);
}
);
width = 1024;
}
);
unicode = 2248;
},
{
glyphname = notequal;
layers = (
{
layerId = "7E98EC3E-25FF-427C-A5DF-023FB65530BC";
paths = (
{
closed = 1;
nodes = (
"689 861 LINE",
"652 832 LINE",
"438 461 LINE",
"444 437 LINE",
"210 31 LINE",
"5 151 LINE",
"175 447 LINE",
"208 469 LINE",
"415 828 LINE",
"416 864 LINE",
"689 1344 LINE",
"894 1224 LINE"
);
},
{
closed = 1;
nodes = (
"-84 582 LINE",
"994 582 LINE",
"994 327 LINE",
"-84 327 LINE"
);
},
{
closed = 1;
nodes = (
"-84 977 LINE",
"994 977 LINE",
"994 722 LINE",
"-84 722 LINE"
);
}
);
width = 912;
}
);
unicode = 2260;
},
{
glyphname = logicalnot;
layers = (
{
layerId = "7E98EC3E-25FF-427C-A5DF-023FB65530BC";
paths = (
{
closed = 1;
nodes = (
"1051 376 LINE",
"790 376 LINE",
"790 630 LINE",
"58 630 LINE",
"58 861 LINE",
"1051 861 LINE"
);
}
);
width = 1024;
}
);
unicode = 00AC;
},
{
glyphname = commercialMinusSign;
layers = (
{
layerId = "7E98EC3E-25FF-427C-A5DF-023FB65530BC";
paths = (
{
closed = 1;
nodes = (
"647 1501 LINE",
"882 1441 LINE",
"297 -62 LINE",
"62 -2 LINE"
);
},
{
closed = 1;
nodes = (
"516 293 OFFCURVE",
"639 424 OFFCURVE",
"735 424 QCURVE SMOOTH",
"831 424 OFFCURVE",
"954 293 OFFCURVE",
"954 205 QCURVE SMOOTH",
"954 118 OFFCURVE",
"831 -13 OFFCURVE",
"735 -13 QCURVE SMOOTH",
"639 -13 OFFCURVE",
"516 118 OFFCURVE",
"516 205 QCURVE SMOOTH"
);
},
{
closed = 1;
nodes = (
"4 1335 OFFCURVE",
"127 1466 OFFCURVE",
"223 1466 QCURVE SMOOTH",
"319 1466 OFFCURVE",
"442 1335 OFFCURVE",
"442 1247 QCURVE SMOOTH",
"442 1160 OFFCURVE",
"319 1029 OFFCURVE",
"223 1029 QCURVE SMOOTH",
"127 1029 OFFCURVE",
"4 1160 OFFCURVE",
"4 1247 QCURVE SMOOTH"
);
}
);
width = 972;
}
);
unicode = 2052;
},
{
glyphname = divisionslash;
layers = (
{
layerId = "7E98EC3E-25FF-427C-A5DF-023FB65530BC";
paths = (
{
closed = 1;
nodes = (
"554 1555 LINE",
"734 1500 LINE",
"118 -173 LINE",
"-62 -118 LINE"
);
}
);
width = 695;
}
);
unicode = 2215;
},
{
glyphname = bulletoperator;
layers = (
{
layerId = "7E98EC3E-25FF-427C-A5DF-023FB65530BC";
paths = (
{
closed = 1;
nodes = (
"436 746 OFFCURVE",
"537 853 OFFCURVE",
"615 853 QCURVE SMOOTH",
"693 853 OFFCURVE",
"794 746 OFFCURVE",
"794 674 QCURVE SMOOTH",
"794 603 OFFCURVE",
"693 496 OFFCURVE",
"615 496 QCURVE SMOOTH",
"537 496 OFFCURVE",
"436 603 OFFCURVE",
"436 674 QCURVE SMOOTH"
);
}
);
width = 1230;
}
);
unicode = 2219;
},
{
glyphname = dollar;
layers = (
{
layerId = "7E98EC3E-25FF-427C-A5DF-023FB65530BC";
paths = (
{
closed = 1;
nodes = (
"2 484 LINE",
"530 484 LINE",
"527 449 LINE SMOOTH",
"523 397 OFFCURVE",
"631 350 OFFCURVE",
"725 350 QCURVE SMOOTH",
"821 350 OFFCURVE",
"952 378 OFFCURVE",
"959 413 QCURVE SMOOTH",
"965 445 OFFCURVE",
"913 475 OFFCURVE",
"670 528 QCURVE SMOOTH",
"365 594 OFFCURVE",
"118 836 OFFCURVE",
"146 1052 QCURVE SMOOTH",
"173 1262 OFFCURVE",
"601 1474 OFFCURVE",
"928 1474 QCURVE SMOOTH",
"1259 1474 OFFCURVE",
"1607 1275 OFFCURVE",
"1595 1085 QCURVE SMOOTH",
"1590 1005 LINE",
"1072 1005 LINE",
"1072 1018 LINE SMOOTH",
"1072 1054 OFFCURVE",
"987 1090 OFFCURVE",
"875 1090 QCURVE SMOOTH",
"754 1090 OFFCURVE",
"691 1076 OFFCURVE",
"688 1053 QCURVE SMOOTH",
"685 1030 OFFCURVE",
"746 1007 OFFCURVE",
"1014 953 QCURVE SMOOTH",
"1274 901 OFFCURVE",
"1530 669 OFFCURVE",
"1502 449 QCURVE SMOOTH",
"1473 221 OFFCURVE",
"1037 -20 OFFCURVE",
"701 -20 QCURVE SMOOTH",
"363 -20 OFFCURVE",
"-10 183 OFFCURVE",
"-2 387 QCURVE SMOOTH"
);
},
{
closed = 1;
nodes = (
"632 760 LINE",
"1053 760 LINE",
"942 99 LINE",
"944 89 LINE",
"901 -151 LINE",
"432 -151 LINE"
);
},
{
closed = 1;
nodes = (
"717 1356 LINE",
"714 1366 LINE",
"748 1606 LINE",
"1217 1606 LINE",
"1041 760 LINE",
"611 760 LINE"
);
}
);
width = 1589;
}
);
unicode = 0024;
},
{
glyphname = cent;
layers = (
{
layerId = "7E98EC3E-25FF-427C-A5DF-023FB65530BC";
paths = (
{
closed = 1;
nodes = (
"726 336 OFFCURVE",
"896 425 OFFCURVE",
"910 443 QCURVE",
"1155 443 LINE",
"1139 345 OFFCURVE",
"818 130 OFFCURVE",
"647 130 QCURVE SMOOTH",
"340 130 OFFCURVE",
"74 487 OFFCURVE",
"74 667 QCURVE SMOOTH",
"74 714 LINE SMOOTH",
"74 890 OFFCURVE",
"340 1252 OFFCURVE",
"647 1252 QCURVE SMOOTH",
"850 1252 OFFCURVE",
"1143 1011 OFFCURVE",
"1157 857 QCURVE",
"914 857 LINE",
"900 908 OFFCURVE",
"749 1047 OFFCURVE",
"645 1047 QCURVE SMOOTH",
"439 1047 OFFCURVE",
"336 774 OFFCURVE",
"336 714 QCURVE SMOOTH",
"336 667 LINE SMOOTH",
"336 584 OFFCURVE",
"438 336 OFFCURVE",
"647 336 QCURVE SMOOTH"
);
},
{
closed = 1;
nodes = (
"549 287 LINE",
"559 301 LINE",
"559 708 LINE",
"729 708 LINE",
"729 300 LINE",
"739 290 LINE",
"739 0 LINE",
"549 0 LINE"
);
},
{
closed = 1;
nodes = (
"559 1182 LINE",
"549 1192 LINE",
"549 1402 LINE",
"739 1402 LINE",
"739 1192 LINE",
"729 1179 LINE",
"729 708 LINE",
"559 708 LINE"
);
}
);
width = 1214;
}
);
unicode = 00A2;
},
{
glyphname = sterling;
layers = (
{
layerId = "7E98EC3E-25FF-427C-A5DF-023FB65530BC";
paths = (
{
closed = 1;
nodes = (
"36 0 LINE",
"36 222 LINE",
"101 222 LINE SMOOTH",
"207 222 OFFCURVE",
"280 324 OFFCURVE",
"264 467 QCURVE SMOOTH",
"200 1039 LINE SMOOTH",
"181 1206 OFFCURVE",
"429 1476 OFFCURVE",
"667 1476 QCURVE SMOOTH",
"884 1476 OFFCURVE",
"1135 1257 OFFCURVE",
"1135 1103 QCURVE SMOOTH",
"1135 1087 LINE",
"861 1087 LINE",
"861 1103 LINE SMOOTH",
"847 1201 OFFCURVE",
"744 1240 OFFCURVE",
"669 1240 QCURVE SMOOTH",
"586 1240 OFFCURVE",
"455 1168 OFFCURVE",
"468 1039 QCURVE SMOOTH",
"527 458 LINE SMOOTH",
"538 356 OFFCURVE",
"488 262 OFFCURVE",
"417 228 QCURVE",
"1185 228 LINE",
"1185 0 LINE"
);
},
{
closed = 1;
nodes = (
"55 575 LINE",
"55 787 LINE",
"948 787 LINE",
"948 575 LINE"
);
}
);
width = 1157;
}
);
unicode = 00A3;
},
{
glyphname = currency;
layers = (
{
guideLines = (
{
position = "{0, 901}";
},
{
position = "{0, 555}";
}
);
layerId = "7E98EC3E-25FF-427C-A5DF-023FB65530BC";
paths = (
{
closed = 1;
nodes = (
"218 544 OFFCURVE",
"432 319 OFFCURVE",
"575 319 QCURVE SMOOTH",
"717 319 OFFCURVE",
"931 544 OFFCURVE",
"931 708 QCURVE SMOOTH",
"931 868 OFFCURVE",
"717 1094 OFFCURVE",
"575 1094 QCURVE SMOOTH",
"432 1094 OFFCURVE",
"218 868 OFFCURVE",
"218 708 QCURVE"
);
},
{
closed = 1;
nodes = (
"-42 979 OFFCURVE",
"328 1346 OFFCURVE",
"574 1346 QCURVE SMOOTH",
"820 1346 OFFCURVE",
"1191 979 OFFCURVE",
"1191 715 QCURVE SMOOTH",
"1191 452 OFFCURVE",
"820 91 OFFCURVE",
"574 91 QCURVE SMOOTH",
"328 91 OFFCURVE",
"-42 457 OFFCURVE",
"-42 715 QCURVE"
);
},
{
closed = 1;
nodes = (
"991 1012 LINE",
"829 1181 LINE",
"1071 1429 LINE",
"1234 1260 LINE"
);
},
{
closed = 1;
nodes = (
"51 21 LINE",
"-110 189 LINE",
"132 436 LINE",
"293 269 LINE"
);
},
{
closed = 1;
nodes = (
"862 278 LINE",
"1026 446 LINE",
"1268 198 LINE",
"1105 29 LINE"
);
},
{
closed = 1;
nodes = (
"-88 1277 LINE",
"73 1446 LINE",
"316 1198 LINE",
"155 1029 LINE"
);
}
);
width = 1158;
}
);
unicode = 00A4;
userData = {
com.typemytype.robofont.guideline.magnetic.917FhrihjR = 5;
com.typemytype.robofont.guideline.magnetic.bRYxxRaQQf = 5;
};
},
{
glyphname = yen;
layers = (
{
layerId = "7E98EC3E-25FF-427C-A5DF-023FB65530BC";
paths = (
{
closed = 1;
nodes = (
"59 500 LINE",
"1005 500 LINE",
"1005 279 LINE",
"59 279 LINE"
);
},
{
closed = 1;
nodes = (
"59 852 LINE",
"425 852 LINE",
"478 730 LINE",
"587 730 LINE",
"635 852 LINE",
"1005 852 LINE",
"1005 641 LINE",
"59 641 LINE"
);
},
{
closed = 1;
nodes = (
"399 548 LINE",
"-56 1456 LINE",
"243 1456 LINE",
"466 910 LINE SMOOTH",
"479 880 OFFCURVE",
"513 777 OFFCURVE",
"520 740 QCURVE",
"540 740 LINE",
"549 796 OFFCURVE",
"581 880 OFFCURVE",
"594 910 QCURVE SMOOTH",
"822 1456 LINE",
"1112 1456 LINE",
"657 548 LINE",
"657 0 LINE",
"399 0 LINE"
);
}
);
width = 1056;
}
);
unicode = 00A5;
},
{
glyphname = coloncurrency;
layers = (
{
guideLines = (
{
position = "{0, 1570}";
}
);
layerId = "7E98EC3E-25FF-427C-A5DF-023FB65530BC";
paths = (
{
closed = 1;
nodes = (
"1009 1324 LINE",
"986 1301 LINE",
"814 68 LINE",
"830 43 LINE",
"806 -125 LINE",
"575 -125 LINE",
"598 40 LINE",
"622 66 LINE",
"807 1361 LINE",
"790 1381 LINE",
"818 1570 LINE",
"1048 1570 LINE"
);
},
{
closed = 1;
nodes = (
"720 1395 LINE",
"697 1374 LINE",
"510 66 LINE",
"526 39 LINE",
"503 -125 LINE",
"272 -125 LINE",
"307 122 LINE",
"331 148 LINE",
"507 1376 LINE",
"490 1399 LINE",
"515 1570 LINE",
"745 1570 LINE"
);
},
{
closed = 1;
nodes = (
"84 921 LINE SMOOTH",
"84 1167 OFFCURVE",
"407 1496 OFFCURVE",
"655 1496 QCURVE SMOOTH",
"904 1496 OFFCURVE",
"1209 1232 OFFCURVE",
"1209 1066 QCURVE SMOOTH",
"1209 996 LINE",
"958 996 LINE",
"958 1068 LINE SMOOTH",
"958 1127 OFFCURVE",
"812 1287 OFFCURVE",
"655 1287 QCURVE SMOOTH",
"518 1287 OFFCURVE",
"344 1091 OFFCURVE",
"344 921 QCURVE SMOOTH",
"344 495 LINE SMOOTH",
"344 358 OFFCURVE",
"529 148 OFFCURVE",
"669 148 QCURVE SMOOTH",
"832 148 OFFCURVE",
"968 327 OFFCURVE",
"968 382 QCURVE SMOOTH",
"968 460 LINE",
"1229 460 LINE",
"1229 420 LINE SMOOTH",
"1229 258 OFFCURVE",
"921 -41 OFFCURVE",
"677 -41 QCURVE SMOOTH",
"440 -41 OFFCURVE",
"84 294 OFFCURVE",
"84 535 QCURVE SMOOTH"
);
}
);
width = 1223;
}
);
unicode = 20A1;
userData = {
com.typemytype.robofont.guideline.magnetic.0DwZ2nfhdf = 5;
};
},
{
glyphname = franc;
layers = (
{
layerId = "7E98EC3E-25FF-427C-A5DF-023FB65530BC";
paths = (
{
closed = 1;
nodes = (
"230 1456 LINE",
"1221 1456 LINE",
"1221 1239 LINE",
"504 1239 LINE",
"504 891 LINE",
"1108 891 LINE",
"1108 673 LINE",
"504 673 LINE",
"504 0 LINE",
"230 0 LINE"
);
},
{
closed = 1;
nodes = (
"20 516 LINE",
"925 516 LINE",
"925 296 LINE",
"20 296 LINE"
);
}
);
width = 1251;
}
);
unicode = 20A3;
},
{
glyphname = lira;
layers = (
{
layerId = "7E98EC3E-25FF-427C-A5DF-023FB65530BC";
paths = (
{
closed = 1;
nodes = (
"36 0 LINE",
"36 222 LINE",
"101 222 LINE SMOOTH",
"207 222 OFFCURVE",
"286 324 OFFCURVE",
"270 467 QCURVE SMOOTH",
"206 1039 LINE SMOOTH",
"187 1206 OFFCURVE",
"429 1476 OFFCURVE",
"667 1476 QCURVE SMOOTH",
"884 1476 OFFCURVE",
"1135 1257 OFFCURVE",
"1135 1103 QCURVE SMOOTH",
"1135 1087 LINE",
"861 1087 LINE",
"861 1103 LINE SMOOTH",
"847 1201 OFFCURVE",
"744 1260 OFFCURVE",
"669 1260 QCURVE SMOOTH",
"576 1260 OFFCURVE",
"453 1122 OFFCURVE",
"462 1039 QCURVE SMOOTH",
"521 458 LINE SMOOTH",
"532 356 OFFCURVE",
"488 262 OFFCURVE",
"417 228 QCURVE",
"1185 228 LINE",
"1185 0 LINE"
);
},
{
closed = 1;
nodes = (
"35 395 LINE",
"35 587 LINE",
"908 587 LINE",
"908 395 LINE"
);
},
{
closed = 1;
nodes = (
"35 755 LINE",
"35 947 LINE",
"908 947 LINE",
"908 755 LINE"
);
}
);
width = 1157;
}
);
unicode = 20A4;
},
{
glyphname = naira;
layers = (
{
layerId = "7E98EC3E-25FF-427C-A5DF-023FB65530BC";
paths = (
{
closed = 1;
nodes = (
"-21 1009 LINE",
"210 1009 LINE",
"210 994 LINE",
"907 994 LINE",
"907 1009 LINE",
"1148 1011 LINE",
"1148 832 LINE",
"907 830 LINE",
"907 838 LINE",
"210 838 LINE",
"210 830 LINE",
"-21 830 LINE"
);
},
{
closed = 1;
nodes = (
"-21 697 LINE",
"210 697 LINE",
"210 689 LINE",
"907 689 LINE",
"907 697 LINE",
"1148 699 LINE",
"1148 520 LINE",
"907 518 LINE",
"907 533 LINE",
"210 533 LINE",
"210 518 LINE",
"-21 518 LINE"
);
},
{
closed = 1;
nodes = (
"1035 0 LINE",
"774 0 LINE",
"303 1142 LINE",
"281 1253 LINE",
"269 1253 LINE",
"282 1125 LINE",
"282 0 LINE",
"83 0 LINE",
"83 1456 LINE",
"349 1456 LINE",
"803 347 LINE",
"832 227 LINE",
"846 230 LINE",
"836 351 LINE",
"836 1456 LINE",
"1035 1456 LINE"
);
}
);
width = 1024;
}
);
unicode = 20A6;
},
{
glyphname = peseta;
layers = (
{
layerId = "7E98EC3E-25FF-427C-A5DF-023FB65530BC";
paths = (
{
closed = 1;
nodes = (
"436 528 LINE",
"436 733 LINE",
"586 733 LINE",
"770.269 733 OFFCURVE",
"848 904.104 OFFCURVE",
"848 989 QCURVE",
"848 1075.881 OFFCURVE",
"770.269 1252 OFFCURVE",
"586 1251 QCURVE",
"464 1251 LINE",
"464 0 LINE",
"204 0 LINE",
"204 1456 LINE",
"586 1456 LINE",
"874.537 1456 OFFCURVE",
"1109 1187.09 OFFCURVE",
"1109 992 QCURVE",
"1109 795.418 OFFCURVE",
"874.537 528 OFFCURVE",
"586 528 QCURVE"
);
},
{
closed = 1;
nodes = (
"1699 864 LINE",
"1077 864 LINE",
"1077 1050 LINE",
"1699 1050 LINE"
);
},
{
closed = 1;
nodes = (
"1481 1345 LINE",
"1481 284 LINE",
"1481 229.328 OFFCURVE",
"1565.463 200 OFFCURVE",
"1593 200 QCURVE SMOOTH",
"1616.269 200 OFFCURVE",
"1712 196 OFFCURVE",
"1810 230 QCURVE",
"1810 27 LINE",
"1730 -2 OFFCURVE",
"1568.015 -20 OFFCURVE",
"1504 -20 QCURVE SMOOTH",
"1399.522 -20 OFFCURVE",
"1218 118.119 OFFCURVE",
"1218 286 QCURVE",
"1218 1345 LINE"
);
}
);
width = 1934;
}
);
unicode = 20A7;
},
{
glyphname = won;
layers = (
{
layerId = "7E98EC3E-25FF-427C-A5DF-023FB65530BC";
paths = (
{
closed = 1;
nodes = (
"48 1037 LINE",
"398 1037 LINE",
"398 1022 LINE",
"1557 1022 LINE",
"1557 1037 LINE",
"1863 1039 LINE",
"1863 864 LINE",
"1557 862 LINE",
"1557 870 LINE",
"398 870 LINE",
"398 862 LINE",
"48 862 LINE"
);
},
{
closed = 1;
nodes = (
"79 675 LINE",
"489 675 LINE",
"489 667 LINE",
"1478 667 LINE",
"1478 675 LINE",
"1824 677 LINE",
"1824 507 LINE",
"1478 505 LINE",
"1478 515 LINE",
"489 515 LINE",
"489 500 LINE",
"79 500 LINE"
);
},
{
closed = 1;
nodes = (
"115 1456 LINE",
"351 1456 LINE",
"573 494 LINE",
"591 366 LINE",
"597 366 LINE",
"615 494 LINE SMOOTH",
"809 1456 LINE",
"1111 1456 LINE",
"1332 493 LINE",
"1350 365 LINE",
"1356 365 LINE",
"1374 493 LINE SMOOTH",
"1570 1456 LINE",
"1782 1456 LINE",
"1464 -10 LINE",
"1233 -10 LINE",
"987 1100 LINE",
"966 1228 LINE",
"960 1228 LINE",
"939 1100 LINE SMOOTH",
"713 -10 LINE",
"473 -10 LINE"
);
}
);
width = 1911;
}
);
unicode = 20A9;
},
{
glyphname = dong;
layers = (
{
layerId = "7E98EC3E-25FF-427C-A5DF-023FB65530BC";
paths = (
{
closed = 1;
nodes = (
"-26 520 LINE SMOOTH",
"-26 764 OFFCURVE",
"213 1070 OFFCURVE",
"404 1070 QCURVE SMOOTH",
"521 1070 OFFCURVE",
"666 1004 OFFCURVE",
"720 946 QCURVE",
"720 1485 LINE",
"965 1485 LINE",
"965 0 LINE",
"751 0 LINE",
"736 141 LINE",
"725 141 LINE",
"685 74 OFFCURVE",
"522 -20 OFFCURVE",
"442 -20 QCURVE SMOOTH",
"218 -20 OFFCURVE",
"-26 270 OFFCURVE",
"-26 528 QCURVE SMOOTH"
);
},
{
closed = 1;
nodes = (
"244 348 OFFCURVE",
"347 186 OFFCURVE",
"442 186 QCURVE SMOOTH",
"565 186 OFFCURVE",
"688 299 OFFCURVE",
"720 370 QCURVE",
"720 706 LINE",
"687 778 OFFCURVE",
"565 865 OFFCURVE",
"462 865 QCURVE SMOOTH",
"348 865 OFFCURVE",
"244 721 OFFCURVE",
"244 520 QCURVE SMOOTH",
"244 528 LINE SMOOTH"
);
},
{
closed = 1;
nodes = (
"325 1156 LINE",
"325 1353 LINE",
"1061 1353 LINE",
"1061 1156 LINE"
);
},
{
closed = 1;
nodes = (
"67 -307 LINE",
"67 -128 LINE",
"1011 -128 LINE",
"1011 -307 LINE"
);
}
);
width = 1111;
}
);
unicode = 20AB;
},
{
glyphname = Euro;
layers = (
{
layerId = "7E98EC3E-25FF-427C-A5DF-023FB65530BC";
paths = (
{
closed = 1;
nodes = (
"906 804 LINE",
"22 804 LINE",
"22 1027 LINE",
"903 1027 LINE"
);
},
{
closed = 1;
nodes = (
"906 459 LINE",
"22 459 LINE",
"22 681 LINE",
"906 681 LINE"
);
},
{
closed = 1;
nodes = (
"233 903 LINE SMOOTH",
"233 1275 OFFCURVE",
"575 1484 OFFCURVE",
"729 1484 QCURVE SMOOTH",
"923 1484 OFFCURVE",
"1068 1388 OFFCURVE",
"1117 1337 QCURVE",
"954 1145 LINE",
"943 1156 OFFCURVE",
"859 1226 OFFCURVE",
"755 1226 QCURVE SMOOTH",
"684 1226 OFFCURVE",
"481 1125 OFFCURVE",
"481 906 QCURVE SMOOTH",
"481 541 LINE SMOOTH",
"481 333 OFFCURVE",
"708 223 OFFCURVE",
"793 223 QCURVE SMOOTH",
"892 223 OFFCURVE",
"972 289 OFFCURVE",
"982 296 QCURVE",
"1130 126 LINE",
"1093 72 OFFCURVE",
"934 -30 OFFCURVE",
"730 -30 QCURVE SMOOTH",
"598 -30 OFFCURVE",
"233 243 OFFCURVE",
"233 544 QCURVE SMOOTH"
);
}
);
width = 1062;
}
);
unicode = 20AC;
},
{
glyphname = florin;
layers = (
{
layerId = "7E98EC3E-25FF-427C-A5DF-023FB65530BC";
paths = (
{
closed = 1;
nodes = (
"1061 717 LINE",
"639 717 LINE",
"639 111 LINE SMOOTH",
"639 -193 OFFCURVE",
"413 -437 OFFCURVE",
"93 -437 QCURVE SMOOTH",
"62 -437 OFFCURVE",
"9 -430 OFFCURVE",
"-19 -420 QCURVE",
"-5 -215 LINE",
"10 -221 OFFCURVE",
"79 -228 OFFCURVE",
"93 -228 QCURVE SMOOTH",
"214 -228 OFFCURVE",
"376 -122 OFFCURVE",
"376 111 QCURVE SMOOTH",
"376 717 LINE",
"61 717 LINE",
"61 903 LINE",
"376 903 LINE",
"376 1130 LINE SMOOTH",
"376 1305 OFFCURVE",
"584 1496 OFFCURVE",
"764 1496 QCURVE SMOOTH",
"883 1496 OFFCURVE",
"1049 1417 OFFCURVE",
"1079 1387 QCURVE",
"965 1182 LINE",
"917 1221 OFFCURVE",
"817 1260 OFFCURVE",
"769 1260 QCURVE SMOOTH",
"717 1260 OFFCURVE",
"639 1187 OFFCURVE",
"639 1130 QCURVE SMOOTH",
"639 903 LINE",
"1061 903 LINE"
);
}
);
width = 1117;
}
);
unicode = 0192;
},
{
glyphname = uni20AD;
layers = (
{
layerId = "7E98EC3E-25FF-427C-A5DF-023FB65530BC";
paths = (
{
closed = 1;
nodes = (
"130 1456 LINE",
"317 1456 LINE",
"317 769 LINE",
"835 1456 LINE",
"1037 1456 LINE",
"317 500 LINE",
"317 0 LINE",
"130 0 LINE"
);
},
{
closed = 1;
nodes = (
"441 756 LINE",
"557 901 LINE",
"1061 0 LINE",
"845 0 LINE"
);
},
{
closed = 1;
nodes = (
"-9 661 LINE",
"-9 809 LINE",
"267 809 LINE",
"267 661 LINE"
);
},
{
closed = 1;
nodes = (
"1021 661 LINE",
"590 661 LINE",
"590 809 LINE",
"1021 809 LINE"
);
}
);
width = 1024;
}
);
unicode = 20AD;
},
{
glyphname = uni20B1;
layers = (
{
layerId = "7E98EC3E-25FF-427C-A5DF-023FB65530BC";
paths = (
{
closed = 1;
nodes = (
"188 420 LINE",
"188 633 LINE",
"430 633 LINE SMOOTH",
"597 633 OFFCURVE",
"670 780 OFFCURVE",
"670 951 QCURVE SMOOTH",
"670 1123 OFFCURVE",
"597 1243 OFFCURVE",
"430 1243 QCURVE SMOOTH",
"314 1243 LINE",
"314 0 LINE",
"48 0 LINE",
"48 1456 LINE",
"436 1456 LINE SMOOTH",
"712 1456 OFFCURVE",
"931 1217 OFFCURVE",
"931 970 QCURVE SMOOTH",
"931 754 OFFCURVE",
"710 420 OFFCURVE",
"434 420 QCURVE SMOOTH"
);
},
{
closed = 1;
nodes = (
"-1 1178 LINE",
"201 1178 LINE",
"201 1133 LINE",
"817 1133 LINE",
"817 1178 LINE",
"1069 1180 LINE",
"1069 972 LINE",
"857 970 LINE",
"857 995 LINE",
"201 995 LINE",
"201 970 LINE",
"-1 970 LINE"
);
},
{
closed = 1;
nodes = (
"-1 898 LINE",
"201 898 LINE",
"201 873 LINE",
"857 873 LINE",
"857 898 LINE",
"1069 900 LINE",
"1069 692 LINE",
"777 690 LINE",
"777 734 LINE",
"201 734 LINE",
"201 690 LINE",
"-1 690 LINE"
);
}
);
width = 1064;
}
);
unicode = 20B1;
},
{
glyphname = uni20B2;
layers = (
{
layerId = "7E98EC3E-25FF-427C-A5DF-023FB65530BC";
paths = (
{
closed = 1;
nodes = (
"450 57 LINE",
"485 71 LINE",
"485 708 LINE",
"639 708 LINE",
"639 70 LINE",
"682 60 LINE",
"682 -190 LINE",
"450 -190 LINE"
);
},
{
closed = 1;
nodes = (
"485 1252 LINE",
"456 1262 LINE",
"456 1582 LINE",
"668 1582 LINE",
"668 1262 LINE",
"639 1249 LINE",
"639 708 LINE",
"485 708 LINE"
);
},
{
closed = 1;
nodes = (
"1063 452 LINE SMOOTH",
"1063 286 OFFCURVE",
"765 -5 OFFCURVE",
"571 -5 QCURVE SMOOTH",
"316 -5 OFFCURVE",
"5 298 OFFCURVE",
"5 542 QCURVE SMOOTH",
"5 897 LINE SMOOTH",
"5 1212 OFFCURVE",
"327 1485 OFFCURVE",
"549 1485 QCURVE SMOOTH",
"790 1485 OFFCURVE",
"1027 1297 OFFCURVE",
"1060 1242 QCURVE",
"896 1043 LINE",
"847 1109 OFFCURVE",
"712 1232 OFFCURVE",
"563 1232 QCURVE SMOOTH",
"423 1232 OFFCURVE",
"283 1090 OFFCURVE",
"283 899 QCURVE SMOOTH",
"283 544 LINE SMOOTH",
"283 391 OFFCURVE",
"428 191 OFFCURVE",
"589 191 QCURVE SMOOTH",
"650 191 OFFCURVE",
"830 329 OFFCURVE",
"829 433 QCURVE SMOOTH",
"829 510 LINE",
"702 510 LINE",
"702 725 LINE",
"1063 725 LINE"
);
}
);
width = 1062;
}
);
unicode = 20B2;
},
{
glyphname = uni20B5;
layers = (
{
guideLines = (
{
position = "{0, -125}";
}
);
layerId = "7E98EC3E-25FF-427C-A5DF-023FB65530BC";
paths = (
{
closed = 1;
nodes = (
"438 37 LINE",
"463 51 LINE",
"463 708 LINE",
"647 708 LINE",
"647 50 LINE",
"670 40 LINE",
"670 -190 LINE",
"438 -190 LINE"
);
},
{
closed = 1;
nodes = (
"463 1304 LINE",
"444 1314 LINE",
"444 1582 LINE",
"656 1582 LINE",
"656 1314 LINE",
"647 1301 LINE",
"647 708 LINE",
"463 708 LINE"
);
},
{
closed = 1;
nodes = (
"821 460 LINE",
"1093 458 LINE",
"1092 436 LINE SMOOTH",
"1068 274 OFFCURVE",
"829 -25 OFFCURVE",
"565 -25 QCURVE SMOOTH",
"307 -25 OFFCURVE",
"21 247 OFFCURVE",
"21 462 QCURVE SMOOTH",
"21 1002 LINE SMOOTH",
"21 1197 OFFCURVE",
"308 1485 OFFCURVE",
"563 1485 QCURVE SMOOTH",
"831 1485 OFFCURVE",
"1083 1223 OFFCURVE",
"1092 1030 QCURVE SMOOTH",
"1093 1008 LINE",
"816 1006 LINE",
"816 1030 LINE SMOOTH",
"814 1068 OFFCURVE",
"744 1271 OFFCURVE",
"566 1271 QCURVE SMOOTH",
"404 1271 OFFCURVE",
"300 1111 OFFCURVE",
"300 1004 QCURVE SMOOTH",
"300 464 LINE SMOOTH",
"300 347 OFFCURVE",
"417 172 OFFCURVE",
"579 172 QCURVE SMOOTH",
"698 172 OFFCURVE",
"821 343 OFFCURVE",
"821 436 QCURVE SMOOTH"
);
}
);
width = 1024;
}
);
unicode = 20B5;
userData = {
com.typemytype.robofont.guideline.magnetic.1Am3eQoiKr = 5;
};
},
{
glyphname = rupeeIndian;
layers = (
{
layerId = "7E98EC3E-25FF-427C-A5DF-023FB65530BC";
paths = (
{
closed = 1;
nodes = (
"19 1119 LINE",
"1107 1119 LINE",
"1107 904 LINE",
"19 904 LINE"
);
},
{
closed = 1;
nodes = (
"685 267 LINE SMOOTH",
"580 439 OFFCURVE",
"359 524 OFFCURVE",
"146 535 QCURVE SMOOTH",
"19 542 LINE",
"19 759 LINE",
"342 759 LINE SMOOTH",
"552 759 OFFCURVE",
"678 902 OFFCURVE",
"678 1019 QCURVE SMOOTH",
"678 1107 OFFCURVE",
"534 1239 OFFCURVE",
"357 1239 QCURVE SMOOTH",
"19 1239 LINE",
"19 1456 LINE",
"1117 1456 LINE",
"1117 1240 LINE",
"924 1240 LINE",
"838 1251 LINE",
"840 1240 LINE",
"857 1219 OFFCURVE",
"937 1076 OFFCURVE",
"937 1019 QCURVE SMOOTH",
"937 808 OFFCURVE",
"764 662 OFFCURVE",
"560 631 QCURVE",
"665 599 OFFCURVE",
"852 461 OFFCURVE",
"938 317 QCURVE SMOOTH",
"1129 0 LINE",
"849 0 LINE"
);
}
);
width = 1144;
}
);
unicode = 20B9;
},
{
glyphname = liraTurkish;
layers = (
{
layerId = "7E98EC3E-25FF-427C-A5DF-023FB65530BC";
paths = (
{
closed = 1;
nodes = (
"6 506 LINE",
"988 938 LINE",
"982 712 LINE",
"6 279 LINE"
);
},
{
closed = 1;
nodes = (
"180 1456 LINE",
"434 1456 LINE",
"434 207 LINE",
"511 207 LINE SMOOTH",
"739 207 OFFCURVE",
"955 456 OFFCURVE",
"947 581 QCURVE SMOOTH",
"947 618 LINE",
"1197 618 LINE",
"1197 583 LINE SMOOTH",
"1197 381 OFFCURVE",
"859 -5 OFFCURVE",
"474 -2 QCURVE SMOOTH",
"180 0 LINE"
);
},
{
closed = 1;
nodes = (
"6 885 LINE",
"988 1317 LINE",
"982 1091 LINE",
"6 658 LINE"
);
}
);
width = 1165;
}
);
unicode = 20BA;
},
{
glyphname = manat;
layers = (
{
layerId = "7E98EC3E-25FF-427C-A5DF-023FB65530BC";
paths = (
{
closed = 1;
nodes = (
"1220 0 LINE",
"968 0 LINE",
"968 916 LINE SMOOTH",
"964 1062 OFFCURVE",
"764 1186 OFFCURVE",
"623 1186 QCURVE SMOOTH",
"485 1186 OFFCURVE",
"280 1062 OFFCURVE",
"278 916 QCURVE SMOOTH",
"278 0 LINE",
"26 0 LINE",
"26 916 LINE SMOOTH",
"32 1175 OFFCURVE",
"396 1416 OFFCURVE",
"623 1416 QCURVE SMOOTH",
"855 1416 OFFCURVE",
"1223 1175 OFFCURVE",
"1220 916 QCURVE SMOOTH"
);
},
{
closed = 1;
nodes = (
"518 0 LINE",
"518 1582 LINE",
"728 1582 LINE",
"728 0 LINE"
);
}
);
width = 1246;
}
);
unicode = 20BC;
},
{
glyphname = ruble;
layers = (
{
layerId = "7E98EC3E-25FF-427C-A5DF-023FB65530BC";
paths = (
{
closed = 1;
nodes = (
"35 611 LINE",
"35 826 LINE",
"506 826 LINE SMOOTH",
"670 826 OFFCURVE",
"846 928 OFFCURVE",
"846 1032 QCURVE SMOOTH",
"846 1105 OFFCURVE",
"682 1239 OFFCURVE",
"506 1239 QCURVE SMOOTH",
"440 1239 LINE",
"440 0 LINE",
"192 0 LINE",
"192 1456 LINE",
"506 1456 LINE SMOOTH",
"794 1456 OFFCURVE",
"1119 1212 OFFCURVE",
"1119 1035 QCURVE SMOOTH",
"1119 822 OFFCURVE",
"794 611 OFFCURVE",
"506 611 QCURVE SMOOTH"
);
},
{
closed = 1;
nodes = (
"826 229 LINE",
"34 229 LINE",
"34 448 LINE",
"826 448 LINE"
);
}
);
width = 1064;
}
);
unicode = 20BD;
},
{
glyphname = asciicircum;
layers = (
{
layerId = "7E98EC3E-25FF-427C-A5DF-023FB65530BC";
paths = (
{
closed = 1;
nodes = (
"522 1456 LINE",
"944 1456 LINE",
"1205 720 LINE",
"794 720 LINE",
"683 1026 LINE",
"462 720 LINE",
"1 720 LINE"
);
}
);
width = 1212;
}
);
unicode = 005E;
},
{
glyphname = asciitilde;
layers = (
{
layerId = "7E98EC3E-25FF-427C-A5DF-023FB65530BC";
paths = (
{
closed = 1;
nodes = (
"151 820 LINE",
"211 895 OFFCURVE",
"363 964 OFFCURVE",
"453 964 QCURVE SMOOTH",
"521 964 OFFCURVE",
"680 929 OFFCURVE",
"769 896 QCURVE SMOOTH",
"862 860 OFFCURVE",
"1004 823 OFFCURVE",
"1064 823 QCURVE SMOOTH",
"1132 823 OFFCURVE",
"1261 883 OFFCURVE",
"1332 951 QCURVE",
"1226 352 LINE",
"1185 313 OFFCURVE",
"1060 259 OFFCURVE",
"968 259 QCURVE SMOOTH",
"900 259 OFFCURVE",
"722 295 OFFCURVE",
"610 333 QCURVE SMOOTH",
"523 362 OFFCURVE",
"385 391 OFFCURVE",
"330 391 QCURVE SMOOTH",
"228 391 OFFCURVE",
"101 318 OFFCURVE",
"54 272 QCURVE"
);
}
);
width = 1170;
}
);
unicode = 007E;
},
{
glyphname = acute;
layers = (
{
layerId = "7E98EC3E-25FF-427C-A5DF-023FB65530BC";
paths = (
{
closed = 1;
nodes = (
"417 1503 LINE",
"947 1373 LINE",
"689 1003 LINE",
"205 1133 LINE"
);
}
);
width = 1024;
}
);
unicode = 00B4;
},
{
glyphname = grave;
layers = (
{
layerId = "7E98EC3E-25FF-427C-A5DF-023FB65530BC";
paths = (
{
closed = 1;
nodes = (
"157 1373 LINE",
"701 1503 LINE",
"853 1133 LINE",
"358 1003 LINE"
);
}
);
width = 955;
}
);
unicode = 0060;
},
{
glyphname = hungarumlaut;
layers = (
{
layerId = "7E98EC3E-25FF-427C-A5DF-023FB65530BC";
paths = (
{
closed = 1;
nodes = (
"216 1504 LINE",
"572 1294 LINE",
"234 952 LINE",
"-70 1120 LINE"
);
},
{
closed = 1;
nodes = (
"783 1504 LINE",
"1138 1294 LINE",
"801 952 LINE",
"495 1120 LINE"
);
}
);
width = 1024;
}
);
unicode = 02DD;
},
{
glyphname = circumflex;
layers = (
{
layerId = "7E98EC3E-25FF-427C-A5DF-023FB65530BC";
paths = (
{
closed = 1;
nodes = (
"1059 979 LINE",
"657 979 LINE",
"506 1067 LINE",
"354 979 LINE",
"-43 979 LINE",
"416 1456 LINE",
"594 1456 LINE"
);
}
);
width = 1024;
}
);
unicode = 02C6;
},
{
glyphname = caron;
layers = (
{
layerId = "7E98EC3E-25FF-427C-A5DF-023FB65530BC";
paths = (
{
closed = 1;
nodes = (
"-13 1446 LINE",
"389 1446 LINE",
"510 1358 LINE",
"632 1446 LINE",
"1029 1446 LINE",
"600 969 LINE",
"422 969 LINE"
);
}
);
width = 1024;
}
);
unicode = 02C7;
},
{
glyphname = breve;
layers = (
{
layerId = "7E98EC3E-25FF-427C-A5DF-023FB65530BC";
paths = (
{
closed = 1;
nodes = (
"1016 1357 LINE",
"963 1206 OFFCURVE",
"701 954 OFFCURVE",
"513 954 QCURVE SMOOTH",
"344 954 OFFCURVE",
"74 1187 OFFCURVE",
"10 1359 QCURVE",
"299 1439 LINE",
"333 1397 OFFCURVE",
"443 1326 OFFCURVE",
"516 1326 QCURVE SMOOTH",
"596 1326 OFFCURVE",
"706 1395 OFFCURVE",
"741 1439 QCURVE"
);
}
);
width = 1022;
}
);
unicode = 02D8;
},
{
glyphname = tilde;
layers = (
{
layerId = "7E98EC3E-25FF-427C-A5DF-023FB65530BC";
paths = (
{
closed = 1;
nodes = (
"44 1284 OFFCURVE",
"230 1458 OFFCURVE",
"327 1458 QCURVE SMOOTH",
"384 1458 OFFCURVE",
"488 1433 OFFCURVE",
"538 1410 QCURVE SMOOTH",
"585 1389 OFFCURVE",
"693 1345 OFFCURVE",
"746 1345 QCURVE SMOOTH",
"802 1345 OFFCURVE",
"899 1396 OFFCURVE",
"930 1432 QCURVE",
"1041 1236 LINE",
"991 1113 OFFCURVE",
"824 981 OFFCURVE",
"727 981 QCURVE SMOOTH",
"658 981 OFFCURVE",
"529 1026 OFFCURVE",
"486 1043 QCURVE SMOOTH",
"439 1062 OFFCURVE",
"344 1099 OFFCURVE",
"304 1099 QCURVE SMOOTH",
"240 1099 OFFCURVE",
"128 1024 OFFCURVE",
"103 995 QCURVE",
"-2 1170 LINE"
);
}
);
width = 1024;
}
);
unicode = 02DC;
},
{
glyphname = macron;
layers = (
{
layerId = "7E98EC3E-25FF-427C-A5DF-023FB65530BC";
paths = (
{
closed = 1;
nodes = (
"927 1014 LINE",
"97 1014 LINE",
"97 1422 LINE",
"927 1422 LINE"
);
}
);
width = 1024;
}
);
unicode = 00AF;
},
{
glyphname = dieresis;
layers = (
{
layerId = "7E98EC3E-25FF-427C-A5DF-023FB65530BC";
paths = (
{
closed = 1;
nodes = (
"-1 1274 OFFCURVE",
"121 1404 OFFCURVE",
"237 1404 QCURVE SMOOTH",
"354 1404 OFFCURVE",
"476 1274 OFFCURVE",
"476 1180 QCURVE SMOOTH",
"476 1091 OFFCURVE",
"354 964 OFFCURVE",
"237 964 QCURVE SMOOTH",
"121 964 OFFCURVE",
"-1 1091 OFFCURVE",
"-1 1180 QCURVE SMOOTH"
);
},
{
closed = 1;
nodes = (
"548 1272 OFFCURVE",
"667 1402 OFFCURVE",
"786 1402 QCURVE SMOOTH",
"899 1402 OFFCURVE",
"1024 1272 OFFCURVE",
"1024 1178 QCURVE SMOOTH",
"1024 1089 OFFCURVE",
"899 962 OFFCURVE",
"786 962 QCURVE SMOOTH",
"667 962 OFFCURVE",
"548 1089 OFFCURVE",
"548 1178 QCURVE SMOOTH"
);
}
);
width = 1024;
}
);
unicode = 00A8;
},
{
glyphname = dotaccent;
layers = (
{
layerId = "7E98EC3E-25FF-427C-A5DF-023FB65530BC";
paths = (
{
closed = 1;
nodes = (
"274 1302 OFFCURVE",
"395 1436 OFFCURVE",
"512 1436 QCURVE SMOOTH",
"628 1436 OFFCURVE",
"750 1302 OFFCURVE",
"750 1205 QCURVE SMOOTH",
"750 1113 OFFCURVE",
"628 981 OFFCURVE",
"512 981 QCURVE SMOOTH",
"395 981 OFFCURVE",
"274 1113 OFFCURVE",
"274 1205 QCURVE SMOOTH"
);
}
);
width = 1024;
}
);
unicode = 02D9;
},
{
glyphname = ring;
layers = (
{
layerId = "7E98EC3E-25FF-427C-A5DF-023FB65530BC";
paths = (
{
closed = 1;
nodes = (
"172 1383 OFFCURVE",
"368 1573 OFFCURVE",
"512 1573 QCURVE SMOOTH",
"654 1573 OFFCURVE",
"852 1383 OFFCURVE",
"852 1251 QCURVE SMOOTH",
"852 1115 OFFCURVE",
"654 933 OFFCURVE",
"512 933 QCURVE SMOOTH",
"368 933 OFFCURVE",
"172 1115 OFFCURVE",
"172 1251 QCURVE"
);
},
{
closed = 1;
nodes = (
"413 1213 OFFCURVE",
"469 1155 OFFCURVE",
"512 1155 QCURVE SMOOTH",
"555 1155 OFFCURVE",
"611 1212 OFFCURVE",
"611 1252 QCURVE SMOOTH",
"611 1290 OFFCURVE",
"555 1349 OFFCURVE",
"512 1349 QCURVE SMOOTH",
"469 1349 OFFCURVE",
"413 1290 OFFCURVE",
"413 1252 QCURVE"
);
}
);
width = 1024;
}
);
unicode = 02DA;
},
{
glyphname = cedilla;
layers = (
{
layerId = "7E98EC3E-25FF-427C-A5DF-023FB65530BC";
paths = (
{
closed = 1;
nodes = (
"622 42 LINE",
"587 -61 LINE",
"680 -73 OFFCURVE",
"806 -156 OFFCURVE",
"806 -250 QCURVE SMOOTH",
"806 -353 OFFCURVE",
"611 -475 OFFCURVE",
"279 -475 QCURVE",
"267 -316 LINE",
"358 -316 OFFCURVE",
"435 -287 OFFCURVE",
"435 -254 QCURVE SMOOTH",
"435 -225 OFFCURVE",
"381 -203 OFFCURVE",
"312 -197 QCURVE",
"382 42 LINE"
);
}
);
width = 1024;
}
);
unicode = 00B8;
},
{
glyphname = ogonek;
layers = (
{
layerId = "7E98EC3E-25FF-427C-A5DF-023FB65530BC";
paths = (
{
closed = 1;
nodes = (
"714 -4 LINE",
"665 -33 OFFCURVE",
"580 -100 OFFCURVE",
"580 -140 QCURVE SMOOTH",
"580 -159 OFFCURVE",
"608 -184 OFFCURVE",
"640 -184 QCURVE SMOOTH",
"666 -184 OFFCURVE",
"707 -172 OFFCURVE",
"719 -167 QCURVE",
"745 -431 LINE",
"700 -448 OFFCURVE",
"563 -479 OFFCURVE",
"458 -479 QCURVE SMOOTH",
"315 -479 OFFCURVE",
"117 -372 OFFCURVE",
"117 -270 QCURVE SMOOTH",
"117 -184 OFFCURVE",
"336 -11 OFFCURVE",
"500 57 QCURVE"
);
}
);
width = 1024;
}
);
unicode = 02DB;
},
{
glyphname = copyright;
layers = (
{
guideLines = (
{
position = "{0, 901}";
},
{
position = "{0, 555}";
}
);
layerId = "7E98EC3E-25FF-427C-A5DF-023FB65530BC";
paths = (
{
closed = 1;
nodes = (
"1240 549 LINE",
"1240 354 OFFCURVE",
"953 205 OFFCURVE",
"796 205 QCURVE SMOOTH",
"633 205 OFFCURVE",
"399 419 OFFCURVE",
"399 655 QCURVE SMOOTH",
"399 701 LINE SMOOTH",
"399 938 OFFCURVE",
"635 1170 OFFCURVE",
"830 1170 QCURVE SMOOTH",
"1029 1170 OFFCURVE",
"1244 977 OFFCURVE",
"1244 825 QCURVE",
"989 825 LINE",
"989 883 OFFCURVE",
"908 939 OFFCURVE",
"826 939 QCURVE SMOOTH",
"746 939 OFFCURVE",
"675 850 OFFCURVE",
"675 789 QCURVE SMOOTH",
"675 569 LINE SMOOTH",
"675 492 OFFCURVE",
"767 422 OFFCURVE",
"846 422 QCURVE SMOOTH",
"925 422 OFFCURVE",
"983 486 OFFCURVE",
"983 549 QCURVE"
);
},
{
closed = 1;
nodes = (
"206 420 OFFCURVE",
"587 35 OFFCURVE",
"828 35 QCURVE SMOOTH",
"1068 35 OFFCURVE",
"1449 420 OFFCURVE",
"1449 687 QCURVE SMOOTH",
"1449 958 OFFCURVE",
"1068 1335 OFFCURVE",
"828 1335 QCURVE SMOOTH",
"587 1335 OFFCURVE",
"206 958 OFFCURVE",
"206 687 QCURVE SMOOTH"
);
},
{
closed = 1;
nodes = (
"18 1039 OFFCURVE",
"501 1539 OFFCURVE",
"827 1539 QCURVE SMOOTH",
"1152 1539 OFFCURVE",
"1636 1039 OFFCURVE",
"1636 687 QCURVE SMOOTH",
"1636 337 OFFCURVE",
"1152 -167 OFFCURVE",
"827 -167 QCURVE SMOOTH",
"501 -167 OFFCURVE",
"18 337 OFFCURVE",
"18 687 QCURVE SMOOTH"
);
}
);
width = 1654;
}
);
leftKerningGroup = copyright;
rightKerningGroup = copyright;
unicode = 00A9;
userData = {
com.typemytype.robofont.guideline.magnetic.0Pjz0qKr8z = 5;
com.typemytype.robofont.guideline.magnetic.sJo8BlDiJ7 = 5;
};
},
{
glyphname = registered;
layers = (
{
layerId = "7E98EC3E-25FF-427C-A5DF-023FB65530BC";
paths = (
{
closed = 1;
nodes = (
"18 1039 OFFCURVE",
"501 1539 OFFCURVE",
"827 1539 QCURVE SMOOTH",
"1152 1539 OFFCURVE",
"1636 1039 OFFCURVE",
"1636 687 QCURVE SMOOTH",
"1636 337 OFFCURVE",
"1152 -157 OFFCURVE",
"827 -157 QCURVE SMOOTH",
"501 -157 OFFCURVE",
"18 337 OFFCURVE",
"18 687 QCURVE SMOOTH"
);
},
{
closed = 1;
nodes = (
"206 428 OFFCURVE",
"587 44 OFFCURVE",
"828 44 QCURVE SMOOTH",
"1068 44 OFFCURVE",
"1449 428 OFFCURVE",
"1449 687 QCURVE SMOOTH",
"1449 953 OFFCURVE",
"1068 1337 OFFCURVE",
"828 1337 QCURVE SMOOTH",
"587 1337 OFFCURVE",
"206 953 OFFCURVE",
"206 687 QCURVE SMOOTH"
);
},
{
closed = 1;
nodes = (
"689 575 LINE",
"689 225 LINE",
"469 225 LINE",
"469 1158 LINE",
"821 1158 LINE SMOOTH",
"998 1158 OFFCURVE",
"1227 1018 OFFCURVE",
"1227 867 QCURVE SMOOTH",
"1227 742 OFFCURVE",
"1117 626 OFFCURVE",
"1000 604 QCURVE",
"1040 581 OFFCURVE",
"1056 559 OFFCURVE",
"1074 530 QCURVE SMOOTH",
"1258 243 LINE",
"1258 225 LINE",
"1012 225 LINE",
"836 575 LINE"
);
},
{
closed = 1;
nodes = (
"689 955 LINE",
"689 760 LINE",
"847 760 LINE SMOOTH",
"892 760 OFFCURVE",
"975 789 OFFCURVE",
"975 838 QCURVE SMOOTH",
"975 915 OFFCURVE",
"945 954 OFFCURVE",
"822 955 QCURVE SMOOTH"
);
}
);
width = 1654;
}
);
leftKerningGroup = copyright;
rightKerningGroup = copyright;
unicode = 00AE;
},
{
glyphname = trademark;
layers = (
{
layerId = "7E98EC3E-25FF-427C-A5DF-023FB65530BC";
paths = (
{
closed = 1;
nodes = (
"24 1446 LINE",
"732 1446 LINE",
"732 1228 LINE",
"495 1228 LINE",
"495 690 LINE",
"261 690 LINE",
"261 1228 LINE",
"24 1228 LINE"
);
},
{
closed = 1;
nodes = (
"824 1446 LINE",
"1030 1446 LINE",
"1270 897 LINE",
"1284 897 LINE",
"1533 1446 LINE",
"1742 1446 LINE",
"1742 690 LINE",
"1553 690 LINE",
"1553 1071 LINE",
"1532 1071 LINE",
"1368 690 LINE",
"1189 690 LINE",
"1047 1071 LINE",
"1025 1071 LINE",
"1025 690 LINE",
"824 690 LINE"
);
}
);
width = 1881;
}
);
unicode = 2122;
},
{
glyphname = degree;
layers = (
{
layerId = "7E98EC3E-25FF-427C-A5DF-023FB65530BC";
paths = (
{
closed = 1;
nodes = (
"112 1331 OFFCURVE",
"274.269 1497 OFFCURVE",
"386 1497 QCURVE SMOOTH",
"496.985 1497 OFFCURVE",
"656 1330.94 OFFCURVE",
"656 1217 QCURVE SMOOTH",
"656 1102.567 OFFCURVE",
"496.985 940 OFFCURVE",
"386 940 QCURVE SMOOTH",
"274.269 940 OFFCURVE",
"112 1102 OFFCURVE",
"112 1217 QCURVE"
);
},
{
closed = 1;
nodes = (
"265 1165.552 OFFCURVE",
"336.537 1098 OFFCURVE",
"386 1098 QCURVE SMOOTH",
"435.463 1098 OFFCURVE",
"503 1165.552 OFFCURVE",
"503 1217 QCURVE SMOOTH",
"503 1268.94 OFFCURVE",
"435.463 1339 OFFCURVE",
"386 1339 QCURVE SMOOTH",
"336.537 1339 OFFCURVE",
"265 1268.94 OFFCURVE",
"265 1217 QCURVE"
);
}
);
width = 765;
}
);
unicode = 00B0;
},
{
glyphname = diagonalbarL;
layers = (
{
layerId = "7E98EC3E-25FF-427C-A5DF-023FB65530BC";
paths = (
{
closed = 1;
nodes = (
"0 584 LINE",
"664 995 LINE",
"745 860 LINE",
"80 446 LINE"
);
}
);
width = 741;
}
);
},
{
glyphname = diagonalbarO;
layers = (
{
layerId = "7E98EC3E-25FF-427C-A5DF-023FB65530BC";
paths = (
{
closed = 1;
nodes = (
"57 86 LINE",
"75 81 LINE",
"281 871 LINE",
"389 803 LINE",
"196 54 LINE",
"216 50 LINE",
"173 -109 LINE",
"3 -109 LINE"
);
},
{
closed = 1;
nodes = (
"623 1618 LINE",
"570 1424 LINE",
"549 1428 LINE",
"389 803 LINE",
"281 871 LINE",
"429 1455 LINE",
"409 1460 LINE",
"452 1618 LINE"
);
}
);
width = 623;
}
);
},
{
glyphname = diagonalbarl;
layers = (
{
layerId = "7E98EC3E-25FF-427C-A5DF-023FB65530BC";
paths = (
{
closed = 1;
nodes = (
"-188 498 LINE",
"245 807 LINE",
"691 1172 LINE",
"798 989 LINE",
"347 649 LINE",
"-77 312 LINE"
);
}
);
width = 629;
}
);
},
{
glyphname = diagonalbaro;
layers = (
{
layerId = "7E98EC3E-25FF-427C-A5DF-023FB65530BC";
paths = (
{
closed = 1;
nodes = (
"-4 89 LINE",
"14 84 LINE",
"215 584 LINE",
"314 514 LINE",
"131 55 LINE",
"151 51 LINE",
"77 -123 LINE",
"-88 -118 LINE"
);
},
{
closed = 1;
nodes = (
"589 1141 LINE",
"511 948 LINE",
"490 953 LINE",
"314 514 LINE",
"215 584 LINE",
"374 981 LINE",
"354 987 LINE",
"418 1144 LINE"
);
}
);
width = 512;
}
);
},
{
glyphname = engtail;
layers = (
{
layerId = "7E98EC3E-25FF-427C-A5DF-023FB65530BC";
paths = (
{
closed = 1;
nodes = (
"551 190 LINE",
"551 -195 LINE SMOOTH",
"551 -276 OFFCURVE",
"425 -443 OFFCURVE",
"269 -443 QCURVE SMOOTH",
"197 -443 OFFCURVE",
"67 -381 OFFCURVE",
"27 -329 QCURVE",
"100 -242 LINE",
"142 -283 OFFCURVE",
"207 -304 OFFCURVE",
"248 -304 QCURVE SMOOTH",
"270 -304 OFFCURVE",
"326 -278 OFFCURVE",
"326 -165 QCURVE",
"326 -86 OFFCURVE",
"326 150 OFFCURVE",
"326 150 QCURVE",
"389 190 LINE"
);
}
);
width = 629;
}
);
},
{
glyphname = horizontalbarH;
layers = (
{
layerId = "7E98EC3E-25FF-427C-A5DF-023FB65530BC";
paths = (
{
closed = 1;
nodes = (
"1520 1025 LINE",
"1520 1162 LINE",
"1752 1164 LINE",
"1742 1027 LINE"
);
},
{
closed = 1;
nodes = (
"-294 1162 LINE",
"-55 1162 LINE",
"-55 1025 LINE",
"-285 1025 LINE"
);
},
{
closed = 1;
nodes = (
"-55 1152 LINE",
"1520 1152 LINE",
"1520 1035 LINE",
"-55 1035 LINE"
);
}
);
width = 1458;
}
);
},
{
glyphname = horizontalbarlc;
layers = (
{
layerId = "7E98EC3E-25FF-427C-A5DF-023FB65530BC";
paths = (
{
closed = 1;
nodes = (
"-71 656 LINE",
"-60 802 LINE",
"351 802 LINE",
"736 802 LINE",
"736 656 LINE",
"311 656 LINE"
);
}
);
width = 636;
}
);
},
{
glyphname = idotless;
layers = (
{
layerId = "7E98EC3E-25FF-427C-A5DF-023FB65530BC";
paths = (
{
closed = 1;
nodes = (
"123 914 LINE",
"706 914 LINE",
"545 0 LINE",
"-38 0 LINE"
);
}
);
width = 745;
}
);
leftKerningGroup = mnpr_LC;
rightKerningGroup = u_LC;
},
{
glyphname = jdotless;
layers = (
{
layerId = "7E98EC3E-25FF-427C-A5DF-023FB65530BC";
paths = (
{
closed = 1;
nodes = (
"-357 -42 LINE",
"-330 -49 OFFCURVE",
"-255 -55 OFFCURVE",
"-204 -55 QCURVE SMOOTH",
"-103 -55 OFFCURVE",
"3 55 OFFCURVE",
"29 207 QCURVE SMOOTH",
"154 914 LINE",
"732 914 LINE",
"591 111 LINE SMOOTH",
"540 -182 OFFCURVE",
"162 -440 OFFCURVE",
"-134 -440 QCURVE SMOOTH",
"-236 -440 OFFCURVE",
"-372 -428 OFFCURVE",
"-417 -417 QCURVE"
);
}
);
width = 807;
}
);
rightKerningGroup = j_LC;
},
{
glyphname = zerosuperior;
layers = (
{
layerId = "7E98EC3E-25FF-427C-A5DF-023FB65530BC";
paths = (
{
closed = 1;
nodes = (
"64 1079 LINE",
"88 1270 OFFCURVE",
"394 1476 OFFCURVE",
"600 1476 QCURVE SMOOTH",
"808 1475 OFFCURVE",
"1054 1265 OFFCURVE",
"1030 1085 QCURVE",
"1029 1077 LINE",
"1005 872 OFFCURVE",
"699 658 OFFCURVE",
"492 658 QCURVE SMOOTH",
"285 659 OFFCURVE",
"39 855 OFFCURVE",
"63 1061 QCURVE"
);
},
{
closed = 1;
nodes = (
"433 955 OFFCURVE",
"468 915 OFFCURVE",
"512 915 QCURVE SMOOTH",
"557 914 OFFCURVE",
"607 953 OFFCURVE",
"619 1018 QCURVE SMOOTH",
"635 1106 LINE SMOOTH",
"646 1169 OFFCURVE",
"615 1219 OFFCURVE",
"566 1219 QCURVE SMOOTH",
"519 1220 OFFCURVE",
"472 1171 OFFCURVE",
"460 1106 QCURVE SMOOTH",
"444 1018 LINE SMOOTH"
);
}
);
width = 979;
}
);
},
{
glyphname = gravecomb.case;
layers = (
{
layerId = "7E98EC3E-25FF-427C-A5DF-023FB65530BC";
paths = (
{
closed = 1;
nodes = (
"36 1896 LINE",
"572 2132 LINE",
"921 1712 LINE",
"423 1545 LINE"
);
}
);
width = 1024;
}
);
},
{
glyphname = acutecomb.case;
layers = (
{
layerId = "7E98EC3E-25FF-427C-A5DF-023FB65530BC";
paths = (
{
closed = 1;
nodes = (
"515 2132 LINE",
"1051 1896 LINE",
"664 1545 LINE",
"166 1712 LINE"
);
}
);
width = 1024;
}
);
},
{
glyphname = circumflexcomb.case;
layers = (
{
layerId = "7E98EC3E-25FF-427C-A5DF-023FB65530BC";
paths = (
{
closed = 1;
nodes = (
"1088 1579 LINE",
"627 1579 LINE",
"503 1666 LINE",
"379 1579 LINE",
"-78 1579 LINE",
"400 2052 LINE",
"604 2052 LINE"
);
}
);
width = 1024;
}
);
},
{
glyphname = tildecomb.case;
layers = (
{
layerId = "7E98EC3E-25FF-427C-A5DF-023FB65530BC";
paths = (
{
closed = 1;
nodes = (
"10 1905 OFFCURVE",
"207 2097 OFFCURVE",
"309 2097 QCURVE SMOOTH",
"369 2097 OFFCURVE",
"478 2068 OFFCURVE",
"532 2044 QCURVE SMOOTH",
"581 2020 OFFCURVE",
"694 1973 OFFCURVE",
"751 1973 QCURVE SMOOTH",
"810 1973 OFFCURVE",
"912 2028 OFFCURVE",
"944 2067 QCURVE",
"1062 1854 LINE",
"1009 1718 OFFCURVE",
"833 1573 OFFCURVE",
"731 1573 QCURVE SMOOTH",
"658 1573 OFFCURVE",
"521 1623 OFFCURVE",
"476 1642 QCURVE SMOOTH",
"426 1662 OFFCURVE",
"326 1704 OFFCURVE",
"285 1704 QCURVE SMOOTH",
"218 1704 OFFCURVE",
"99 1621 OFFCURVE",
"72 1589 QCURVE",
"-39 1780 LINE"
);
}
);
width = 1024;
}
);
},
{
glyphname = macroncomb.case;
layers = (
{
layerId = "7E98EC3E-25FF-427C-A5DF-023FB65530BC";
paths = (
{
closed = 1;
nodes = (
"85 2010 LINE",
"939 2010 LINE",
"939 1619 LINE",
"85 1619 LINE"
);
}
);
width = 1024;
}
);
},
{
glyphname = brevecomb.case;
layers = (
{
layerId = "7E98EC3E-25FF-427C-A5DF-023FB65530BC";
paths = (
{
closed = 1;
nodes = (
"1033 1959 LINE",
"979 1812 OFFCURVE",
"708 1564 OFFCURVE",
"513 1564 QCURVE SMOOTH",
"338 1564 OFFCURVE",
"58 1792 OFFCURVE",
"-7 1961 QCURVE",
"291 2040 LINE",
"326 1998 OFFCURVE",
"441 1929 OFFCURVE",
"516 1929 QCURVE SMOOTH",
"598 1929 OFFCURVE",
"714 1996 OFFCURVE",
"749 2040 QCURVE"
);
}
);
width = 1024;
}
);
},
{
glyphname = dotaccentcomb.case;
layers = (
{
layerId = "7E98EC3E-25FF-427C-A5DF-023FB65530BC";
paths = (
{
closed = 1;
nodes = (
"254 1939 OFFCURVE",
"385 2075 OFFCURVE",
"512 2075 QCURVE SMOOTH",
"638 2075 OFFCURVE",
"770 1939 OFFCURVE",
"770 1841 QCURVE SMOOTH",
"770 1748 OFFCURVE",
"638 1614 OFFCURVE",
"512 1614 QCURVE SMOOTH",
"385 1614 OFFCURVE",
"254 1748 OFFCURVE",
"254 1841 QCURVE SMOOTH"
);
}
);
width = 1024;
}
);
},
{
glyphname = dieresiscomb.case;
layers = (
{
layerId = "7E98EC3E-25FF-427C-A5DF-023FB65530BC";
paths = (
{
closed = 1;
nodes = (
"-79 1939 OFFCURVE",
"61 2077 OFFCURVE",
"197 2077 QCURVE SMOOTH",
"330 2077 OFFCURVE",
"471 1939 OFFCURVE",
"471 1839 QCURVE SMOOTH",
"471 1744 OFFCURVE",
"330 1608 OFFCURVE",
"197 1608 QCURVE SMOOTH",
"61 1608 OFFCURVE",
"-79 1744 OFFCURVE",
"-79 1839 QCURVE SMOOTH"
);
},
{
closed = 1;
nodes = (
"553 1936 OFFCURVE",
"690 2075 OFFCURVE",
"826 2075 QCURVE SMOOTH",
"957 2075 OFFCURVE",
"1102 1936 OFFCURVE",
"1102 1837 QCURVE SMOOTH",
"1102 1742 OFFCURVE",
"957 1606 OFFCURVE",
"826 1606 QCURVE SMOOTH",
"690 1606 OFFCURVE",
"553 1742 OFFCURVE",
"553 1837 QCURVE SMOOTH"
);
}
);
width = 1024;
}
);
},
{
glyphname = hookabovecomb.case;
layers = (
{
layerId = "7E98EC3E-25FF-427C-A5DF-023FB65530BC";
paths = (
{
closed = 1;
nodes = (
"294 1607 LINE SMOOTH",
"294 1689 OFFCURVE",
"404 1768 OFFCURVE",
"482 1772 QCURVE SMOOTH",
"536 1776 OFFCURVE",
"565 1789 OFFCURVE",
"565 1807 QCURVE SMOOTH",
"565 1821 OFFCURVE",
"520 1839 OFFCURVE",
"465 1839 QCURVE SMOOTH",
"403 1839 OFFCURVE",
"266 1812 OFFCURVE",
"253 1809 QCURVE",
"163 2005 LINE",
"210 2026 OFFCURVE",
"437 2074 OFFCURVE",
"562 2074 QCURVE SMOOTH",
"747 2074 OFFCURVE",
"954 1944 OFFCURVE",
"954 1834 QCURVE SMOOTH",
"954 1719 OFFCURVE",
"798 1585 OFFCURVE",
"560 1573 QCURVE",
"560 1537 LINE",
"294 1537 LINE"
);
}
);
width = 1024;
}
);
},
{
glyphname = ringcomb.case;
layers = (
{
layerId = "7E98EC3E-25FF-427C-A5DF-023FB65530BC";
paths = (
{
closed = 1;
nodes = (
"141 1994 OFFCURVE",
"354 2188 OFFCURVE",
"512 2188 QCURVE SMOOTH",
"667 2188 OFFCURVE",
"883 1994 OFFCURVE",
"883 1858 QCURVE SMOOTH",
"883 1719 OFFCURVE",
"667 1533 OFFCURVE",
"512 1533 QCURVE",
"354 1533 OFFCURVE",
"141 1719 OFFCURVE",
"141 1858 QCURVE SMOOTH"
);
},
{
closed = 1;
nodes = (
"404 1821 OFFCURVE",
"465 1761 OFFCURVE",
"512 1761 QCURVE SMOOTH",
"559 1761 OFFCURVE",
"620 1819 OFFCURVE",
"620 1859 QCURVE SMOOTH",
"620 1898 OFFCURVE",
"559 1959 OFFCURVE",
"512 1959 QCURVE SMOOTH",
"465 1959 OFFCURVE",
"404 1898 OFFCURVE",
"404 1859 QCURVE SMOOTH"
);
}
);
width = 1024;
}
);
},
{
glyphname = caroncomb.case;
layers = (
{
layerId = "7E98EC3E-25FF-427C-A5DF-023FB65530BC";
paths = (
{
closed = 1;
nodes = (
"-78 2052 LINE",
"383 2052 LINE",
"507 1965 LINE",
"631 2052 LINE",
"1088 2052 LINE",
"610 1579 LINE",
"406 1579 LINE"
);
}
);
width = 1024;
}
);
},
{
glyphname = breveinvertedcomb.case;
layers = (
{
layerId = "7E98EC3E-25FF-427C-A5DF-023FB65530BC";
paths = (
{
closed = 1;
nodes = (
"-7 1653 LINE",
"47 1800 OFFCURVE",
"318 2048 OFFCURVE",
"513 2048 QCURVE SMOOTH",
"688 2048 OFFCURVE",
"968 1820 OFFCURVE",
"1033 1651 QCURVE",
"735 1572 LINE",
"700 1614 OFFCURVE",
"585 1683 OFFCURVE",
"510 1683 QCURVE SMOOTH",
"428 1683 OFFCURVE",
"312 1616 OFFCURVE",
"277 1572 QCURVE"
);
}
);
width = 1024;
}
);
},
{
glyphname = horncomb.case;
layers = (
{
layerId = "7E98EC3E-25FF-427C-A5DF-023FB65530BC";
paths = (
{
closed = 1;
nodes = (
"90 1456 LINE SMOOTH",
"143 1456 OFFCURVE",
"221 1493 OFFCURVE",
"221 1547 QCURVE SMOOTH",
"221 1595 OFFCURVE",
"207 1673 OFFCURVE",
"196 1711 QCURVE",
"547 1711 LINE",
"579 1676 OFFCURVE",
"633 1566 OFFCURVE",
"633 1478 QCURVE SMOOTH",
"633 1355 OFFCURVE",
"400 1239 OFFCURVE",
"240 1239 QCURVE SMOOTH",
"164 1239 OFFCURVE",
"43 1254 OFFCURVE",
"0 1267 QCURVE",
"0 1456 LINE"
);
}
);
width = 1024;
}
);
},
{
glyphname = commaaccentcomb.case;
layers = (
{
layerId = "7E98EC3E-25FF-427C-A5DF-023FB65530BC";
paths = (
{
closed = 1;
nodes = (
"152 -545 OFFCURVE",
"212 -363 OFFCURVE",
"239 -235 QCURVE",
"856 -233 LINE",
"689 -652 LINE",
"118 -649 LINE"
);
}
);
width = 1024;
}
);
},
{
glyphname = cedillacomb.case;
layers = (
{
layerId = "7E98EC3E-25FF-427C-A5DF-023FB65530BC";
paths = (
{
closed = 1;
nodes = (
"664 42 LINE",
"620 -77 LINE",
"738 -90 OFFCURVE",
"901 -184 OFFCURVE",
"901 -293 QCURVE SMOOTH",
"901 -410 OFFCURVE",
"650 -551 OFFCURVE",
"222 -551 QCURVE",
"207 -369 LINE",
"325 -369 OFFCURVE",
"424 -334 OFFCURVE",
"424 -298 QCURVE SMOOTH",
"424 -263 OFFCURVE",
"353 -238 OFFCURVE",
"264 -232 QCURVE",
"355 42 LINE"
);
}
);
width = 1024;
}
);
},
{
glyphname = ogonekcomb.case;
layers = (
{
layerId = "7E98EC3E-25FF-427C-A5DF-023FB65530BC";
paths = (
{
closed = 1;
nodes = (
"102 -213 OFFCURVE",
"292 -20 OFFCURVE",
"535 57 QCURVE",
"788 -6 LINE",
"738 -39 OFFCURVE",
"654 -117 OFFCURVE",
"654 -163 QCURVE SMOOTH",
"654 -186 OFFCURVE",
"696 -213 OFFCURVE",
"742 -213 QCURVE SMOOTH",
"782 -213 OFFCURVE",
"843 -200 OFFCURVE",
"859 -193 QCURVE",
"891 -490 LINE",
"835 -509 OFFCURVE",
"662 -544 OFFCURVE",
"530 -544 QCURVE SMOOTH",
"350 -544 OFFCURVE",
"102 -424 OFFCURVE",
"102 -310 QCURVE SMOOTH"
);
}
);
width = 1024;
}
);
},
{
glyphname = acutecombstack.case;
layers = (
{
layerId = "7E98EC3E-25FF-427C-A5DF-023FB65530BC";
paths = (
{
closed = 1;
nodes = (
"501 2187 LINE",
"958 1904 LINE",
"573 1585 LINE",
"106 1789 LINE"
);
}
);
width = 1024;
}
);
},
{
glyphname = brevecombstack.case;
layers = (
{
layerId = "7E98EC3E-25FF-427C-A5DF-023FB65530BC";
paths = (
{
closed = 1;
nodes = (
"1002 1905 LINE",
"951 1779 OFFCURVE",
"695 1564 OFFCURVE",
"510 1564 QCURVE SMOOTH",
"344 1564 OFFCURVE",
"79 1761 OFFCURVE",
"17 1906 QCURVE",
"300 1974 LINE",
"332 1939 OFFCURVE",
"442 1879 OFFCURVE",
"513 1879 QCURVE SMOOTH",
"590 1879 OFFCURVE",
"699 1937 OFFCURVE",
"733 1974 QCURVE"
);
}
);
width = 1024;
}
);
},
{
glyphname = circumflexcombstack.case;
layers = (
{
layerId = "7E98EC3E-25FF-427C-A5DF-023FB65530BC";
paths = (
{
closed = 1;
nodes = (
"1003 1579 LINE",
"588 1579 LINE",
"503 1654 LINE",
"418 1579 LINE",
"7 1579 LINE",
"410 1979 LINE",
"594 1979 LINE"
);
}
);
width = 1024;
}
);
},
{
glyphname = dieresiscombstack.case;
layers = (
{
layerId = "7E98EC3E-25FF-427C-A5DF-023FB65530BC";
paths = (
{
closed = 1;
nodes = (
"11 1898 OFFCURVE",
"129 2017 OFFCURVE",
"245 2017 QCURVE SMOOTH",
"358 2017 OFFCURVE",
"477 1898 OFFCURVE",
"477 1812 QCURVE SMOOTH",
"477 1731 OFFCURVE",
"358 1614 OFFCURVE",
"245 1614 QCURVE SMOOTH",
"129 1614 OFFCURVE",
"11 1731 OFFCURVE",
"11 1812 QCURVE SMOOTH"
);
},
{
closed = 1;
nodes = (
"547 1896 OFFCURVE",
"664 2015 OFFCURVE",
"778 2015 QCURVE SMOOTH",
"889 2015 OFFCURVE",
"1011 1896 OFFCURVE",
"1011 1810 QCURVE SMOOTH",
"1011 1729 OFFCURVE",
"889 1612 OFFCURVE",
"778 1612 QCURVE SMOOTH",
"664 1612 OFFCURVE",
"547 1729 OFFCURVE",
"547 1810 QCURVE SMOOTH"
);
}
);
width = 1024;
}
);
},
{
glyphname = dotaccentcombstack.case;
layers = (
{
layerId = "7E98EC3E-25FF-427C-A5DF-023FB65530BC";
paths = (
{
closed = 1;
nodes = (
"279 1898 OFFCURVE",
"397 2017 OFFCURVE",
"512 2017 QCURVE SMOOTH",
"625 2017 OFFCURVE",
"744 1898 OFFCURVE",
"744 1812 QCURVE SMOOTH",
"744 1731 OFFCURVE",
"625 1614 OFFCURVE",
"512 1614 QCURVE SMOOTH",
"397 1614 OFFCURVE",
"279 1731 OFFCURVE",
"279 1812 QCURVE SMOOTH"
);
}
);
width = 1024;
}
);
},
{
glyphname = gravecombstack.case;
layers = (
{
layerId = "7E98EC3E-25FF-427C-A5DF-023FB65530BC";
paths = (
{
closed = 1;
nodes = (
"106 1904 LINE",
"563 2187 LINE",
"958 1789 LINE",
"491 1585 LINE"
);
}
);
width = 1024;
}
);
},
{
glyphname = hookabovecombstack.case;
layers = (
{
layerId = "7E98EC3E-25FF-427C-A5DF-023FB65530BC";
paths = (
{
closed = 1;
nodes = (
"294 1607 LINE SMOOTH",
"294 1690 OFFCURVE",
"390 1769 OFFCURVE",
"458 1772 QCURVE SMOOTH",
"504 1777 OFFCURVE",
"530 1790 OFFCURVE",
"530 1809 QCURVE SMOOTH",
"530 1822 OFFCURVE",
"490 1840 OFFCURVE",
"443 1840 QCURVE SMOOTH",
"389 1840 OFFCURVE",
"270 1813 OFFCURVE",
"259 1810 QCURVE",
"181 2007 LINE",
"221 2029 OFFCURVE",
"418 2076 OFFCURVE",
"527 2076 QCURVE SMOOTH",
"688 2076 OFFCURVE",
"866 1945 OFFCURVE",
"866 1835 QCURVE SMOOTH",
"866 1720 OFFCURVE",
"732 1585 OFFCURVE",
"525 1573 QCURVE",
"525 1537 LINE",
"294 1537 LINE"
);
}
);
width = 1024;
}
);
},
{
glyphname = macroncombstack.case;
layers = (
{
layerId = "7E98EC3E-25FF-427C-A5DF-023FB65530BC";
paths = (
{
closed = 1;
nodes = (
"123 1951 LINE",
"901 1951 LINE",
"901 1619 LINE",
"123 1619 LINE"
);
}
);
width = 1024;
}
);
},
{
glyphname = tildecombstack.case;
layers = (
{
layerId = "7E98EC3E-25FF-427C-A5DF-023FB65530BC";
paths = (
{
closed = 1;
nodes = (
"46 1882 OFFCURVE",
"228 2052 OFFCURVE",
"324 2052 QCURVE SMOOTH",
"380 2052 OFFCURVE",
"481 2028 OFFCURVE",
"532 2005 QCURVE SMOOTH",
"577 1985 OFFCURVE",
"683 1941 OFFCURVE",
"734 1941 QCURVE SMOOTH",
"790 1941 OFFCURVE",
"885 1992 OFFCURVE",
"915 2027 QCURVE",
"1024 1836 LINE",
"975 1715 OFFCURVE",
"811 1586 OFFCURVE",
"717 1586 QCURVE SMOOTH",
"648 1586 OFFCURVE",
"521 1630 OFFCURVE",
"479 1647 QCURVE SMOOTH",
"433 1665 OFFCURVE",
"340 1702 OFFCURVE",
"301 1702 QCURVE SMOOTH",
"239 1702 OFFCURVE",
"128 1628 OFFCURVE",
"104 1599 QCURVE",
"0 1771 LINE"
);
}
);
width = 1024;
}
);
},
{
glyphname = caroncomb.alt;
layers = (
{
layerId = "7E98EC3E-25FF-427C-A5DF-023FB65530BC";
paths = (
{
closed = 1;
nodes = (
"357 1522 LINE",
"916 1408 LINE",
"603 909 LINE",
"162 997 LINE"
);
}
);
width = 1024;
}
);
},
{
glyphname = dollar.rvrn;
layers = (
{
layerId = "7E98EC3E-25FF-427C-A5DF-023FB65530BC";
paths = (
{
closed = 1;
nodes = (
"2 484 LINE",
"530 484 LINE",
"527 449 LINE SMOOTH",
"523 397 OFFCURVE",
"631 350 OFFCURVE",
"725 350 QCURVE SMOOTH",
"821 350 OFFCURVE",
"952 378 OFFCURVE",
"959 413 QCURVE SMOOTH",
"965 445 OFFCURVE",
"913 475 OFFCURVE",
"670 528 QCURVE SMOOTH",
"365 594 OFFCURVE",
"118 836 OFFCURVE",
"146 1052 QCURVE SMOOTH",
"173 1262 OFFCURVE",
"601 1474 OFFCURVE",
"928 1474 QCURVE SMOOTH",
"1259 1474 OFFCURVE",
"1607 1275 OFFCURVE",
"1595 1085 QCURVE SMOOTH",
"1590 1005 LINE",
"1072 1005 LINE",
"1072 1018 LINE SMOOTH",
"1072 1054 OFFCURVE",
"987 1090 OFFCURVE",
"875 1090 QCURVE SMOOTH",
"754 1090 OFFCURVE",
"691 1076 OFFCURVE",
"688 1053 QCURVE SMOOTH",
"685 1030 OFFCURVE",
"746 1007 OFFCURVE",
"1014 953 QCURVE SMOOTH",
"1274 901 OFFCURVE",
"1530 669 OFFCURVE",
"1502 449 QCURVE SMOOTH",
"1473 221 OFFCURVE",
"1037 -20 OFFCURVE",
"701 -20 QCURVE SMOOTH",
"363 -20 OFFCURVE",
"-10 183 OFFCURVE",
"-2 387 QCURVE SMOOTH"
);
},
{
closed = 1;
nodes = (
"537 328 LINE",
"980 328 LINE",
"942 99 LINE",
"944 89 LINE",
"901 -151 LINE",
"432 -151 LINE"
);
},
{
closed = 1;
nodes = (
"717 1356 LINE",
"714 1366 LINE",
"748 1606 LINE",
"1217 1606 LINE",
"1118 1128 LINE",
"676 1128 LINE"
);
}
);
width = 1589;
}
);
},
{
glyphname = zero.prop;
layers = (
{
layerId = "7E98EC3E-25FF-427C-A5DF-023FB65530BC";
paths = (
{
closed = 1;
nodes = (
"142 963 LINE SMOOTH",
"142 1182 OFFCURVE",
"442 1496 OFFCURVE",
"707 1496 QCURVE SMOOTH",
"968 1496 OFFCURVE",
"1270 1182 OFFCURVE",
"1270 963 QCURVE SMOOTH",
"1270 493 LINE SMOOTH",
"1270 274 OFFCURVE",
"968 -38 OFFCURVE",
"707 -40 QCURVE SMOOTH",
"442 -42 OFFCURVE",
"142 274 OFFCURVE",
"142 493 QCURVE SMOOTH"
);
},
{
closed = 1;
nodes = (
"420 369 OFFCURVE",
"556 178 OFFCURVE",
"707 178 QCURVE SMOOTH",
"857 178 OFFCURVE",
"992 369 OFFCURVE",
"992 483 QCURVE SMOOTH",
"992 973 LINE SMOOTH",
"992 1087 OFFCURVE",
"857 1279 OFFCURVE",
"707 1279 QCURVE SMOOTH",
"556 1279 OFFCURVE",
"420 1087 OFFCURVE",
"420 973 QCURVE SMOOTH",
"420 483 LINE SMOOTH"
);
}
);
width = 1412;
}
);
},
{
glyphname = one.prop;
layers = (
{
layerId = "7E98EC3E-25FF-427C-A5DF-023FB65530BC";
paths = (
{
closed = 1;
nodes = (
"385 1137 LINE",
"-5 952 LINE",
"-5 1220 LINE",
"656 1476 LINE",
"657 1476 LINE",
"657 0 LINE",
"385 0 LINE"
);
}
);
width = 802;
}
);
},
{
glyphname = two.prop;
layers = (
{
layerId = "7E98EC3E-25FF-427C-A5DF-023FB65530BC";
paths = (
{
closed = 1;
nodes = (
"-7 196 LINE",
"579 711 LINE SMOOTH",
"706 823 OFFCURVE",
"795 948 OFFCURVE",
"795 1047 QCURVE SMOOTH",
"795 1110 OFFCURVE",
"679 1278 OFFCURVE",
"551 1278 QCURVE SMOOTH",
"427 1278 OFFCURVE",
"261 1095 OFFCURVE",
"261 985 QCURVE SMOOTH",
"261 985 LINE",
"-9 985 LINE",
"-9 985 LINE SMOOTH",
"-9 1187 OFFCURVE",
"316 1496 OFFCURVE",
"548 1496 QCURVE SMOOTH",
"786 1496 OFFCURVE",
"1065 1215 OFFCURVE",
"1065 1057 QCURVE SMOOTH",
"1065 894 OFFCURVE",
"859 639 OFFCURVE",
"742 547 QCURVE SMOOTH",
"321 214 LINE",
"1111 214 LINE",
"1111 0 LINE",
"-7 0 LINE"
);
}
);
width = 1096;
}
);
},
{
glyphname = three.prop;
layers = (
{
layerId = "7E98EC3E-25FF-427C-A5DF-023FB65530BC";
paths = (
{
closed = 1;
nodes = (
"1 385 LINE",
"263 385 LINE",
"263 385 LINE SMOOTH",
"263 294 OFFCURVE",
"409 178 OFFCURVE",
"549 178 QCURVE SMOOTH",
"678 178 OFFCURVE",
"831 290 OFFCURVE",
"831 409 QCURVE SMOOTH",
"831 525 OFFCURVE",
"667 653 OFFCURVE",
"511 653 QCURVE SMOOTH",
"433 653 LINE",
"433 866 LINE",
"499 866 LINE SMOOTH",
"647 866 OFFCURVE",
"780 998 OFFCURVE",
"780 1071 QCURVE SMOOTH",
"780 1175 OFFCURVE",
"654 1279 OFFCURVE",
"549 1279 QCURVE SMOOTH",
"455 1279 OFFCURVE",
"306 1184 OFFCURVE",
"306 1095 QCURVE SMOOTH",
"306 1095 LINE",
"44 1095 LINE",
"44 1095 LINE SMOOTH",
"44 1234 OFFCURVE",
"319 1496 OFFCURVE",
"549 1496 QCURVE SMOOTH",
"776 1496 OFFCURVE",
"1054 1249 OFFCURVE",
"1054 1086 QCURVE SMOOTH",
"1054 1034 OFFCURVE",
"948 831 OFFCURVE",
"812 765 QCURVE",
"812 761 LINE",
"957 721 OFFCURVE",
"1109 526 OFFCURVE",
"1109 414 QCURVE SMOOTH",
"1109 199 OFFCURVE",
"784 -40 OFFCURVE",
"549 -40 QCURVE SMOOTH",
"310 -40 OFFCURVE",
"1 207 OFFCURVE",
"1 385 QCURVE SMOOTH"
);
}
);
width = 1217;
}
);
},
{
glyphname = four.prop;
layers = (
{
layerId = "7E98EC3E-25FF-427C-A5DF-023FB65530BC";
paths = (
{
closed = 1;
nodes = (
"680 405 LINE",
"680 495 LINE",
"680 1054 LINE",
"662 1054 LINE",
"288 550 LINE",
"754 550 LINE",
"883 550 LINE",
"1166 550 LINE",
"1166 335 LINE",
"-35 335 LINE",
"-35 484 LINE",
"692 1456 LINE",
"931 1456 LINE",
"931 0 LINE",
"680 0 LINE"
);
}
);
width = 1141;
}
);
},
{
glyphname = five.prop;
layers = (
{
layerId = "7E98EC3E-25FF-427C-A5DF-023FB65530BC";
paths = (
{
closed = 1;
nodes = (
"83 360 LINE",
"341 360 LINE",
"341 360 LINE SMOOTH",
"341 286 OFFCURVE",
"497 178 OFFCURVE",
"619 178 QCURVE SMOOTH",
"741 178 OFFCURVE",
"909 345 OFFCURVE",
"909 465 QCURVE SMOOTH",
"909 585 OFFCURVE",
"735 766 OFFCURVE",
"596 766 QCURVE SMOOTH",
"511 766 OFFCURVE",
"389 714 OFFCURVE",
"305 646 QCURVE",
"132 743 LINE",
"208 1456 LINE",
"1092 1456 LINE",
"1092 1212 LINE",
"426 1212 LINE",
"392 938 LINE",
"451 953 OFFCURVE",
"564 984 OFFCURVE",
"634 984 QCURVE SMOOTH",
"867 984 OFFCURVE",
"1177 683 OFFCURVE",
"1177 465 QCURVE SMOOTH",
"1177 247 OFFCURVE",
"856 -40 OFFCURVE",
"619 -40 QCURVE SMOOTH",
"382 -40 OFFCURVE",
"83 209 OFFCURVE",
"83 360 QCURVE SMOOTH"
);
}
);
width = 1259;
}
);
},
{
glyphname = six.prop;
layers = (
{
layerId = "7E98EC3E-25FF-427C-A5DF-023FB65530BC";
paths = (
{
closed = 1;
nodes = (
"104 644 LINE SMOOTH",
"104 1010 OFFCURVE",
"589 1496 OFFCURVE",
"1063 1496 QCURVE SMOOTH",
"1084 1496 LINE",
"1084 1276 LINE",
"1063 1276 LINE SMOOTH",
"741 1276 OFFCURVE",
"371 1002 OFFCURVE",
"371 674 QCURVE SMOOTH",
"371 594 LINE SMOOTH",
"371 366 OFFCURVE",
"575 178 OFFCURVE",
"719 178 QCURVE SMOOTH",
"876 178 OFFCURVE",
"1030 347 OFFCURVE",
"1030 473 QCURVE SMOOTH",
"1030 614 OFFCURVE",
"868 787 OFFCURVE",
"720 787 QCURVE SMOOTH",
"582 787 OFFCURVE",
"358 628 OFFCURVE",
"358 463 QCURVE",
"284 463 LINE",
"284 703 OFFCURVE",
"540 1004 OFFCURVE",
"780 1004 QCURVE SMOOTH",
"1004 1004 OFFCURVE",
"1298 701 OFFCURVE",
"1298 473 QCURVE SMOOTH",
"1298 253 OFFCURVE",
"967 -40 OFFCURVE",
"723 -40 QCURVE SMOOTH",
"493 -40 OFFCURVE",
"104 271 OFFCURVE",
"104 614 QCURVE SMOOTH"
);
}
);
width = 1372;
}
);
},
{
glyphname = seven.prop;
layers = (
{
layerId = "7E98EC3E-25FF-427C-A5DF-023FB65530BC";
paths = (
{
closed = 1;
nodes = (
"644 1242 LINE",
"-26 1242 LINE",
"-26 1456 LINE",
"921 1456 LINE",
"921 1332 LINE",
"475 0 LINE",
"201 0 LINE"
);
}
);
width = 929;
}
);
},
{
glyphname = eight.prop;
layers = (
{
layerId = "7E98EC3E-25FF-427C-A5DF-023FB65530BC";
paths = (
{
closed = 1;
nodes = (
"171 507 OFFCURVE",
"299 674 OFFCURVE",
"432 739 QCURVE",
"432 743 LINE",
"341 798 OFFCURVE",
"220 983 OFFCURVE",
"220 1078 QCURVE SMOOTH",
"220 1258 OFFCURVE",
"518 1496 OFFCURVE",
"713 1496 QCURVE SMOOTH",
"908 1496 OFFCURVE",
"1208 1268 OFFCURVE",
"1208 1078 QCURVE SMOOTH",
"1208 991 OFFCURVE",
"1098 800 OFFCURVE",
"1005 741 QCURVE",
"1005 737 LINE",
"1131 671 OFFCURVE",
"1257 504 OFFCURVE",
"1257 395 QCURVE SMOOTH",
"1257 193 OFFCURVE",
"942 -40 OFFCURVE",
"713 -40 QCURVE SMOOTH",
"484 -40 OFFCURVE",
"171 193 OFFCURVE",
"171 395 QCURVE SMOOTH"
);
},
{
closed = 1;
nodes = (
"438 309 OFFCURVE",
"591 178 OFFCURVE",
"714 178 QCURVE SMOOTH",
"837 178 OFFCURVE",
"992 308 OFFCURVE",
"992 403 QCURVE SMOOTH",
"992 489 OFFCURVE",
"851 636 OFFCURVE",
"714 636 QCURVE SMOOTH",
"577 636 OFFCURVE",
"438 489 OFFCURVE",
"438 402 QCURVE SMOOTH"
);
},
{
closed = 1;
nodes = (
"479 973 OFFCURVE",
"598 854 OFFCURVE",
"714 854 QCURVE SMOOTH",
"830 854 OFFCURVE",
"949 973 OFFCURVE",
"949 1060 QCURVE SMOOTH",
"949 1145 OFFCURVE",
"809 1279 OFFCURVE",
"714 1279 QCURVE SMOOTH",
"619 1279 OFFCURVE",
"479 1137 OFFCURVE",
"479 1060 QCURVE SMOOTH"
);
}
);
width = 1432;
}
);
},
{
glyphname = nine.prop;
layers = (
{
layerId = "7E98EC3E-25FF-427C-A5DF-023FB65530BC";
paths = (
{
closed = 1;
nodes = (
"64 1215 OFFCURVE",
"395 1496 OFFCURVE",
"639 1496 QCURVE SMOOTH",
"869 1496 OFFCURVE",
"1258 1185 OFFCURVE",
"1258 842 QCURVE SMOOTH",
"1258 812 LINE SMOOTH",
"1258 446 OFFCURVE",
"773 -40 OFFCURVE",
"299 -40 QCURVE SMOOTH",
"278 -40 LINE",
"278 178 LINE",
"299 178 LINE SMOOTH",
"621 178 OFFCURVE",
"991 454 OFFCURVE",
"991 782 QCURVE SMOOTH",
"991 862 LINE SMOOTH",
"991 1090 OFFCURVE",
"787 1279 OFFCURVE",
"643 1279 QCURVE SMOOTH",
"486 1279 OFFCURVE",
"332 1119 OFFCURVE",
"332 1003 QCURVE SMOOTH",
"332 872 OFFCURVE",
"494 704 OFFCURVE",
"642 704 QCURVE SMOOTH",
"780 704 OFFCURVE",
"1004 858 OFFCURVE",
"1004 1013 QCURVE",
"1078 1013 LINE",
"1078 781 OFFCURVE",
"822 486 OFFCURVE",
"582 486 QCURVE SMOOTH",
"360 486 OFFCURVE",
"64 783 OFFCURVE",
"64 1003 QCURVE SMOOTH"
);
}
);
width = 1372;
}
);
},
{
glyphname = .notdef;
layers = (
{
layerId = "7E98EC3E-25FF-427C-A5DF-023FB65530BC";
paths = (
{
closed = 1;
nodes = (
"127 1456 LINE",
"127 1402 LINE",
"777 1402 LINE",
"777 1456 LINE"
);
},
{
closed = 1;
nodes = (
"100 1456 LINE",
"100 0 LINE",
"154 0 LINE",
"154 1456 LINE"
);
},
{
closed = 1;
nodes = (
"808 0 LINE",
"754 0 LINE",
"754 1456 LINE",
"808 1456 LINE"
);
},
{
closed = 1;
nodes = (
"127 54 LINE",
"127 0 LINE",
"777 0 LINE",
"777 54 LINE"
);
},
{
closed = 1;
nodes = (
"184 30 LINE",
"126 30 LINE",
"719 1426 LINE",
"777 1426 LINE"
);
},
{
closed = 1;
nodes = (
"777 30 LINE",
"184 1426 LINE",
"126 1426 LINE",
"719 30 LINE"
);
}
